SplineFontDB: 3.0
FontName: AnkaCoder-C75-SkelI
FullName: Anna Shugol/Coder Narrow Italic
FamilyName: Anka/Coder Narrow
Weight: Book
Copyright: Copyright (c) 2010, Andrey Makarov (makarov@bmstu.ru, mka-at-mailru@mail.ru),\nwith Reserved Font Name Anka/Coder Narrow.\n---------------------------------\nThe Anka/* are members of Anna Shugol name font family; March 2010
Version: 001.000
StrokeWidth: 100
ItalicAngle: -12
UnderlinePosition: -292
UnderlineWidth: 50
Ascent: 1638
Descent: 410
LayerCount: 2
Layer: 0 0 "Back"  1
Layer: 1 0 "Fore"  0
StrokedFont: 1
NeedsXUIDChange: 1
XUID: [1021 77 1780377344 8504298]
UseXUID: 1
BaseHoriz: 0
FSType: 8
OS2Version: 1
OS2_WeightWidthSlopeOnly: 0
OS2_UseTypoMetrics: 1
CreationTime: 1260467214
ModificationTime: 1267184821
PfmFamily: 49
TTFWeight: 400
TTFWidth: 3
LineGap: 0
VLineGap: 0
Panose: 2 11 5 9 2 5 2 2 2 4
OS2TypoAscent: 0
OS2TypoAOffset: 1
OS2TypoDescent: 0
OS2TypoDOffset: 1
OS2TypoLinegap: 0
OS2WinAscent: 0
OS2WinAOffset: 1
OS2WinDescent: 0
OS2WinDOffset: 1
HheadAscent: 0
HheadAOffset: 1
HheadDescent: 0
HheadDOffset: 1
OS2SubXSize: 553
OS2SubYSize: 1229
OS2SubXOff: 0
OS2SubYOff: 283
OS2SupXSize: 553
OS2SupYSize: 1229
OS2SupXOff: 0
OS2SupYOff: 977
OS2StrikeYSize: 102
OS2StrikeYPos: 530
OS2FamilyClass: 1285
OS2Vendor: 'AVM1'
OS2CodePages: 40000097.cfd60000
OS2UnicodeRanges: 800002ef.000079eb.00000000.00000000
MacStyle: 2
DEI: 91125
ShortTable: maxp 16
  0
  0
  0
  0
  0
  0
  0
  2
  1
  0
  9
  0
  256
  0
  0
  0
EndShort
TtTable: prep
PUSHW_1
 511
SCANCTRL
SVTCA[y-axis]
MPPEM
PUSHB_1
 8
LT
IF
PUSHB_2
 1
 1
INSTCTRL
EIF
PUSHB_2
 70
 6
CALL
IF
POP
PUSHB_1
 16
EIF
MPPEM
PUSHB_1
 20
GT
IF
POP
PUSHB_1
 128
EIF
SCVTCI
PUSHB_1
 6
CALL
NOT
IF
EIF
EndTTInstrs
TtTable: fpgm
PUSHB_1
 0
FDEF
PUSHB_1
 0
SZP0
MPPEM
PUSHB_1
 42
LT
IF
PUSHB_1
 74
SROUND
EIF
PUSHB_1
 0
SWAP
MIAP[rnd]
RTG
PUSHB_1
 6
CALL
IF
RTDG
EIF
MPPEM
PUSHB_1
 42
LT
IF
RDTG
EIF
DUP
MDRP[rp0,rnd,grey]
PUSHB_1
 1
SZP0
MDAP[no-rnd]
RTG
ENDF
PUSHB_1
 1
FDEF
DUP
DUP

StartChar: exclam
Encoding: 33 33 1
Width: 922
VWidth: 1708
GlyphClass: 2
Flags: W
HStem: -23 236<363.831 557.094> 1398 20G<428.5 489>
VStem: 336 249<6.3129 184.037 1384.21 1392.37> 371 182<384 808.823>
LayerCount: 2
Fore
SplineSet
495 95 m 0xe0
 495 26 436 -23 370 -23 c 0
 306 -23 246 27 246 95 c 0
 246 157 300 213 370 213 c 0
 435 213 495 165 495 95 c 0xe0
646 1418 m 0
 710 1418 769 1383 746 1290 c 2
 523 384 l 1
 341 384 l 1xd0
 504 1291 l 2
 522 1388 589 1418 646 1418 c 0
EndSplineSet
EndChar

StartChar: quotedbl
Encoding: 34 34 2
Width: 922
VWidth: 1708
GlyphClass: 2
Flags: W
LayerCount: 2
Fore
SplineSet
352 1076 m 2
 335 1057 316 1049 299 1049 c 3
 271 1049 249 1070 249 1102 c 3
 249 1114 252 1127 259 1141 c 2
 369 1368 l 2
 389 1409 421 1426 453 1426 c 3
 503 1426 553 1384 553 1331 c 3
 553 1309 544 1285 522 1261 c 2
 352 1076 l 2
712 1076 m 2
 695 1057 676 1049 659 1049 c 3
 631 1049 609 1070 609 1102 c 3
 609 1114 612 1127 619 1141 c 2
 729 1368 l 2
 749 1409 781 1426 813 1426 c 3
 863 1426 913 1384 913 1331 c 3
 913 1309 904 1285 882 1261 c 2
 712 1076 l 2
EndSplineSet
EndChar

StartChar: numbersign
Encoding: 35 35 3
Width: 922
VWidth: 1708
GlyphClass: 2
Flags: MW
LayerCount: 2
Back
SplineSet
-82 0 m 5
 217 1350 l 5
 1009 1350 l 5
 710 0 l 5
 -82 0 l 5
EndSplineSet
Fore
SplineSet
30 973 m 25
 952 973 l 25
-22 416 m 25
 900 416 l 25
812 1425 m 25
 475 -99 l 25
442 1425 m 25
 105 -99 l 25
EndSplineSet
EndChar

StartChar: dollar
Encoding: 36 36 4
Width: 922
VWidth: 2334
GlyphClass: 2
Flags: MW
LayerCount: 2
Back
SplineSet
-132 -93 m 5
 205 1491 l 5
 1127 1491 l 5
 790 -93 l 5
 -132 -93 l 5
EndSplineSet
Fore
SplineSet
705 1674 m 25
 300 -216 l 25
98 308 m 0
 98 175 211 50 352 50 c 10
 370 50 l 18
 524 50 687 183 720 337 c 10
 726 367 l 18
 751 479 723 660 623 716 c 2
 388 850 l 2
 332 883 281 1002 306 1102 c 2
 312 1132 l 2
 345 1287 478 1350 633 1350 c 10
 640 1350 l 18
 773 1350 871 1292 882 1177 c 1
EndSplineSet
EndChar

StartChar: percent
Encoding: 37 37 5
Width: 922
VWidth: 1708
GlyphClass: 2
Flags: MW
LayerCount: 2
Fore
SplineSet
-4 76 m 25
 1002 1325 l 25
383 957 m 3
 281 957 224 1043 223 1145 c 3
 224 1248 281 1333 384 1333 c 3
 488 1333 543 1249 543 1145 c 3
 543 1049 489 957 383 957 c 3
612 64 m 3
 510 64 452 144 452 252 c 3
 452 356 509 439 612 439 c 3
 716 439 772 355 772 252 c 3
 772 154 718 64 612 64 c 3
EndSplineSet
EndChar

StartChar: ampersand
Encoding: 38 38 6
Width: 922
VWidth: 2334
GlyphClass: 2
Flags: MW
LayerCount: 2
Fore
SplineSet
710 10 m 1
 458 811 l 2
 430 881 387 954 387 1047 c 0
 387 1068 396 1121 400 1140 c 2
 404 1162 l 2
 429 1278 511 1350 627 1350 c 10
 646 1350 l 18
 749 1350 806 1298 806 1209 c 0
 806 1192 804 1175 800 1157 c 2
 787 1098 l 2
 777 1049 700 973 656 939 c 2
 288 639 l 1
 201 576 127 471 105 367 c 10
 99 337 l 18
 96 319 88 269 88 252 c 0
 88 125 193 50 329 50 c 10
 347 50 l 18
 473 50 575 121 647 240 c 2
 845 590 l 0
EndSplineSet
EndChar

StartChar: quotesingle
Encoding: 39 39 7
Width: 922
VWidth: 1708
GlyphClass: 2
Flags: W
HStem: 942 492<453.923 488.972>
VStem: 453 172<1091.41 1329.5>
LayerCount: 2
Fore
SplineSet
562 1076 m 6
 545 1057 526 1049 509 1049 c 7
 481 1049 459 1070 459 1102 c 7
 459 1114 462 1127 469 1141 c 6
 579 1368 l 6
 599 1409 631 1426 663 1426 c 7
 713 1426 763 1384 763 1331 c 7
 763 1309 754 1285 732 1261 c 6
 562 1076 l 6
EndSplineSet
EndChar

StartChar: parenleft
Encoding: 40 40 8
Width: 922
VWidth: 1708
GlyphClass: 2
Flags: MW
LayerCount: 2
Fore
SplineSet
823 1480 m 17
 586 1320 346 1072 274 732 c 16
 182 292 366 40 491 -80 c 12
EndSplineSet
EndChar

StartChar: parenright
Encoding: 41 41 9
Width: 922
VWidth: 1708
GlyphClass: 2
Flags: MW
LayerCount: 2
Fore
SplineSet
485 1480 m 16
 682 1294 785 1059 716 732 c 12
 644 392 390 80 153 -80 c 9
EndSplineSet
EndChar

StartChar: asterisk
Encoding: 42 42 10
Width: 922
VWidth: 1708
GlyphClass: 2
Flags: MW
LayerCount: 2
Fore
SplineSet
199 305 m 25
 477 600 l 25
 561.757 1000 l 25
477 600 m 25
 628 305 l 25
855 745 m 25
 477 600 l 25
 160 745 l 25
EndSplineSet
EndChar

StartChar: plus
Encoding: 43 43 11
Width: 922
VWidth: 1708
GlyphClass: 2
Flags: MW
LayerCount: 2
Back
SplineSet
-28 157 m 5
 155 1011 l 5
 975 1011 l 5
 792 157 l 5
 -28 157 l 5
EndSplineSet
Fore
SplineSet
350 1 m 25
 595 1156 l 25
-14 600 m 25
 988 600 l 25
EndSplineSet
EndChar

StartChar: comma
Encoding: 44 44 12
Width: 922
VWidth: 1947
GlyphClass: 2
Flags: MW
LayerCount: 2
Fore
SplineSet
556.876 6.79688 m 21
 528.454 -122.11 472.176 -300.304 241.796 -277.916 c 13
 238.559 -220.999 l 21
 311.249 -210.891 470.313 -145.534 388.068 -37.0645 c 13
 556.876 6.79688 l 21
557.625 29 m 4
 557.625 -22.75 517.875 -68.5 460.125 -68.5 c 4
 404.625 -68.5 363.375 -23.5 363.375 29 c 4
 363.375 80 401.625 126.5 460.125 126.5 c 4
 517.125 126.5 557.625 81.5 557.625 29 c 4
EndSplineSet
EndChar

StartChar: hyphen
Encoding: 45 45 13
Width: 922
VWidth: 1708
GlyphClass: 2
Flags: MW
LayerCount: 2
Fore
SplineSet
50 600 m 25
 872 600 l 25
EndSplineSet
EndChar

StartChar: period
Encoding: 46 46 14
Width: 922
VWidth: 1708
GlyphClass: 2
Flags: MW
LayerCount: 2
Fore
SplineSet
558 29 m 4
 558 -23 518 -68 460 -68 c 4
 405 -68 363 -24 363 29 c 4
 363 80 402 126 460 126 c 4
 517 126 558 82 558 29 c 4
EndSplineSet
EndChar

StartChar: slash
Encoding: 47 47 15
Width: 922
VWidth: 1708
GlyphClass: 2
Flags: MW
LayerCount: 2
Fore
SplineSet
65 -25 m 29
 931 1425 l 29
EndSplineSet
EndChar

StartChar: zero
Encoding: 48 48 16
Width: 922
VWidth: 1947
GlyphClass: 2
Flags: MW
LayerCount: 2
Back
SplineSet
202 1476 m 5
 1033 1476 l 5
 1069 1218 l 5
 799 -51 l 5
 -29 -51 l 5
 -71 187 l 5
 202 1476 l 5
EndSplineSet
Fore
SplineSet
637 1350 m 2
 804 1350 872 1094 804 781 c 2
 775 645 l 2
 697 285 544 50 369 50 c 2
 353 50 l 2
 175 50 125 301 206 683 c 2
 227 779 l 2
 296 1082 444 1350 621 1350 c 2
 637 1350 l 2
-138 -25 m 25
 1133 1425 l 25
EndSplineSet
EndChar

StartChar: one
Encoding: 49 49 17
Width: 922
VWidth: 1708
GlyphClass: 2
Flags: MW
LayerCount: 2
Back
SplineSet
-41 335 m 5
 367 767 l 5
 404 938 l 5
 343 1024 l 5
 719 1425 l 5
 1113 1425 l 5
 805 -25 l 5
 -117 -25 l 5
 -41 335 l 5
EndSplineSet
Fore
SplineSet
417 -138 m 25
 735 1350 l 25
 245 983 l 25
EndSplineSet
EndChar

StartChar: two
Encoding: 50 50 18
Width: 922
VWidth: 2334
GlyphClass: 2
Flags: MW
LayerCount: 2
Back
SplineSet
-27 -25 m 5
 292 1479 l 5
 1124 1479 l 5
 862 241 l 5
 772 241 l 5
 715 -25 l 5
 -27 -25 l 5
EndSplineSet
Fore
SplineSet
332 1181 m 1
 401 1290 473 1350 627 1350 c 10
 645 1350 l 18
 872 1350 911 1264 873 1096 c 10
 865 1056 l 18
 852 998 785 904 718 834 c 2
 287 384 l 2
 214 308 139 179 88 75 c 1
 878 75 l 9
EndSplineSet
EndChar

StartChar: three
Encoding: 51 51 19
Width: 922
VWidth: 2334
GlyphClass: 2
Flags: MW
LayerCount: 2
Fore
SplineSet
341 1190 m 1
 404 1296 521 1350 627 1350 c 10
 645 1350 l 18
 821 1350 842 1215 809 1063 c 10
 800 1022 l 18
 777 912 635 809 501 809 c 2
 362 809 l 9
 530 809 l 18
 718 809 758 611 717 417 c 10
 712 397 l 18
 666 177 550 50 370 50 c 10
 352 50 l 18
 245 50 129 104 129 242 c 0
EndSplineSet
EndChar

StartChar: four
Encoding: 52 52 20
Width: 922
VWidth: 1708
GlyphClass: 2
Flags: MW
LayerCount: 2
Back
SplineSet
281 1425 m 5
 1023 1425 l 5
 720 0 l 5
 -22 0 l 5
 281 1425 l 5
EndSplineSet
Fore
SplineSet
528 -150 m 25
 848 1352 l 25
 144 427 l 25
 959 427 l 25
EndSplineSet
EndChar

StartChar: five
Encoding: 53 53 21
Width: 922
VWidth: 2334
GlyphClass: 2
Flags: MW
LayerCount: 2
Back
SplineSet
191 1425 m 5
 964 1425 l 5
 907 1154 l 5
 1055 1154 l 5
 799 -54 l 5
 -123 -54 l 5
 -81 141 l 5
 342 393 l 5
 376 556 l 5
 68 845 l 5
 191 1425 l 5
EndSplineSet
Fore
SplineSet
1064 1325 m 1
 442 1325 l 1
 175 495 l 1
 219 699 416 879 527 879 c 10
 545 879 l 18
 733 879 773 681 732 487 c 10
 719 427 l 18
 671 201 550 50 370 50 c 10
 302 50 l 18
 145 50 49 155 92 337 c 0
EndSplineSet
EndChar

StartChar: six
Encoding: 54 54 22
Width: 922
VWidth: 2334
GlyphClass: 2
Flags: MW
LayerCount: 2
Fore
SplineSet
170 468 m 25
 277 974 l 18
 319 1170 447 1350 627 1350 c 10
 645 1350 l 18
 771 1350 847 1320 866 1232 c 1
174 487 m 10
 161 427 l 18
 116 215 202 50 352 50 c 10
 370 50 l 18
 550 50 671 201 719 427 c 10
 732 487 l 18
 773 681 733 879 545 879 c 10
 527 879 l 18
 347 879 221 711 174 487 c 10
EndSplineSet
EndChar

StartChar: seven
Encoding: 55 55 23
Width: 922
VWidth: 1708
GlyphClass: 2
Flags: MW
LayerCount: 2
Back
SplineSet
204 1485 m 5
 1036 1485 l 5
 720 0 l 5
 -112 0 l 5
 204 1485 l 5
EndSplineSet
Fore
SplineSet
260 1325 m 25
 910 1325 l 17
 604 893 302 379 117 -93 c 9
EndSplineSet
EndChar

StartChar: eight
Encoding: 56 56 24
Width: 922
VWidth: 2334
GlyphClass: 2
Flags: MW
LayerCount: 2
Fore
SplineSet
645 1350 m 10
 627 1350 l 18
 492 1350 373 1225 351 1114 c 2
 343 1074 l 2
 321 973 357 809 511 809 c 10
 531 809 l 18
 665 809 787 962 810 1072 c 10
 819 1113 l 18
 844 1228 821 1350 645 1350 c 10
159 437 m 10
 154 417 l 18
 115 232 143 50 352 50 c 10
 370 50 l 18
 550 50 666 197 712 417 c 10
 717 437 l 18
 758 630 717 809 530 809 c 10
 512 809 l 18
 332 809 206 661 159 437 c 10
EndSplineSet
EndChar

StartChar: nine
Encoding: 57 57 25
Width: 922
VWidth: 2334
GlyphClass: 2
Flags: MW
LayerCount: 2
Fore
SplineSet
829 945 m 25
 722 443 l 18
 685 266 550 50 370 50 c 10
 352 50 l 18
 226 50 149 80 131 168 c 1
826 930 m 18
 778 706 656 553 476 553 c 10
 458 553 l 18
 271 553 227 737 268 930 c 10
 274 958 l 18
 329 1216 447 1350 627 1350 c 10
 645 1350 l 18
 795 1350 878 1171 832 958 c 10
 826 930 l 18
EndSplineSet
EndChar

StartChar: less
Encoding: 60 60 28
Width: 922
VWidth: 1708
GlyphClass: 2
Flags: MW
LayerCount: 2
Back
SplineSet
268 1364 m 5
 1010 1364 l 5
 697 -110 l 5
 -45 -110 l 5
 268 1364 l 5
EndSplineSet
Fore
SplineSet
1044 1192 m 25
 198 600 l 25
 793 8 l 25
EndSplineSet
EndChar

StartChar: equal
Encoding: 61 61 29
Width: 922
VWidth: 1708
GlyphClass: 2
Flags: MW
LayerCount: 2
Fore
SplineSet
117 842 m 29
 939 842 l 29
23 400 m 29
 845 400 l 29
EndSplineSet
EndChar

StartChar: greater
Encoding: 62 62 30
Width: 922
VWidth: 1708
GlyphClass: 2
Flags: MW
LayerCount: 2
Back
SplineSet
268 1364 m 5
 1010 1364 l 5
 697 -110 l 5
 -45 -110 l 5
 268 1364 l 5
EndSplineSet
Fore
SplineSet
-88 8 m 25
 756 600 l 25
 162 1192 l 25
EndSplineSet
EndChar

StartChar: question
Encoding: 63 63 31
Width: 922
VWidth: 1708
GlyphClass: 2
Flags: W
HStem: -101 260<251.547 445.7> 380 1189<24 1131>
VStem: 24 1107<380 1569> 219 259<-68.357 126.694>
LayerCount: 2
Fore
SplineSet
448 29 m 0
 448 -23 408 -68 350 -68 c 0
 295 -68 253 -24 253 29 c 0
 253 80 292 126 350 126 c 0
 407 126 448 82 448 29 c 0
24 380 m 1xe0
 24 1569 l 1
 1131 1569 l 1
 1131 380 l 1
 24 380 l 1xe0
399 232 m 25
 451 480 l 18
 463 531 529 665 594 728 c 2
 749 881 l 2
 802 933 851 993 865 1057 c 10
 873 1096 l 18
 897 1211 845 1350 645 1350 c 10
 627 1350 l 18
 447 1350 334 1242 296 1063 c 9
EndSplineSet
EndChar

StartChar: at
Encoding: 64 64 32
Width: 922
VWidth: 1708
GlyphClass: 2
Flags: MW
LayerCount: 2
Back
SplineSet
1083 338 m 5
 502 338 l 5
 922 -84 l 5
 0 -120 l 5
 0 1557 l 5
 1083 1557 l 5
 1083 338 l 5
EndSplineSet
Fore
SplineSet
712 1000 m 2
 881 1001 l 25
 804 639 l 2
 791 578 692 435 604 435 c 2
 578 435 l 2
 464 435 448 575 478 713 c 2
 487 756 l 2
 519 902 592 1000 712 1000 c 2
656 130 m 1
 571 59 463 50 374 50 c 2
 346 50 l 2
 172 50 57 265 152 710 c 2
 162 758 l 2
 228 1067 377 1350 625 1350 c 2
 645 1350 l 2
 849 1350 923 1196 888 1033 c 2
 717 226 l 17
EndSplineSet
EndChar

StartChar: B
Encoding: 66 66 33
Width: 922
VWidth: 1947
GlyphClass: 2
Flags: MW
LayerCount: 2
Fore
SplineSet
700 337 m 10
 731 485 l 18
 774 687 674 787 525 787 c 10
 237 787 l 25
 475 787 l 2
 655 787 757 844 796 1025 c 2
 804 1063 l 2
 841 1234 830 1325 590 1325 c 2
 352 1325 l 1
 88 75 l 1
 376 75 l 2
 556 75 661 156 700 337 c 10
EndSplineSet
EndChar

StartChar: C
Encoding: 67 67 34
Width: 922
VWidth: 1947
GlyphClass: 2
Flags: MW
LayerCount: 2
Fore
SplineSet
667 315 m 0
 585 141 483 50 369 50 c 2
 353 50 l 2
 175 50 125 301 206 683 c 2
 226 779 l 2
 295 1082 444 1350 621 1350 c 2
 637 1350 l 2
 746 1350 814 1250 828 1083 c 0
EndSplineSet
EndChar

StartChar: D
Encoding: 68 68 35
Width: 922
VWidth: 1947
GlyphClass: 2
Flags: MW
LayerCount: 2
Fore
SplineSet
631 1325 m 2
 857 1325 854 1015 812 820 c 2
 766 610 l 2
 703 320 578 75 367 75 c 2
 88 75 l 1
 352 1325 l 1
 631 1325 l 2
EndSplineSet
EndChar

StartChar: E
Encoding: 69 69 36
Width: 922
VWidth: 1708
GlyphClass: 2
Flags: MW
LayerCount: 2
Back
SplineSet
-129 -66 m 5
 247 1707 l 5
 1084 1707 l 5
 924 948 l 5
 827 938 l 5
 746 559 l 5
 839 551 l 5
 708 -66 l 5
 -129 -66 l 5
EndSplineSet
Fore
SplineSet
955 787 m 25
 237 787 l 25
1092 1325 m 25
 352 1325 l 25
 88 76 l 25
 828 76 l 25
EndSplineSet
EndChar

StartChar: F
Encoding: 70 70 37
Width: 922
VWidth: 1708
GlyphClass: 2
Flags: MW
LayerCount: 2
Back
SplineSet
-129 -66 m 5
 247 1707 l 5
 1084 1707 l 5
 924 948 l 5
 827 938 l 5
 746 559 l 5
 839 551 l 5
 708 -66 l 5
 -129 -66 l 5
EndSplineSet
Fore
SplineSet
955 787 m 25
 237 787 l 25
1092 1325 m 25
 352 1325 l 25
 33 -176 l 25
EndSplineSet
EndChar

StartChar: G
Encoding: 71 71 38
Width: 922
VWidth: 1947
GlyphClass: 2
Flags: MW
LayerCount: 2
Fore
SplineSet
829 1075 m 0
 817 1246 748 1350 637 1350 c 2
 621 1350 l 2
 444 1350 296 1082 227 779 c 2
 206 683 l 2
 125 301 175 50 353 50 c 2
 369 50 l 2
 470 50 597 116 674 257 c 9
 750 617 l 1
 513 617 l 25
EndSplineSet
EndChar

StartChar: H
Encoding: 72 72 39
Width: 922
VWidth: 1947
GlyphClass: 2
Flags: MW
LayerCount: 2
Back
SplineSet
-110 0 m 5
 180 1400 l 5
 1104 1400 l 5
 810 0 l 5
 -110 0 l 5
EndSplineSet
Fore
SplineSet
226 732 m 25
 784 732 l 25
960 1560 m 25
 601 -128 l 25
402 1560 m 25
 43 -128 l 25
EndSplineSet
EndChar

StartChar: I
Encoding: 73 73 40
Width: 922
VWidth: 1947
GlyphClass: 2
Flags: MW
LayerCount: 2
Back
SplineSet
-44 -108 m 5
 331 1663 l 5
 1083 1663 l 5
 708 -108 l 5
 -44 -108 l 5
EndSplineSet
Fore
SplineSet
-94 75 m 25
 898 75 l 25
130 1325 m 25
 1102 1325 l 1
631 1326 m 1
 367 75 l 9
EndSplineSet
EndChar

StartChar: J
Encoding: 74 74 41
Width: 922
VWidth: 1947
GlyphClass: 2
Flags: MW
LayerCount: 2
Back
SplineSet
-194 -108 m 5
 69 1136 l 5
 453 1160 l 5
 561 1663 l 5
 1083 1663 l 5
 708 -108 l 5
 -194 -108 l 5
EndSplineSet
Fore
SplineSet
80 208 m 1
 83 92 154 50 262 50 c 10
 280 50 l 18
 415 50 526 156 565 337 c 10
 775 1325 l 25
328 1325 m 25
 1172 1325 l 25
EndSplineSet
EndChar

StartChar: K
Encoding: 75 75 42
Width: 922
VWidth: 1947
GlyphClass: 2
Flags: MW
LayerCount: 2
Back
SplineSet
186 1400 m 5
 1108 1400 l 5
 810 0 l 5
 -112 0 l 5
 186 1400 l 5
EndSplineSet
Fore
SplineSet
690 -141 m 25
 442 797 l 25
1031 1524 m 25
 173 485 l 25
395 1528 m 25
 42 -136 l 25
EndSplineSet
EndChar

StartChar: L
Encoding: 76 76 43
Width: 922
VWidth: 1947
GlyphClass: 2
Flags: MW
LayerCount: 2
Back
SplineSet
186 1400 m 5
 1017 1400 l 5
 679 -192 l 5
 -152 -192 l 5
 186 1400 l 5
EndSplineSet
Fore
SplineSet
410 1596 m 25
 88 76 l 25
 928 76 l 25
EndSplineSet
EndChar

StartChar: M
Encoding: 77 77 44
Width: 922
VWidth: 1947
GlyphClass: 2
Flags: MW
LayerCount: 2
Back
SplineSet
-112 0 m 5
 186 1400 l 5
 1108 1400 l 5
 810 0 l 5
 499 0 l 5
 544 210 l 5
 251 210 l 5
 205 0 l 5
 -112 0 l 5
EndSplineSet
Fore
SplineSet
-32 -75 m 25
 388 1401 l 25
 424 351 l 25
 906 1401 l 25
 698 -75 l 25
EndSplineSet
EndChar

StartChar: N
Encoding: 78 78 45
Width: 922
VWidth: 1947
GlyphClass: 2
Flags: MW
LayerCount: 2
Back
SplineSet
186 1400 m 5
 1108 1400 l 5
 810 0 l 5
 -112 0 l 5
 186 1400 l 5
EndSplineSet
Fore
SplineSet
35 -168 m 25
 357 1350 l 25
 640 49 l 25
 959 1556 l 25
EndSplineSet
EndChar

StartChar: O
Encoding: 79 79 46
Width: 922
VWidth: 1947
GlyphClass: 2
Flags: MW
LayerCount: 2
Fore
SplineSet
637 1350 m 6
 804 1350 872 1094 804 781 c 6
 775 645 l 6
 697 285 544 50 369 50 c 6
 353 50 l 6
 175 50 125 301 206 683 c 6
 227 779 l 6
 296 1082 444 1350 621 1350 c 6
 637 1350 l 6
EndSplineSet
EndChar

StartChar: P
Encoding: 80 80 47
Width: 922
VWidth: 1947
GlyphClass: 2
Flags: MW
LayerCount: 2
Back
SplineSet
186 1400 m 5
 1108 1400 l 5
 810 0 l 5
 -112 0 l 5
 186 1400 l 5
EndSplineSet
Fore
SplineSet
223 717 m 25
 511 717 l 2
 691 717 797 791 835 972 c 2
 854 1063 l 2
 888 1218 883 1325 640 1325 c 2
 352 1325 l 1
 34 -171 l 1
EndSplineSet
EndChar

StartChar: Q
Encoding: 81 81 48
Width: 922
VWidth: 1947
GlyphClass: 2
Flags: MW
LayerCount: 2
Fore
SplineSet
637 1350 m 2
 804 1350 872 1094 804 781 c 2
 775 645 l 2
 697 285 544 50 369 50 c 2
 353 50 l 2
 175 50 125 301 206 683 c 2
 227 779 l 2
 296 1082 444 1350 621 1350 c 2
 637 1350 l 2
434 399 m 25
 597 -144 l 25
EndSplineSet
EndChar

StartChar: R
Encoding: 82 82 49
Width: 922
VWidth: 1947
GlyphClass: 2
Flags: MW
LayerCount: 2
Back
SplineSet
198 1458 m 5
 1120 1458 l 5
 810 0 l 5
 -112 0 l 5
 198 1458 l 5
EndSplineSet
Fore
SplineSet
688 -102 m 25
 501 712 l 25
223 717 m 25
 511 717 l 2
 691 717 797 792 835 973 c 2
 854 1063 l 2
 888 1218 883 1325 640 1325 c 6
 352 1325 l 1
 32 -180 l 1
EndSplineSet
EndChar

StartChar: S
Encoding: 83 83 50
Width: 922
VWidth: 2334
GlyphClass: 2
Flags: MW
LayerCount: 2
Fore
SplineSet
98 308 m 0
 98 175 211 50 352 50 c 10
 370 50 l 18
 524 50 687 183 720 337 c 10
 726 367 l 18
 749 477 723 659 623 716 c 2
 388 850 l 2
 344 875 284 971 310 1090 c 2
 316 1120 l 2
 349 1275 478 1350 633 1350 c 10
 640 1350 l 18
 773 1350 871 1292 882 1177 c 1
EndSplineSet
EndChar

StartChar: T
Encoding: 84 84 51
Width: 922
VWidth: 1947
GlyphClass: 2
Flags: MW
LayerCount: 2
Back
SplineSet
268 1458 m 5
 1050 1458 l 5
 740 0 l 5
 -42 0 l 5
 268 1458 l 5
EndSplineSet
Fore
SplineSet
306 -207 m 25
 631 1325 l 25
110 1325 m 25
 1142 1325 l 25
EndSplineSet
EndChar

StartChar: U
Encoding: 85 85 52
Width: 922
VWidth: 1947
GlyphClass: 2
Flags: MW
LayerCount: 2
Back
SplineSet
114 1400 m 5
 1176 1400 l 5
 855 -99 l 5
 -207 -99 l 5
 114 1400 l 5
EndSplineSet
Fore
SplineSet
397 1536 m 25
 142 337 l 18
 106 166 125 50 352 50 c 10
 370 50 l 18
 550 50 662 156 700 337 c 10
 958 1551 l 25
EndSplineSet
EndChar

StartChar: V
Encoding: 86 86 53
Width: 922
VWidth: 1708
GlyphClass: 2
Flags: MW
LayerCount: 2
Back
SplineSet
-117 -25 m 5
 186 1400 l 5
 1108 1400 l 5
 805 -25 l 5
 -117 -25 l 5
EndSplineSet
Fore
SplineSet
342 1494 m 25
 351 5 l 25
 1041 1605 l 25
EndSplineSet
EndChar

StartChar: W
Encoding: 87 87 54
Width: 922
VWidth: 1947
GlyphClass: 2
Flags: MW
LayerCount: 2
Back
SplineSet
186 1400 m 5
 503 1400 l 5
 458 1190 l 5
 751 1190 l 5
 796 1400 l 5
 1108 1400 l 5
 810 0 l 5
 -112 0 l 5
 186 1400 l 5
EndSplineSet
Fore
SplineSet
298 1475 m 25
 90 -1 l 25
 572 1049 l 25
 608 -1 l 25
 1028 1475 l 25
EndSplineSet
EndChar

StartChar: X
Encoding: 88 88 55
Width: 922
VWidth: 1947
GlyphClass: 2
Flags: MW
LayerCount: 2
Back
SplineSet
186 1400 m 5
 1108 1400 l 5
 810 0 l 5
 -112 0 l 5
 186 1400 l 5
EndSplineSet
Fore
SplineSet
983 1480 m 25
 13 -80 l 25
345 1480 m 25
 651 -80 l 25
EndSplineSet
EndChar

StartChar: Y
Encoding: 89 89 56
Width: 922
VWidth: 1947
GlyphClass: 2
Flags: MW
LayerCount: 2
Back
SplineSet
186 1400 m 5
 1108 1400 l 5
 801 -25 l 5
 -121 -25 l 5
 186 1400 l 5
EndSplineSet
Fore
SplineSet
983 1480 m 17
 458 513 l 1
 310 -171 l 9
345 1480 m 25
 458 513 l 25
EndSplineSet
EndChar

StartChar: Z
Encoding: 90 90 57
Width: 922
VWidth: 1947
GlyphClass: 2
Flags: MW
LayerCount: 2
Back
SplineSet
281 1425 m 5
 1023 1425 l 5
 715 -25 l 5
 -27 -25 l 5
 281 1425 l 5
EndSplineSet
Fore
SplineSet
170 1325 m 25
 950 1325 l 25
 48 76 l 25
 858 76 l 25
EndSplineSet
EndChar

StartChar: bracketleft
Encoding: 91 91 58
Width: 922
VWidth: 1947
GlyphClass: 2
Flags: MW
LayerCount: 2
Back
SplineSet
337 1686 m 5
 988 1686 l 5
 563 -315 l 5
 -88 -315 l 5
 337 1686 l 5
EndSplineSet
Fore
SplineSet
1083 1480 m 17
 553 1480 l 1
 221 -80 l 25
 751 -80 l 9
EndSplineSet
EndChar

StartChar: backslash
Encoding: 92 92 59
Width: 922
VWidth: 1708
GlyphClass: 2
Flags: MW
LayerCount: 2
Fore
SplineSet
623 -25 m 29
 373 1425 l 29
EndSplineSet
EndChar

StartChar: bracketright
Encoding: 93 93 60
Width: 922
VWidth: 1947
GlyphClass: 2
Flags: MW
LayerCount: 2
Back
SplineSet
429 1686 m 5
 1080 1686 l 5
 655 -315 l 5
 4 -315 l 5
 429 1686 l 5
EndSplineSet
Fore
SplineSet
275 1480 m 17
 775 1480 l 1
 443 -80 l 25
 -57 -80 l 9
EndSplineSet
EndChar

StartChar: asciicircum
Encoding: 94 94 61
Width: 922
VWidth: 1947
GlyphClass: 2
Flags: MW
LayerCount: 2
Back
SplineSet
191 1425 m 5
 1113 1425 l 5
 810 0 l 5
 -112 0 l 5
 191 1425 l 5
EndSplineSet
Fore
SplineSet
277 974 m 25
 644 1385 l 25
 835 974 l 25
EndSplineSet
EndChar

StartChar: underscore
Encoding: 95 95 62
Width: 922
VWidth: 1947
GlyphClass: 2
Flags: MW
LayerCount: 2
Fore
SplineSet
-42 -92 m 29
 700 -92 l 29
EndSplineSet
EndChar

StartChar: grave
Encoding: 96 96 63
Width: 922
VWidth: 1708
GlyphClass: 2
Flags: WO
LayerCount: 2
Fore
SplineSet
735 1106 m 6
 740 1095 742 1085 742 1075 c 7
 742 1058 735 1043 720 1032 c 4
 710 1025 699 1022 687 1022 c 7
 670 1022 652 1029 640 1044 c 6
 452 1273 l 6
 438 1290 431 1312 431 1333 c 7
 431 1364 445 1394 471 1411 c 4
 484 1420 502 1425 521 1425 c 7
 555 1425 593 1409 609 1375 c 6
 735 1106 l 6
EndSplineSet
EndChar

StartChar: a
Encoding: 97 97 64
Width: 922
VWidth: 1947
GlyphClass: 2
Flags: MW
LayerCount: 2
Back
SplineSet
-120 -25 m 5
 111 1064 l 5
 765 1064 l 5
 755 1024 l 5
 1010 1024 l 5
 787 -25 l 5
 -120 -25 l 5
EndSplineSet
Fore
SplineSet
197 597 m 10
 161 427 l 18
 115 215 202 50 352 50 c 10
 370 50 l 18
 550 50 671 201 719 427 c 10
 755 597 l 18
 802 820 775 974 565 974 c 10
 547 974 l 18
 367 974 245 821 197 597 c 10
877 1168 m 17
 700 337 l 2
 675 220 713 75 783 75 c 2
 907 75 l 9
EndSplineSet
EndChar

StartChar: b
Encoding: 98 98 65
Width: 922
VWidth: 2334
GlyphClass: 2
Flags: MW
LayerCount: 2
Back
SplineSet
-76 0 m 5
 222 1400 l 5
 1220 1400 l 5
 912 -47 l 5
 199 -47 l 5
 202 0 l 5
 -76 0 l 5
EndSplineSet
Fore
SplineSet
398 1542 m 25
 44 -124 l 25
197 597 m 10
 161 427 l 18
 115 215 202 50 352 50 c 10
 370 50 l 18
 550 50 671 201 719 427 c 10
 755 597 l 18
 802 820 775 974 565 974 c 10
 547 974 l 18
 367 974 245 821 197 597 c 10
EndSplineSet
EndChar

StartChar: c
Encoding: 99 99 66
Width: 922
VWidth: 2334
GlyphClass: 2
Flags: MW
LayerCount: 2
Fore
SplineSet
790 830 m 1
 780 936 703 973 565 973 c 10
 547 973 l 18
 367 973 245 821 197 597 c 10
 161 427 l 18
 116 215 202 50 352 50 c 10
 370 50 l 18
 506 50 597 86 653 188 c 1
EndSplineSet
EndChar

StartChar: d
Encoding: 100 100 67
Width: 922
VWidth: 1947
GlyphClass: 2
Flags: MW
LayerCount: 2
Back
SplineSet
186 1400 m 5
 1108 1400 l 5
 804 -25 l 5
 534 -25 l 5
 524 -72 l 5
 -127 -72 l 5
 186 1400 l 5
EndSplineSet
Fore
SplineSet
963 1575 m 25
 570 -276 l 25
197 597 m 10
 161 427 l 18
 116 215 202 50 352 50 c 10
 370 50 l 18
 550 50 671 201 719 427 c 10
 755 597 l 18
 803 817 774 974 565 974 c 10
 547 974 l 18
 367 974 245 821 197 597 c 10
EndSplineSet
EndChar

StartChar: e
Encoding: 101 101 68
Width: 922
VWidth: 1947
GlyphClass: 2
Flags: MW
LayerCount: 2
Fore
SplineSet
189 561 m 25
 747 561 l 25
 781 719 l 18
 821 908 736 974 565 974 c 10
 547 974 l 18
 367 974 261 898 223 719 c 10
 142 337 l 18
 108 176 202 50 352 50 c 10
 370 50 l 18
 512 50 606 90 660 202 c 1
EndSplineSet
EndChar

StartChar: f
Encoding: 102 102 69
Width: 922
VWidth: 1947
GlyphClass: 2
Flags: MW
LayerCount: 2
Back
SplineSet
-256 -410 m 5
 -100 340 l 5
 146 372 l 5
 408 1638 l 5
 1191 1638 l 5
 1083 1112 l 5
 888 1088 l 5
 577 -410 l 5
 -256 -410 l 5
EndSplineSet
Fore
SplineSet
962 1283 m 1
 941 1335 887 1353 821 1353 c 11
 708 1353 623 1284 601 1184 c 10
 319 -128 l 18
 300 -218 198 -312 96 -312 c 3
 41 -312 -20 -280 -43 -221 c 1
54 827 m 25
 1026 827 l 25
EndSplineSet
EndChar

StartChar: g
Encoding: 103 103 70
Width: 922
VWidth: 2334
GlyphClass: 2
Flags: MW
LayerCount: 2
Back
SplineSet
114 1059 m 5
 760 1059 l 5
 756 1024 l 5
 1029 1024 l 5
 717 -441 l 5
 55 -441 l 5
 138 -48 l 5
 -119 -33 l 5
 114 1059 l 5
EndSplineSet
Fore
SplineSet
-0 -294 m 25
 284 -294 l 18
 465 -294 589 -176 627 0 c 10
 873 1148 l 25
197 597 m 10
 161 427 l 18
 115 215 202 50 352 50 c 10
 370 50 l 18
 550 50 671 201 719 427 c 10
 755 597 l 18
 802 820 775 974 565 974 c 10
 547 974 l 18
 367 974 245 821 197 597 c 10
EndSplineSet
EndChar

StartChar: h
Encoding: 104 104 71
Width: 922
VWidth: 1947
GlyphClass: 2
Flags: MW
LayerCount: 2
Back
SplineSet
186 1400 m 5
 1108 1400 l 5
 810 0 l 5
 -111 0 l 5
 186 1400 l 5
EndSplineSet
Fore
SplineSet
590 -183 m 25
 781 719 l 18
 818 893 750 974 565 974 c 10
 547 974 l 18
 389 974 226 731 197 597 c 10
 34 -171 l 25
 398 1542 l 25
EndSplineSet
EndChar

StartChar: k
Encoding: 107 107 74
Width: 922
VWidth: 1947
GlyphClass: 2
Flags: MW
LayerCount: 2
Back
SplineSet
191 1425 m 5
 1113 1425 l 5
 810 0 l 5
 -112 0 l 5
 191 1425 l 5
EndSplineSet
Fore
SplineSet
753 -132 m 17
 538 88 l 2
 425 205 361 395 348 561 c 9
841 1017 m 17
 747 956 l 2
 677 922 599 862 529 788 c 2
 433 686 l 2
 284 529 164 312 105 160 c 9
430 1692 m 25
 35 -168 l 25
EndSplineSet
EndChar

StartChar: l
Encoding: 108 108 75
Width: 922
VWidth: 1947
GlyphClass: 2
Flags: MW
LayerCount: 2
Back
SplineSet
373 1425 m 5
 930 1425 l 5
 627 0 l 5
 70 0 l 5
 373 1425 l 5
EndSplineSet
Fore
SplineSet
-72 75 m 25
 786 75 l 25
369 92 m 17
192 1325 m 25
 631 1325 l 25
 367 75 l 25
EndSplineSet
EndChar

StartChar: m
Encoding: 109 109 76
Width: 922
VWidth: 1947
GlyphClass: 2
Flags: W
LayerCount: 2
Back
SplineSet
112 1050 m 5
 1034 1050 l 5
 810 0 l 5
 -112 0 l 5
 112 1050 l 5
EndSplineSet
Fore
SplineSet
647 -99 m 25
 840 809 l 18
 865 927 834 974 740 974 c 10
 730 974 l 18
 632 974 527 852 498 718 c 10
 328 -99 l 25
 517 809 l 18
 542 927 515 974 421 974 c 10
 411 974 l 18
 313 974 212 854 183 719 c 10
 9 -99 l 25
 286 1196 l 25
EndSplineSet
EndChar

StartChar: n
Encoding: 110 110 77
Width: 922
VWidth: 1947
GlyphClass: 2
Flags: W
LayerCount: 2
Back
SplineSet
102 1024 m 5
 405 1024 l 5
 411 1049 l 5
 1034 1050 l 5
 810 0 l 5
 -112 0 l 5
 102 1024 l 5
EndSplineSet
Fore
SplineSet
595 -159 m 25
 781 719 l 18
 818 893 750 974 565 974 c 10
 547 974 l 18
 389 974 226 731 197 597 c 10
 37 -159 l 25
 334 1238 l 25
EndSplineSet
EndChar

StartChar: o
Encoding: 111 111 78
Width: 922
VWidth: 1947
GlyphClass: 2
Flags: MW
LayerCount: 2
Fore
SplineSet
197 597 m 14
 161 427 l 22
 116 215 202 50 352 50 c 14
 370 50 l 22
 550 50 671 201 719 427 c 14
 755 597 l 22
 803 817 774 974 565 974 c 14
 547 974 l 22
 367 974 245 821 197 597 c 14
EndSplineSet
EndChar

StartChar: p
Encoding: 112 112 79
Width: 922
VWidth: 1947
GlyphClass: 2
Flags: MW
LayerCount: 2
Back
SplineSet
101 1024 m 5
 375 1024 l 5
 385 1074 l 5
 1039 1074 l 5
 728 -384 l 5
 -194 -384 l 5
 101 1024 l 5
EndSplineSet
Fore
SplineSet
197 597 m 10
 161 427 l 18
 115 215 202 50 352 50 c 10
 370 50 l 18
 550 50 671 201 719 427 c 10
 755 597 l 18
 802 820 775 974 565 974 c 10
 547 974 l 18
 367 974 245 821 197 597 c 10
325 1199 m 25
 -58 -600 l 25
EndSplineSet
EndChar

StartChar: q
Encoding: 113 113 80
Width: 922
VWidth: 1947
GlyphClass: 2
Flags: MW
LayerCount: 2
Back
SplineSet
119 1083 m 5
 745 1083 l 5
 732 1024 l 5
 1026 1024 l 5
 728 -384 l 5
 -194 -384 l 5
 119 1083 l 5
EndSplineSet
Fore
SplineSet
893 1244 m 25
 512 -549 l 25
197 597 m 10
 161 427 l 18
 116 215 202 50 352 50 c 10
 370 50 l 18
 550 50 671 201 719 427 c 10
 755 597 l 18
 803 817 774 974 565 974 c 10
 547 974 l 18
 367 974 245 821 197 597 c 10
EndSplineSet
EndChar

StartChar: r
Encoding: 114 114 81
Width: 922
VWidth: 1947
GlyphClass: 2
Flags: MW
LayerCount: 2
Back
SplineSet
101 1024 m 5
 399 1024 l 5
 409 1074 l 5
 1039 1074 l 5
 808 0 l 5
 -114 0 l 5
 101 1024 l 5
EndSplineSet
Fore
SplineSet
818 864 m 1
 798 937 743 974 635 974 c 10
 617 974 l 18
 437 974 218 695 170 470 c 10
 30 -189 l 25
 334 1238 l 25
EndSplineSet
EndChar

StartChar: s
Encoding: 115 115 82
Width: 922
VWidth: 1947
GlyphClass: 2
Flags: MW
LayerCount: 2
Fore
SplineSet
781 810 m 1
 759 908 669 974 565 974 c 10
 547 974 l 18
 412 974 273 952 238 789 c 2
 235 777 l 2
 214 691 285 615 332 594 c 2
 570 486 l 2
 632 459 708 388 685 270 c 2
 676 224 l 2
 647 88 505 50 370 50 c 10
 322 50 l 18
 201 50 102 142 102 260 c 0
EndSplineSet
EndChar

StartChar: t
Encoding: 116 116 83
Width: 922
VWidth: 1947
GlyphClass: 2
Flags: MW
LayerCount: 2
Back
SplineSet
282 1425 m 5
 931 1425 l 5
 785 737 l 5
 967 737 l 5
 792 -84 l 5
 -39 -84 l 5
 282 1425 l 5
EndSplineSet
Fore
SplineSet
17 933 m 25
 947 933 l 25
643 150 m 1
 600 87 525 50 457 50 c 10
 439 50 l 18
 358 50 272 112 294 216 c 2
 570 1506 l 9
EndSplineSet
EndChar

StartChar: u
Encoding: 117 117 84
Width: 922
VWidth: 1947
GlyphClass: 2
Flags: MW
LayerCount: 2
Back
SplineSet
101 1024 m 5
 1029 1024 l 5
 808 0 l 5
 535 0 l 5
 527 -33 l 5
 -119 -33 l 5
 101 1024 l 5
EndSplineSet
Fore
SplineSet
326 1199 m 25
 142 337 l 18
 101 140 192 50 332 50 c 10
 350 50 l 18
 508 50 695 314 723 447 c 10
 884 1199 l 25
 585 -204 l 25
EndSplineSet
EndChar

StartChar: v
Encoding: 118 118 85
Width: 922
VWidth: 1947
GlyphClass: 2
Flags: MW
LayerCount: 2
Back
SplineSet
106 1024 m 5
 1028 1024 l 5
 805 -25 l 5
 -117 -25 l 5
 106 1024 l 5
EndSplineSet
Fore
SplineSet
313 1325 m 17
 265 1005 l 2
 241 852 257 606 274 510 c 2
 361 50 l 1
 560 513 l 2
 623 646 720 825 808 957 c 2
 1039 1325 l 9
EndSplineSet
EndChar

StartChar: w
Encoding: 119 119 86
Width: 922
VWidth: 1947
GlyphClass: 2
Flags: MW
LayerCount: 2
Back
SplineSet
106 1024 m 5
 423 1024 l 5
 407 949 l 5
 700 949 l 5
 716 1024 l 5
 1028 1024 l 5
 810 0 l 5
 -112 0 l 5
 106 1024 l 5
EndSplineSet
Fore
SplineSet
218 1099 m 17
 191 935 l 2
 167 785 135 556 127 429 c 2
 108 75 l 1
 267 429 l 2
 307 526 362 625 422 707 c 2
 530 855 l 1
 533 701 l 2
 534 628 537 496 551 426 c 2
 626 75 l 1
 719 429 l 2
 765 605 819 776 882 938 c 2
 948 1099 l 9
EndSplineSet
EndChar

StartChar: x
Encoding: 120 120 87
Width: 922
VWidth: 1947
GlyphClass: 2
Flags: MW
LayerCount: 2
Back
SplineSet
106 1024 m 5
 1028 1024 l 5
 810 0 l 5
 -112 0 l 5
 106 1024 l 5
EndSplineSet
Fore
SplineSet
958 1226 m 17
 753 887 l 2
 601 636 318 250 197 127 c 2
 -99 -174 l 9
236 1214 m 17
 669 -120 l 9
EndSplineSet
EndChar

StartChar: y
Encoding: 121 121 88
Width: 922
VWidth: 1947
GlyphClass: 2
Flags: MW
LayerCount: 2
Back
SplineSet
-199 -410 m 5
 106 1024 l 5
 1028 1024 l 5
 723 -410 l 5
 -199 -410 l 5
EndSplineSet
Fore
SplineSet
1002 1325 m 1
 373 -110 l 2
 332 -186 248 -294 150 -294 c 3
 77 -294 17 -240 4 -170 c 1
473 109 m 1
 364 356 292 597 292 937 c 2
 295 1271 l 9
EndSplineSet
EndChar

StartChar: z
Encoding: 122 122 89
Width: 922
VWidth: 1947
GlyphClass: 2
Flags: MW
LayerCount: 2
Back
SplineSet
249 1049 m 5
 948 1049 l 5
 720 -25 l 5
 -30 -25 l 5
 129 722 l 5
 185 749 l 5
 249 1049 l 5
EndSplineSet
Fore
SplineSet
70 949 m 25
 870 949 l 25
 48 75 l 25
 758 75 l 25
EndSplineSet
EndChar

StartChar: braceleft
Encoding: 123 123 90
Width: 922
VWidth: 1947
GlyphClass: 2
Flags: MW
LayerCount: 2
Back
SplineSet
-108 -410 m 5
 327 1638 l 5
 978.002 1638 l 5
 543 -410 l 5
 -108 -410 l 5
EndSplineSet
Fore
SplineSet
1053 1480 m 17
 823 1480 l 2
 673 1480 535 1392 502 1242 c 2
 450 1002 l 2
 427 894 322 764 170 764 c 2
 -10 764 l 1
 170 764 l 2
 304 764 368 614 335 462 c 2
 272 158 l 2
 245 27 314 -80 491 -80 c 10
 721 -80 l 9
EndSplineSet
EndChar

StartChar: bar
Encoding: 124 124 91
Width: 922
VWidth: 1947
GlyphClass: 2
Flags: MW
LayerCount: 2
Back
SplineSet
-39.5801 -78 m 5
 290.729 1476 l 5
 941.731 1476 l 5
 611.42 -78 l 5
 -39.5801 -78 l 5
EndSplineSet
Fore
SplineSet
297 -231 m 25
 693 1614 l 25
EndSplineSet
EndChar

StartChar: braceright
Encoding: 125 125 92
Width: 922
VWidth: 1947
GlyphClass: 2
Flags: MW
LayerCount: 2
Back
SplineSet
-108 -410 m 5
 327 1638 l 5
 978.002 1638 l 5
 543 -410 l 5
 -108 -410 l 5
EndSplineSet
Fore
SplineSet
153 1480 m 17
 413 1480 l 2
 578 1480 663 1390 632 1242 c 2
 572 953 l 2
 542 813 596 698 748 698 c 2
 959 698 l 1
 748 698 l 2
 596 698 483 536 453 396 c 2
 402 158 l 2
 370 9 231 -80 81 -80 c 10
 -179 -80 l 9
EndSplineSet
EndChar

StartChar: asciitilde
Encoding: 126 126 93
Width: 922
VWidth: 1947
GlyphClass: 2
Flags: MW
LayerCount: 2
Fore
SplineSet
204 832 m 17
 258 940 340 987 413 987 c 10
 428 987 l 18
 457 987 496.5 972 517.5 945 c 2
 584 873 l 2
 605.307 849.932 638 833 665 833 c 10
 680 833 l 18
 761 833 830 886 880 977 c 9
EndSplineSet
EndChar

StartChar: cent
Encoding: 162 162 96
Width: 922
VWidth: 1947
GlyphClass: 2
Flags: MW
LayerCount: 2
Back
SplineSet
-135 -111 m 5
 150 1229 l 5
 1072 1229 l 5
 787 -111 l 5
 -135 -111 l 5
EndSplineSet
Fore
SplineSet
192 -252 m 25
 820 1391 l 25
790 830 m 1
 780 936 703 973 565 973 c 10
 547 973 l 18
 367 973 245 821 197 597 c 10
 161 427 l 18
 153 386 149 348 149 313 c 0
 149 157 229 50 352 50 c 10
 370 50 l 18
 506 50 597 86 653 188 c 1
EndSplineSet
EndChar

StartChar: sterling
Encoding: 163 163 97
Width: 922
VWidth: 1947
GlyphClass: 2
Flags: MW
LayerCount: 2
Back
SplineSet
-195 -111 m 5
 -52 561 l 5
 85 579 l 5
 157 917 l 5
 27 932 l 5
 145 1491 l 5
 1177 1491 l 5
 1059 932 l 5
 805 914 l 5
 729 558 l 5
 975 540 l 5
 837 -111 l 5
 -195 -111 l 5
EndSplineSet
Fore
SplineSet
34 731 m 17
 894 731 l 9
846 1232 m 1
 813 1312 735 1350 645 1350 c 10
 627 1350 l 18
 458 1350 333 1255 303 1110 c 10
 295 1071 l 18
 288 1034 289 953 305 896 c 2
 359 710 l 2
 371 669 370 558 360 516 c 10
 350 470 l 18
 315 305 142 125 24 58 c 2
 -13 37 l 1
 24 58 l 2
 141 125 191 124 277 124 c 10
 306 124 l 18
 340 124 371 130 391 114 c 2
 436 78 l 2
 451 66 485 50 505 50 c 10
 550 50 l 18
 614 50 694 76 735 115 c 9
EndSplineSet
EndChar

StartChar: euro
Encoding: 8364 8364 98
Width: 922
VWidth: 1947
GlyphClass: 2
Flags: MW
LayerCount: 2
Back
SplineSet
-56 -25 m 1
 108 753 l 1
 144 771 l 1
 295 1497 l 1
 1144 1497 l 1
 1061 1098 l 1
 858 1074 l 1
 790 747 l 1
 657 732 l 1
 595 438 l 1
 919 420 l 1
 825 -25 l 1
 -56 -25 l 1
EndSplineSet
Fore
SplineSet
748 315 m 0
 666 141 564 50 450 50 c 2
 434 50 l 2
 256 50 206 301 287 683 c 2
 307 779 l 2
 376 1082 525 1350 702 1350 c 2
 718 1350 l 2
 804 1350 866 1294 894 1182 c 0
861 565 m 25
 -132 565 l 25
1064 907 m 25
 -29 907 l 25
EndSplineSet
EndChar

StartChar: yen
Encoding: 165 165 99
Width: 922
VWidth: 1947
GlyphClass: 2
Flags: MW
LayerCount: 2
Back
SplineSet
186 1400 m 5
 1108 1400 l 5
 902 860 l 5
 684 -160 l 5
 -54 -160 l 5
 162 854 l 5
 186 1400 l 5
EndSplineSet
Fore
SplineSet
-105 123 m 17
 887 123 l 9
-47 381 m 17
 945 381 l 9
1029 1569 m 17
 458 513 l 1
 280 -327 l 9
333 1563 m 25
 458 513 l 25
EndSplineSet
EndChar

StartChar: section
Encoding: 167 167 101
Width: 922
VWidth: 1947
GlyphClass: 2
Flags: W
HStem: 963 20G<428 570.5>
LayerCount: 2
Fore
SplineSet
571 959 m 1
 441 990 360 1092 360 1209 c 10
 360 1232 l 18
 360 1350 479 1472 599 1472 c 10
 615 1472 l 18
 705 1472 792 1388 831 1304 c 1
427 419 m 1
 537 387 614 283 614 187 c 10
 614 164 l 18
 614 39 494 -76 374 -76 c 10
 358 -76 l 18
 261 -76 169 14 135 108 c 1
499 968 m 18
 636 968 781 885 781 742 c 10
 781 716 l 18
 781 564 678 411 502 411 c 10
 484 411 l 18
 347 411 219 549 219 716 c 10
 219 742 l 18
 219 858 369 968 481 968 c 10
 499 968 l 18
EndSplineSet
EndChar

StartChar: copyright
Encoding: 169 169 103
Width: 922
VWidth: 1947
GlyphClass: 2
Flags: MW
LayerCount: 2
Fore
SplineSet
461 1004 m 3
 723 1004 857 811 857 598 c 3
 857 392 717 179 455 179 c 3
 197 179 65 385 65 598 c 3
 65 815 206 1004 461 1004 c 3
607 450 m 1
 574 414 525 391 461 391 c 3
 332 391 263 483 263 590 c 3
 263 698 333 788 461 788 c 3
 525 788 573 766 606 732 c 1
EndSplineSet
EndChar

StartChar: ordfeminine
Encoding: 170 170 104
Width: 922
VWidth: 1947
GlyphClass: 2
Flags: MW
LayerCount: 2
Back
SplineSet
-45 -111 m 1
 84 495 l 1
 -3 510 l 1
 218 1551 l 1
 1140 1551 l 1
 925 539 l 1
 605 539 l 1
 580 423 l 1
 810 423 l 1
 697 -111 l 1
 -45 -111 l 1
EndSplineSet
Fore
SplineSet
-94 319 m 17
 878 319 l 9
801 1013 m 25
 557 1013 l 18
 404 1013 310 929 294 854 c 10
 285 815 l 18
 269 739 323 593 467 593 c 10
 483 593 l 18
 597 593 742 728 768 854 c 9
401 1266 m 1
 449 1343 527 1381 635 1381 c 10
 650 1381 l 18
 833 1381 857 1272 831 1152 c 10
 687 470 l 25
EndSplineSet
EndChar

StartChar: guillemotleft
Encoding: 171 171 105
Width: 922
VWidth: 1947
GlyphClass: 2
Flags: MW
LayerCount: 2
Fore
SplineSet
687 124 m 25
 570 425 l 25
 589 512 l 25
 833 814 l 25
267 124 m 25
 150 425 l 25
 169 512 l 25
 413 814 l 25
EndSplineSet
EndChar

StartChar: logicalnot
Encoding: 172 172 106
Width: 922
VWidth: 1947
GlyphClass: 2
Flags: MW
LayerCount: 2
Back
SplineSet
-15.7109 214 m 5
 199.428 1229 l 5
 1071.43 1229 l 5
 856.289 214 l 5
 -15.7109 214 l 5
EndSplineSet
Fore
SplineSet
-43 600 m 25
 756 600 l 25
 638 45 l 25
EndSplineSet
EndChar

StartChar: softhyphen
Encoding: 173 173 107
Width: 922
VWidth: 1947
GlyphClass: 2
Flags: MW
LayerCount: 2
Fore
SplineSet
222 600 m 29
 700 600 l 29
EndSplineSet
EndChar

StartChar: registered
Encoding: 174 174 108
Width: 922
VWidth: 1947
GlyphClass: 2
Flags: MW
LayerCount: 2
Fore
SplineSet
630 374 m 25
 472 599 l 25
334 600 m 25
 476 600 l 2
 565 600 610 634 610 694 c 2
 610 715 l 2
 610 774 570 806 476 806 c 2
 334 806 l 1
 334 374 l 1
461 1004 m 3
 723 1004 857 820 857 607 c 3
 857 401 717 179 455 179 c 3
 197 179 65 385 65 598 c 3
 65 815 206 1004 461 1004 c 3
EndSplineSet
EndChar

StartChar: degree
Encoding: 176 176 110
Width: 922
VWidth: 1947
GlyphClass: 2
Flags: MW
LayerCount: 2
Fore
SplineSet
601 1333 m 7
 750 1333 826 1229 826 1108 c 7
 826 991 750 882 601 882 c 7
 454 882 376 987 376 1108 c 7
 376 1231 456 1333 601 1333 c 7
EndSplineSet
EndChar

StartChar: plusminus
Encoding: 177 177 111
Width: 922
VWidth: 1947
GlyphClass: 2
Flags: MW
LayerCount: 2
Back
SplineSet
-84.958 -108 m 1
 290.481 1663 l 1
 1112.48 1663 l 1
 737.042 -108 l 1
 -84.958 -108 l 1
EndSplineSet
Fore
SplineSet
-194 123 m 25
 968 123 l 25
438 419 m 25
 620 1273 l 25
-39 862 m 25
 1123 862 l 25
EndSplineSet
EndChar

StartChar: twosuperior
Encoding: 178 178 112
Width: 922
VWidth: 2334
GlyphClass: 2
Flags: MW
LayerCount: 2
Back
SplineSet
113 -25 m 5
 432 1479 l 5
 1124 1479 l 5
 986.56 830 l 5
 749.332 819.5 l 5
 570 -25 l 5
 113 -25 l 5
EndSplineSet
Fore
SplineSet
491 1264 m 1
 530 1324 567 1350 652 1350 c 10
 662 1350 l 18
 764 1350 808 1308 783 1197 c 10
 778 1175 l 18
 771 1143 727 1076 688 1035 c 2
 470 843 l 2
 417 796 376 712 354 650 c 1
 822 650 l 9
EndSplineSet
EndChar

StartChar: threesuperior
Encoding: 179 179 113
Width: 922
VWidth: 2334
GlyphClass: 2
Flags: MW
LayerCount: 2
Fore
SplineSet
446 1264 m 1
 484 1322 542 1360 612 1360 c 10
 624 1360 l 18
 720.022 1360 777.9 1287.5 760 1203 c 10
 755 1180 l 18
 743 1120 641 1022 553 1022 c 2
 461 1022 l 9
 572 1022 l 18
 678.632 1022 733.729 950.504 712 831 c 10
 710 820 l 18
 684 699 618 632 499 632 c 10
 487 632 l 18
 415.228 632 334.823 703.439 334.823 783.038 c 0
EndSplineSet
EndChar

StartChar: micro
Encoding: 181 181 115
Width: 922
VWidth: 2334
GlyphClass: 2
Flags: W
LayerCount: 2
Back
SplineSet
-186 -349 m 5
 105 1024 l 5
 1026 1024 l 5
 802 -42 l 5
 532 -42 l 5
 465 -349 l 5
 -186 -349 l 5
EndSplineSet
Fore
SplineSet
-183 -564 m 17
 -30 -375 22 -231 65 -25 c 10
 346 1304 l 25
 155 397 l 18
 114 200 141 50 352 50 c 10
 370 50 l 18
 528 50 685 264 713 397 c 10
 906 1304 l 17
 651 99 l 2
 631 9 638 -131 672 -228 c 0
EndSplineSet
EndChar

StartChar: paragraph
Encoding: 182 182 116
Width: 922
VWidth: 2334
GlyphClass: 2
Flags: MW
LayerCount: 2
Back
SplineSet
-115 0 m 5
 229 1602 l 5
 1151 1602 l 5
 808 0 l 5
 -115 0 l 5
EndSplineSet
Fore
SplineSet
351 890 m 25
 426 1240 l 25
587 -195 m 25
 926 1400 l 25
 566 1400 l 25
430 759 m 25
 412 759 l 2
 284 759 229 890 265 1057 c 2
 273 1095 l 2
 312 1281 453 1400 548 1400 c 2
 566 1400 l 1
 227 -195 l 1
EndSplineSet
EndChar

StartChar: periodcentered
Encoding: 183 183 117
Width: 922
VWidth: 1947
GlyphClass: 2
Flags: MW
LayerCount: 2
Fore
SplineSet
623 747 m 0
 623 688 577 636 512 636 c 0
 449 636 402 687 402 747 c 0
 402 805 446 858 512 858 c 0
 577 858 623 807 623 747 c 0
EndSplineSet
EndChar

StartChar: onesuperior
Encoding: 185 185 119
Width: 922
VWidth: 1708
GlyphClass: 2
Flags: MW
LayerCount: 2
Back
SplineSet
227 857 m 5
 475 1045 l 5
 504 1180 l 5
 464 1236 l 5
 696 1425 l 5
 956 1425 l 5
 791 641 l 5
 183 641 l 5
 227 857 l 5
EndSplineSet
Fore
SplineSet
510 470 m 25
 703 1359 l 25
 398 1204 l 25
EndSplineSet
EndChar

StartChar: ordmasculine
Encoding: 186 186 120
Width: 922
VWidth: 1947
GlyphClass: 2
Flags: MW
LayerCount: 2
Back
SplineSet
-45 -111 m 5
 84 495 l 5
 -3 510 l 5
 218 1551 l 5
 1140 1551 l 5
 925 539 l 5
 835 539 l 5
 697 -111 l 5
 -45 -111 l 5
EndSplineSet
Fore
SplineSet
328 1061 m 10
 294 906 l 18
 254 731 329 600 461 600 c 10
 477 600 l 18
 635 600 743 721 785 906 c 10
 819 1061 l 18
 857 1226 839 1382 655 1382 c 10
 639 1382 l 18
 481 1382 370 1245 328 1061 c 10
-94 319 m 17
 878 319 l 9
EndSplineSet
EndChar

StartChar: guillemotright
Encoding: 187 187 121
Width: 922
VWidth: 1947
GlyphClass: 2
Flags: MW
LayerCount: 2
Fore
SplineSet
65 124 m 25
 308 425 l 25
 327 512 l 25
 211 814 l 25
485 124 m 25
 728 425 l 25
 747 512 l 25
 631 814 l 25
EndSplineSet
EndChar

StartChar: OE
Encoding: 338 338 122
Width: 922
VWidth: 1947
GlyphClass: 2
Flags: MW
LayerCount: 2
Back
SplineSet
-188 -96 m 5
 129 1425 l 5
 1013 1425 l 5
 918 974 l 5
 861 956 l 5
 770 531 l 5
 820 513 l 5
 690 -96 l 5
 -188 -96 l 5
EndSplineSet
Fore
SplineSet
867 75 m 17
 427 75 l 1
 691 1325 l 1
 1131 1325 l 1
954 732 m 1
 565 732 l 1
235 1156 m 2
 255 1248 352 1325 455 1325 c 2
 511 1325 l 2
 603 1325 677 1255 655 1156 c 2
 463 244 l 2
 442 150 339 75 247 75 c 2
 191 75 l 2
 87 75 23 153 42 244 c 10
 235 1156 l 2
EndSplineSet
EndChar

StartChar: oe
Encoding: 339 339 123
Width: 922
VWidth: 1947
GlyphClass: 2
Flags: MW
LayerCount: 2
Fore
SplineSet
756 219 m 0
 734 115 638 50 541 50 c 3
 448 50 377 122 396 219 c 2
 520 805 l 2
 540 899 644 974 736 974 c 3
 836 974 903 910 880 805 c 10
 824 542 l 1
 464 542 l 1
160 805 m 2
 183 908 279 974 376 974 c 3
 468 974 542 904 520 805 c 2
 396 219 l 2
 376 125 273 50 181 50 c 3
 81 50 15 115 36 219 c 10
 160 805 l 2
EndSplineSet
EndChar

StartChar: AE
Encoding: 198 198 132
Width: 922
VWidth: 1947
GlyphClass: 2
Flags: MW
LayerCount: 2
Back
SplineSet
-112 0 m 5
 189 1425 l 5
 1013 1425 l 5
 918 974 l 5
 861 956 l 5
 770 531 l 5
 820 513 l 5
 690 -96 l 5
 175 -96 l 5
 174 0 l 5
 -112 0 l 5
EndSplineSet
Fore
SplineSet
-95 -201 m 17
 401 1168 l 2
 436 1262 524 1325 632 1325 c 10
 691 1325 l 25
967 75 m 17
 427 75 l 1
 691 1325 l 1
 1231 1325 l 1
1061 764 m 1
 252 764 l 1
EndSplineSet
EndChar

StartChar: Eth
Encoding: 208 208 142
Width: 922
VWidth: 1947
GlyphClass: 2
Flags: MW
LayerCount: 2
Back
SplineSet
-80 -57 m 5
 277 1638 l 5
 1269 1638 l 5
 912 -57 l 5
 -80 -57 l 5
EndSplineSet
Fore
SplineSet
-72 788 m 25
 508 788 l 25
631 1325 m 2
 816 1325 880 1134 794 732 c 0
 723 401 608 75 367 75 c 2
 128 75 l 1
 392 1325 l 1
 631 1325 l 2
EndSplineSet
EndChar

StartChar: multiply
Encoding: 215 215 149
Width: 922
VWidth: 1708
GlyphClass: 2
Flags: MW
LayerCount: 2
Fore
SplineSet
706 309 m 29
 254 923 l 29
124 309 m 29
 836 923 l 29
EndSplineSet
EndChar

StartChar: Thorn
Encoding: 222 222 156
Width: 922
VWidth: 1947
GlyphClass: 2
Flags: MW
LayerCount: 2
Back
SplineSet
-114 0 m 5
 213 1538 l 5
 1249 1538 l 5
 922 0 l 5
 -114 0 l 5
EndSplineSet
Fore
SplineSet
165 445 m 25
 453 445 l 2
 633 445 749 566 787 747 c 2
 835 970 l 2
 849 1033 852 1230 620 1230 c 2
 332 1230 l 1
426 1671 m 1
 41 -141 l 1
EndSplineSet
EndChar

StartChar: germandbls
Encoding: 223 223 157
Width: 922
VWidth: 1947
GlyphClass: 2
Flags: MW
LayerCount: 2
Back
SplineSet
-194 -387 m 5
 213 1538 l 5
 1249 1538 l 5
 842 -387 l 5
 -194 -387 l 5
EndSplineSet
Fore
SplineSet
-52 -576 m 1
 296 1064 l 2
 334 1243 447 1350 627 1350 c 2
 645 1350 l 2
 838 1350 838 1197 816 1092 c 2
 808 1054 l 2
 769 873 655 787 475 787 c 2
 457 787 l 25
 525 787 l 18
 674 787 774 687 731 485 c 10
 700 337 l 18
 661 156 550 50 415 50 c 2
 398 50 l 2
 343 50 306 61 275 97 c 1
EndSplineSet
EndChar

StartChar: ae
Encoding: 230 230 164
Width: 922
VWidth: 1947
GlyphClass: 2
Flags: MW
LayerCount: 2
Fore
SplineSet
756 219 m 0
 734 115 638 50 541 50 c 3
 448 50 377 122 396 219 c 2
 520 805 l 2
 540 899 644 974 736 974 c 3
 836 974 903 910 880 805 c 10
 824 542 l 1
 288 542 l 2
 188 542 87 461 65 358 c 2
 36 219 l 18
 15 115 81 50 181 50 c 3
 273 50 376 125 396 219 c 2
 520 805 l 2
 542 904 468 974 376 974 c 3
 280 974 183 908 160 805 c 0
EndSplineSet
EndChar

StartChar: eth
Encoding: 240 240 174
Width: 922
VWidth: 1947
GlyphClass: 2
Flags: W
VStem: 182 558<220.939 427 497 723.211>
LayerCount: 2
Fore
SplineSet
305 1099 m 25
 941 1339 l 25
719 430 m 26
 760 620 l 18
 833 962 648 1248 464 1432 c 8
167 457 m 10
 161 427 l 18
 116 215 202 50 352 50 c 10
 370 50 l 18
 550 50 671 201 719 427 c 10
 725 457 l 18
 780 712 688 849 539 849 c 10
 521 849 l 18
 341 849 215 681 167 457 c 10
EndSplineSet
EndChar

StartChar: divide
Encoding: 247 247 181
Width: 922
VWidth: 1947
GlyphClass: 2
Flags: MW
LayerCount: 2
Fore
SplineSet
66 600 m 25
 884 600 l 25
676 960 m 0
 676 900 625 835 554 835 c 0
 476 835 428 906 428 960 c 0
 428 1014 476 1085 554 1085 c 0
 625 1085 676 1020 676 960 c 0
523 243 m 0
 523 181 473 118 401 118 c 0
 330 118 275 183 275 243 c 0
 275 298 327 365 401 365 c 0
 475 365 523 298 523 243 c 0
EndSplineSet
EndChar

StartChar: oslash
Encoding: 248 248 182
Width: 922
VWidth: 1947
GlyphClass: 2
Flags: MW
LayerCount: 2
Fore
SplineSet
197 597 m 10
 161 427 l 18
 116 215 202 50 352 50 c 10
 370 50 l 18
 550 50 671 201 719 427 c 10
 755 597 l 18
 803 817 774 974 565 974 c 10
 547 974 l 18
 367 974 245 821 197 597 c 10
22 -48 m 25
 897 1062 l 25
EndSplineSet
EndChar

StartChar: thorn
Encoding: 254 254 188
Width: 922
VWidth: 1947
GlyphClass: 2
Flags: MW
LayerCount: 2
Back
SplineSet
-194 -383 m 5
 183 1400 l 5
 1201 1400 l 5
 824 -383 l 5
 -194 -383 l 5
EndSplineSet
Fore
SplineSet
197 597 m 10
 161 427 l 18
 116 215 202 50 352 50 c 10
 370 50 l 18
 550 50 671 201 719 427 c 10
 755 597 l 18
 803 817 774 974 565 974 c 10
 547 974 l 18
 367 974 245 821 197 597 c 10
-51 -570 m 25
 415 1623 l 25
EndSplineSet
EndChar

StartChar: minus
Encoding: 8722 8722 190
Width: 922
VWidth: 1708
GlyphClass: 2
Flags: MW
LayerCount: 2
Fore
SplineSet
50 600 m 25
 872 600 l 25
EndSplineSet
EndChar

StartChar: quoteleft
Encoding: 8216 8216 192
Width: 922
VWidth: 1947
GlyphClass: 2
Flags: W
HStem: 1366 56.917<728.278 806.795>
VStem: 490.966 194.25<1034.19 1148.68>
LayerCount: 2
Fore
SplineSet
492 1139 m 17
 521 1268 577 1446 807 1423 c 9
 811 1366 l 17
 738 1356 579 1291 661 1183 c 9
 492 1139 l 17
491 1116 m 0
 491 1168 531 1214 589 1214 c 0
 644 1214 686 1169 686 1116 c 0
 686 1065 647 1019 589 1019 c 0
 532 1019 491 1064 491 1116 c 0
EndSplineSet
EndChar

StartChar: gravemodifier
Encoding: 715 715 193
Width: 922
VWidth: 2334
GlyphClass: 2
Flags: MW
LayerCount: 2
Fore
SplineSet
598 1647 m 29
 752 1438 l 29
EndSplineSet
EndChar

StartChar: acute
Encoding: 180 180 194
Width: 922
VWidth: 1947
GlyphClass: 2
Flags: MW
LayerCount: 2
Fore
SplineSet
786 1587 m 25
 528 1308 l 25
EndSplineSet
EndChar

StartChar: circumflex
Encoding: 710 710 195
Width: 922
VWidth: 1947
GlyphClass: 2
Flags: MW
LayerCount: 2
Back
SplineSet
37 700 m 5
 236 1638 l 5
 1158 1638 l 5
 959 700 l 5
 37 700 l 5
EndSplineSet
Fore
SplineSet
459 1460 m 25
 689 1600 l 25
 859 1460 l 25
EndSplineSet
EndChar

StartChar: tilde
Encoding: 732 732 196
Width: 922
VWidth: 1947
GlyphClass: 2
Flags: MW
LayerCount: 2
Fore
SplineSet
389 1502 m 17
 415 1528 l 2
 458 1571 506 1612 575 1612 c 10
 591 1612 l 18
 626 1612 656 1595 674 1576 c 2
 689 1559 l 2
 707 1539 737 1522 773 1522 c 10
 790 1522 l 18
 860 1522 908 1562 953 1609 c 2
 975 1632 l 9
EndSplineSet
EndChar

StartChar: macronmodifier
Encoding: 713 713 197
Width: 922
VWidth: 1947
GlyphClass: 2
Flags: MW
LayerCount: 2
Fore
SplineSet
907 1538 m 1
 454 1538 l 1
EndSplineSet
EndChar

StartChar: breve
Encoding: 728 728 198
Width: 922
VWidth: 1947
GlyphClass: 2
Flags: MW
LayerCount: 2
Fore
SplineSet
919 1593 m 4
 845 1523 753 1480 661 1480 c 7
 570 1480 498 1523 455 1592 c 4
EndSplineSet
EndChar

StartChar: dotaccent
Encoding: 729 729 199
Width: 922
VWidth: 1947
GlyphClass: 2
Flags: W
HStem: 1425 204<591.294 757.75>
VStem: 573 204<1443.91 1610.09>
LayerCount: 2
Fore
SplineSet
573 1527 m 31
 573 1583 617 1629 674 1629 c 31
 730 1629 777 1583 777 1527 c 31
 777 1471 730 1425 674 1425 c 31
 617 1425 573 1471 573 1527 c 31
EndSplineSet
EndChar

StartChar: dieresis
Encoding: 168 168 200
Width: 922
VWidth: 1947
GlyphClass: 2
Flags: MW
LayerCount: 2
Fore
SplineSet
509 1545 m 4
 509 1491 466 1444 413 1444 c 4
 361 1444 316 1489 316 1545 c 4
 316 1605 364 1642 412 1642 c 4
 467 1642 509 1597 509 1545 c 4
885 1545 m 4
 885 1486 838 1444 790 1444 c 4
 739 1444 694 1490 694 1545 c 4
 694 1601 739 1642 790 1642 c 4
 837 1642 885 1605 885 1545 c 4
EndSplineSet
EndChar

StartChar: ring
Encoding: 730 730 202
Width: 922
VWidth: 1947
GlyphClass: 2
Flags: MW
LayerCount: 2
Fore
SplineSet
448 1425 m 31
 448 1537 536 1627 648 1627 c 31
 760 1627 852 1537 852 1425 c 31
 852 1313 760 1223 648 1223 c 31
 536 1223 448 1313 448 1425 c 31
558 1425 m 31
 558 1374 598 1333 649 1333 c 31
 700 1333 742 1374 742 1425 c 31
 742 1476 700 1517 649 1517 c 31
 598 1517 558 1476 558 1425 c 31
EndSplineSet
EndChar

StartChar: cedilla
Encoding: 184 184 203
Width: 922
VWidth: 1947
GlyphClass: 2
Flags: MW
LayerCount: 2
Fore
SplineSet
386 88 m 21
 386 0 l 5
 349 -132 l 5
 471.915 -132 521.117 -176.836 521.117 -240.671 c 7
 521.117 -337.391 418.743 -411 302 -411 c 31
 223.85 -411 159 -379 117 -334 c 13
EndSplineSet
EndChar

StartChar: ogonek
Encoding: 731 731 204
Width: 922
VWidth: 1947
GlyphClass: 2
Flags: MW
LayerCount: 2
Fore
SplineSet
433 -290 m 5
 401 -314 l 6
 374.44 -333.92 342 -345 310 -345 c 7
 249.095 -345 207.115 -301.092 207.115 -242.917 c 4
 207.115 -189.339 240.583 -146.799 265 -126 c 14
 418 0 l 29
 433 72 l 29
EndSplineSet
EndChar

StartChar: caron
Encoding: 711 711 205
Width: 922
VWidth: 1947
GlyphClass: 2
Flags: MW
LayerCount: 2
Back
SplineSet
190 1422 m 5
 257 1736 l 5
 1179 1736 l 5
 1112 1422 l 5
 190 1422 l 5
EndSplineSet
Fore
SplineSet
489 1600 m 25
 659 1460 l 25
 889 1600 l 25
EndSplineSet
EndChar

StartChar: dotlessi
Encoding: 305 305 206
Width: 922
VWidth: 1947
GlyphClass: 2
Flags: W
LayerCount: 2
Back
SplineSet
64 -25 m 5
 367 1400 l 5
 925 1400 l 5
 622 -25 l 5
 64 -25 l 5
EndSplineSet
Fore
SplineSet
-32 75 m 25
 766 75 l 25
152 949 m 25
 551 949 l 25
 367 75 l 25
EndSplineSet
EndChar

StartChar: currency
Encoding: 164 164 210
Width: 922
VWidth: 1947
GlyphClass: 2
Flags: MW
LayerCount: 2
Fore
SplineSet
772 398 m 17
 619 586 l 1
303 978 m 1
 150 1166 l 9
77 471 m 17
 266 624 l 1
657 940 m 1
 845 1093 l 9
469 1039 m 18
 591 1039 712 916 712 796 c 10
 712 772 l 18
 712 645 591 529 469 529 c 10
 453 529 l 18
 331 529 210 646 210 772 c 10
 210 796 l 18
 211 916 331 1039 453 1039 c 10
 469 1039 l 18
EndSplineSet
EndChar

StartChar: brokenbar
Encoding: 166 166 211
Width: 922
VWidth: 1947
GlyphClass: 2
Flags: MW
LayerCount: 2
Back
SplineSet
-38.9434 -75 m 5
 104.527 600 l 5
 755.529 600 l 5
 612.057 -75 l 5
 -38.9434 -75 l 5
154.258 833 m 5
 290.729 1476 l 5
 941.731 1476 l 5
 805.258 833 l 5
 154.258 833 l 5
EndSplineSet
Fore
SplineSet
297 -234 m 17
 691 1605 l 1
EndSplineSet
EndChar

StartChar: onequarter
Encoding: 188 188 212
Width: 922
VWidth: 1708
GlyphClass: 2
Flags: MW
LayerCount: 2
Back
SplineSet
-58 972 m 5
 200 1207 l 5
 243 1244 l 5
 179 1351 l 5
 414 1555 l 5
 674 1555 l 5
 568 1069 l 5
 876 1556 l 5
 1096 1400 l 5
 581 574 l 5
 895 574 l 5
 729 -209 l 5
 320 -209 l 5
 438 344 l 5
 124 -160 l 5
 -108 0 l 5
 436 808 l 5
 -96 808 l 5
 -58 972 l 5
EndSplineSet
Fore
SplineSet
65 -25 m 25
 931 1425 l 25
268 732 m 25
 424 1504 l 25
 113 1319 l 25
594 -339 m 25
 777 525 l 25
 396 40 l 25
 961 40 l 25
EndSplineSet
EndChar

StartChar: onehalf
Encoding: 189 189 213
Width: 922
VWidth: 1708
GlyphClass: 2
Flags: MW
LayerCount: 2
Back
SplineSet
-58 972 m 5
 200 1207 l 5
 243 1244 l 5
 179 1351 l 5
 414 1555 l 5
 674 1555 l 5
 571 1084 l 5
 864 1552 l 5
 1089 1341 l 5
 611 619 l 5
 1053 619 l 5
 912 -45 l 5
 758 -63 l 5
 698 -345 l 5
 272 -345 l 5
 412 315 l 5
 92 -176 l 5
 -114 -12 l 5
 426 808 l 5
 -96 808 l 5
 -58 972 l 5
EndSplineSet
Fore
SplineSet
65 -25 m 25
 931 1425 l 25
498 372 m 1
 537 432 578 473 663 473 c 10
 673 473 l 18
 779 473 810 414 789 325 c 10
 784 303 l 18
 778 271 745 201 705 160 c 2
 478 -49 l 2
 437 -87 397 -153 369 -210 c 1
 896 -210 l 9
260 700 m 25
 424 1504 l 25
 113 1319 l 25
EndSplineSet
EndChar

StartChar: threequarters
Encoding: 190 190 214
Width: 922
VWidth: 1708
GlyphClass: 2
Flags: MW
LayerCount: 2
Back
SplineSet
104 -160 m 5
 -100 -25 l 5
 232 1638 l 5
 1152 1638 l 5
 1104 1400 l 5
 575 574 l 5
 895 574 l 5
 729 -209 l 5
 320 -209 l 5
 444 370 l 5
 104 -160 l 5
EndSplineSet
Fore
SplineSet
65 -25 m 25
 931 1425 l 25
278 1432 m 1
 314 1490 376 1528 438 1528 c 10
 449 1528 l 18
 521 1528 582 1481 566 1404 c 2
 563 1389 l 2
 551 1327 481 1254 402 1254 c 1
 503 1254 546 1166 520 1049 c 10
 518 1038 l 18
 492 917 435 864 328 864 c 10
 317 864 l 18
 254 864 173 888 173 965 c 0
594 -339 m 25
 777 525 l 25
 396 40 l 25
 961 40 l 25
EndSplineSet
EndChar

StartChar: Lslash
Encoding: 321 321 216
Width: 922
VWidth: 1947
GlyphClass: 2
Flags: MW
LayerCount: 2
Back
SplineSet
-186 0 m 5
 115 1400 l 5
 1018 1400 l 5
 717 0 l 5
 -186 0 l 5
EndSplineSet
Fore
SplineSet
37 512 m 25
 685 730 l 25
403 1566 m 25
 88 76 l 25
 868 76 l 25
EndSplineSet
EndChar

StartChar: lslash
Encoding: 322 322 257
Width: 922
VWidth: 1947
GlyphClass: 2
Flags: MW
LayerCount: 2
Back
SplineSet
373 1425 m 1
 930 1425 l 1
 835 973 l 1
 1002 961 l 1
 863 308 l 1
 684 260 l 1
 627 0 l 1
 70 0 l 1
 127 260 l 1
 -25 304 l 1
 114 957 l 1
 278 973 l 1
 373 1425 l 1
EndSplineSet
Fore
SplineSet
157 512 m 25
 805 730 l 25
-72 75 m 25
 786 75 l 25
369 92 m 17
192 1325 m 25
 631 1325 l 25
 367 75 l 25
EndSplineSet
EndChar

StartChar: dotlessj
Encoding: 567 567 260
Width: 922
VWidth: 1947
GlyphClass: 2
Flags: MW
LayerCount: 2
Back
SplineSet
-208 -456 m 5
 -3 508 l 5
 268 528 l 5
 454 1400 l 5
 1220 1400 l 5
 825 -456 l 5
 -208 -456 l 5
EndSplineSet
Fore
SplineSet
154 -146 m 0
 154 -228 214 -294 302 -294 c 11
 415 -294 500 -230 525 -110 c 2
 750 949 l 25
 207 949 l 25
EndSplineSet
EndChar

StartChar: eng
Encoding: 331 331 261
Width: 922
VWidth: 2334
GlyphClass: 2
Flags: MW
LayerCount: 2
Back
SplineSet
-201 -410 m 5
 -141 -140 l 5
 180 -144 l 5
 238 0 l 5
 -112 0 l 5
 110 1022 l 5
 385 1022 l 5
 398 1072 l 5
 1156 1072 l 5
 837 -410 l 5
 -201 -410 l 5
EndSplineSet
Fore
SplineSet
170 -228 m 1
 195 -271 244 -294 301 -294 c 10
 353 -294 l 18
 487 -294 592 -170 622 -28 c 10
 781 719 l 18
 821 908 736 974 565 974 c 10
 547 974 l 18
 389 974 226 731 197 597 c 10
 54 -76 l 25
 346 1293 l 25
EndSplineSet
EndChar

StartChar: ellipsis
Encoding: 8230 8230 266
Width: 922
VWidth: 1947
GlyphClass: 2
Flags: MW
LayerCount: 2
Fore
SplineSet
850 113 m 0
 850 69 815 27 768 27 c 0
 723 27 687 67 687 113 c 0
 687 157 722 198 768 198 c 0
 816 198 850 155 850 113 c 0
234 113 m 0
 234 69 200 27 153 27 c 0
 107 27 72 67 72 113 c 0
 72 157 106 198 153 198 c 0
 200 198 234 155 234 113 c 0
542 113 m 0
 542 69 507 27 460 27 c 0
 415 27 380 67 380 113 c 0
 380 157 414 198 460 198 c 0
 508 198 542 155 542 113 c 0
EndSplineSet
EndChar

StartChar: uparrow
Encoding: 8593 8593 267
Width: 922
VWidth: 1708
GlyphClass: 2
Flags: W
LayerCount: 2
Fore
SplineSet
922 -99 m 5
 0 -99 l 5
 0 1044 l 5
 922 1044 l 5
 922 -99 l 5
821 620 m 29
 461 991 l 29
 101 620 l 29
461 991 m 29
 461 209 l 29
EndSplineSet
EndChar

StartChar: downarrow
Encoding: 8595 8595 268
Width: 922
VWidth: 1708
GlyphClass: 2
Flags: W
LayerCount: 2
Fore
SplineSet
922 156 m 1
 0 156 l 1
 0 1299 l 1
 922 1299 l 1
 922 156 l 1
821 580 m 25
 461 209 l 25
 101 580 l 25
461 209 m 25
 461 991 l 25
EndSplineSet
EndChar

StartChar: spaceopenbox
Encoding: 9251 9251 269
Width: 922
VWidth: 1947
GlyphClass: 2
Flags: MW
LayerCount: 2
Back
SplineSet
-79 156 m 5
 843 156 l 5
 679 -615 l 5
 -243 -615 l 5
 -79 156 l 5
EndSplineSet
Fore
SplineSet
696 321 m 25
 608 -92 l 25
 50 -92 l 25
 138 321 l 25
EndSplineSet
EndChar

StartChar: foursuperior
Encoding: 8308 8308 271
Width: 922
VWidth: 1947
GlyphClass: 2
Flags: MW
LayerCount: 2
Back
SplineSet
309 1425 m 5
 983 1425 l 5
 796 544 l 5
 122 544 l 5
 309 1425 l 5
EndSplineSet
Fore
SplineSet
563 327 m 25
 787 1402 l 25
 245 839 l 25
 936 839 l 25
EndSplineSet
EndChar

StartChar: Eng
Encoding: 330 330 273
Width: 922
VWidth: 2334
GlyphClass: 2
Flags: MW
LayerCount: 2
Back
SplineSet
-201 -410 m 5
 -141 -140 l 5
 180 -144 l 5
 238 0 l 5
 -112 0 l 5
 184 1400 l 5
 459 1400 l 5
 472 1450 l 5
 1230 1450 l 5
 837 -410 l 5
 -201 -410 l 5
EndSplineSet
Fore
SplineSet
170 -228 m 1
 195 -271 244 -294 301 -294 c 10
 353 -294 l 18
 487 -294 592 -170 622 -28 c 10
 854 1063 l 18
 890 1232 875 1350 645 1350 c 10
 627 1350 l 18
 469 1350 303 1092 274 958 c 10
 50 -96 l 25
 407 1584 l 25
EndSplineSet
EndChar

StartChar: dcroat
Encoding: 273 273 274
Width: 922
VWidth: 1947
GlyphClass: 2
Flags: W
LayerCount: 2
Back
SplineSet
576 1400 m 5
 1058 1400 l 5
 754 -25 l 5
 534 -25 l 5
 524 -72 l 5
 -127 -72 l 5
 108 1032 l 5
 510 1086 l 5
 576 1400 l 5
EndSplineSet
Fore
SplineSet
450 1280 m 25
 1132 1280 l 25
963 1575 m 25
 570 -276 l 25
197 597 m 10
 161 427 l 18
 116 215 202 50 352 50 c 10
 370 50 l 18
 550 50 671 201 719 427 c 10
 755 597 l 18
 803 817 774 974 565 974 c 10
 547 974 l 18
 367 974 245 821 197 597 c 10
EndSplineSet
EndChar

StartChar: bullet
Encoding: 8226 8226 280
Width: 922
VWidth: 1947
GlyphClass: 2
Flags: MW
LayerCount: 2
Fore
SplineSet
625 669 m 4
 625 584 551 496 460 496 c 4
 368 496 296 587 296 669 c 4
 296 757 372 839 460 839 c 4
 548 839 625 757 625 669 c 4
EndSplineSet
EndChar

StartChar: florin
Encoding: 402 402 281
Width: 922
VWidth: 1947
GlyphClass: 2
Flags: MW
LayerCount: 2
Fore
SplineSet
991 1280 m 1
 970 1332 916 1350 850 1350 c 11
 749 1350 656 1280 630 1181 c 10
 292 -127 l 18
 269 -212 171 -311 69 -311 c 3
 14 -311 -46 -279 -70 -220 c 1
244 827 m 25
 836 827 l 25
EndSplineSet
EndChar

StartChar: dagger
Encoding: 8224 8224 282
Width: 922
VWidth: 1947
GlyphClass: 2
Flags: MW
LayerCount: 2
Back
SplineSet
280 1425 m 5
 1022 1425 l 5
 638 -387 l 5
 -104 -387 l 5
 280 1425 l 5
EndSplineSet
Fore
SplineSet
687 1590 m 25
 232 -555 l 25
90 950 m 25
 1082 950 l 25
EndSplineSet
EndChar

StartChar: daggerdbl
Encoding: 8225 8225 283
Width: 922
VWidth: 1947
GlyphClass: 2
Flags: MW
LayerCount: 2
Back
SplineSet
280 1425 m 5
 1022 1425 l 5
 638 -387 l 5
 -104 -387 l 5
 280 1425 l 5
EndSplineSet
Fore
SplineSet
-111 89 m 25
 891 89 l 25
683 1569 m 25
 238 -525 l 25
70 950 m 25
 1072 950 l 25
EndSplineSet
EndChar

StartChar: trademark
Encoding: 8482 8482 284
Width: 922
VWidth: 1947
GlyphClass: 2
Flags: MW
LayerCount: 2
Back
SplineSet
23 466 m 5
 222 1400 l 5
 1108 1400 l 5
 909 466 l 5
 723 466 l 5
 734 519 l 5
 587 519 l 5
 576 466 l 5
 23 466 l 5
EndSplineSet
Fore
SplineSet
429 252 m 25
 674 1401 l 25
 680 615 l 25
 1020 1401 l 25
 774 252 l 25
190 310 m 25
 399 1293 l 25
-51 1293 m 25
 599 1293 l 25
EndSplineSet
EndChar

StartChar: Ecyrillic
Encoding: 1028 1028 290
Width: 922
VWidth: 1947
GlyphClass: 2
Flags: W
HStem: -24 187<376.578 609.035> 636 187<271.795 631.272> 1025.62 21<649.176 745.286> 1203 186<383.896 583.125>
VStem: 85.271 186.195<312.104 636 823 1053.6>
LayerCount: 2
Fore
SplineSet
667 315 m 4
 585 141 483 50 369 50 c 6
 353 50 l 6
 175 50 125 301 206 683 c 6
 226 779 l 6
 295 1082 444 1350 621 1350 c 6
 637 1350 l 6
 746 1350 814 1250 828 1083 c 4
229 756 m 25
 606 755 l 25
EndSplineSet
EndChar

StartChar: Becyrillic
Encoding: 1041 1041 298
Width: 922
VWidth: 2334
GlyphClass: 2
Flags: MW
LayerCount: 2
Back
SplineSet
-193 -384 m 5
 187 1401 l 5
 926 1401 l 5
 852 1049 l 5
 1034 1050 l 5
 723 -384 l 5
 -193 -384 l 5
EndSplineSet
Fore
SplineSet
237 787 m 25
 525 787 l 2
 687 787 773 677 731 485 c 2
 694 312 l 2
 656 133 559 50 370 50 c 2
 82 50 l 1
 352 1325 l 9
 1052 1325 l 25
EndSplineSet
EndChar

StartChar: Gecyrillic
Encoding: 1043 1043 299
Width: 922
VWidth: 2334
GlyphClass: 2
Flags: MW
LayerCount: 2
Back
SplineSet
-120 0 m 5
 188 1425 l 5
 1020 1425 l 5
 945 1049 l 5
 1034 1050 l 5
 807 0 l 5
 -120 0 l 5
EndSplineSet
Fore
SplineSet
35 -165 m 25
 352 1324 l 25
 1182 1324 l 25
EndSplineSet
EndChar

StartChar: Decyrillic
Encoding: 1044 1044 300
Width: 922
VWidth: 1947
GlyphClass: 2
Flags: MW
LayerCount: 2
Back
SplineSet
191 1425 m 5
 1113 1425 l 5
 836 118 l 5
 697 -162 l 5
 -60 -162 l 5
 -85 118 l 5
 191 1425 l 5
EndSplineSet
Fore
SplineSet
-63 -300 m 17
 18 76 l 9
 716 76 l 17
 635 -300 l 9
118 76 m 17
 449 966 l 2
 491 1079 640 1277 772 1325 c 9
 890 1325 l 17
 626 76 l 9
EndSplineSet
EndChar

StartChar: Zhecyrillic
Encoding: 1046 1046 302
Width: 922
VWidth: 1947
GlyphClass: 2
Flags: MW
LayerCount: 2
Back
SplineSet
186 1400 m 5
 502 1400 l 5
 492 1350 l 5
 781 1350 l 5
 794 1400 l 5
 1108 1400 l 5
 810 0 l 5
 -112 0 l 5
 186 1400 l 5
EndSplineSet
Fore
SplineSet
702 -85 m 25
 643 702 l 25
-72 -147 m 25
 358 700 l 25
297 1500 m 25
 396 215 l 25
 1092 1602 l 25
669 1503 m 25
 330 -93 l 25
EndSplineSet
EndChar

StartChar: Zecyrillic
Encoding: 1047 1047 303
Width: 922
VWidth: 1947
GlyphClass: 2
Flags: MW
LayerCount: 2
Fore
SplineSet
321 1190 m 1
 384 1296 501 1350 607 1350 c 10
 645 1350 l 18
 821 1350 842 1193 819 1090 c 10
 810 1049 l 18
 787 939 650 813 516 811 c 2
 362 809 l 9
 530 809 l 18
 718 809 758 611 717 417 c 10
 712 397 l 18
 666 177 550 50 370 50 c 10
 332 50 l 18
 225 50 109 104 109 242 c 3
EndSplineSet
EndChar

StartChar: Iicyrillic
Encoding: 1048 1048 304
Width: 922
VWidth: 1947
GlyphClass: 2
Flags: MW
LayerCount: 2
Back
SplineSet
186 1400 m 5
 1108 1400 l 5
 810 0 l 5
 -112 0 l 5
 186 1400 l 5
EndSplineSet
Fore
SplineSet
583 -213 m 25
 915 1350 l 25
 82 49 l 25
 409 1593 l 25
EndSplineSet
EndChar

StartChar: Elcyrillic
Encoding: 1051 1051 307
Width: 922
VWidth: 1947
GlyphClass: 2
Flags: MW
LayerCount: 2
Back
SplineSet
191 1425 m 5
 1113 1425 l 5
 810 0 l 5
 -112 0 l 5
 191 1425 l 5
EndSplineSet
Fore
SplineSet
-60 -225 m 16
 439 966 l 2
 498 1108 640 1277 772 1325 c 9
 910 1325 l 25
 584 -210 l 25
EndSplineSet
EndChar

StartChar: Pecyrillic
Encoding: 1055 1055 311
Width: 922
VWidth: 1947
GlyphClass: 2
Flags: MW
LayerCount: 2
Back
SplineSet
191 1425 m 5
 1113 1425 l 5
 810 0 l 5
 -112 0 l 5
 191 1425 l 5
EndSplineSet
Fore
SplineSet
23 -222 m 25
 352 1325 l 25
 910 1325 l 25
 581 -222 l 25
EndSplineSet
EndChar

StartChar: Ucyrillic
Encoding: 1059 1059 315
Width: 922
VWidth: 1947
GlyphClass: 2
Flags: MW
LayerCount: 2
Back
SplineSet
186 1400 m 5
 1108 1400 l 5
 801 -40 l 5
 -121 -40 l 5
 186 1400 l 5
EndSplineSet
Fore
SplineSet
983 1480 m 16
 413 214 l 2
 345 73 266 51 200 50 c 2
 172 50 l 2
 152 50 132 54 114 61 c 2
 87 73 l 9
345 1480 m 25
 517 459 l 25
EndSplineSet
EndChar

StartChar: Efcyrillic
Encoding: 1060 1060 316
Width: 922
VWidth: 1947
GlyphClass: 2
Flags: MW
LayerCount: 2
Back
SplineSet
189 1425 m 5
 1111 1425 l 5
 805 -24 l 5
 -117 -24 l 5
 189 1425 l 5
EndSplineSet
Fore
SplineSet
638 1255 m 2
 874 1255 912 1049 854 781 c 2
 825 645 l 2
 766 367 620 155 397 155 c 2
 367 155 l 2
 194 155 75 299 156 683 c 2
 177 779 l 2
 240 1077 380 1255 597 1255 c 2
 638 1255 l 2
678 1545 m 25
 280 -327 l 25
EndSplineSet
EndChar

StartChar: Tsecyrillic
Encoding: 1062 1062 318
Width: 922
VWidth: 1947
GlyphClass: 2
Flags: MW
LayerCount: 2
Back
SplineSet
186 1400 m 5
 1056 1400 l 5
 694 -302 l 5
 -176 -302 l 5
 186 1400 l 5
EndSplineSet
Fore
SplineSet
572 60 m 25
 726 60 l 25
 508 -189 l 25
394 1527 m 25
 88 75 l 25
 576 75 l 17
 882 1527 l 9
EndSplineSet
EndChar

StartChar: Checyrillic
Encoding: 1063 1063 319
Width: 922
VWidth: 1947
GlyphClass: 2
Flags: MW
LayerCount: 2
Back
SplineSet
186 1400 m 5
 1107 1400 l 5
 807 0 l 5
 -114 0 l 5
 186 1400 l 5
EndSplineSet
Fore
SplineSet
737 512 m 25
 449 512 l 2
 285 512 204 628 243 814 c 2
 398 1539 l 17
956 1539 m 1
 581 -225 l 1
EndSplineSet
EndChar

StartChar: Shacyrillic
Encoding: 1064 1064 320
Width: 922
VWidth: 1947
GlyphClass: 2
Flags: MW
LayerCount: 2
Back
SplineSet
76 1400 m 5
 494 1400 l 5
 447 1184 l 5
 746 1184 l 5
 789 1400 l 5
 1187 1400 l 5
 887 0 l 5
 -224 0 l 5
 76 1400 l 5
EndSplineSet
Fore
SplineSet
658 1451 m 17
 367 75 l 9
348 1548 m 25
 38 75 l 25
 696 75 l 25
 1006 1548 l 25
EndSplineSet
EndChar

StartChar: Shchacyrillic
Encoding: 1065 1065 321
Width: 922
VWidth: 1947
GlyphClass: 2
Flags: MW
LayerCount: 2
Back
SplineSet
186 1400 m 5
 476 1400 l 5
 429 1184 l 5
 733 1184 l 5
 776 1400 l 5
 1088 1400 l 5
 726 -302 l 5
 -176 -302 l 5
 186 1400 l 5
EndSplineSet
Fore
SplineSet
609 1359 m 17
 342 75 l 9
640 60 m 25
 763 60 l 25
 538 -189 l 25
354 1590 m 25
 38 75 l 25
 646 75 l 17
 962 1590 l 9
EndSplineSet
EndChar

StartChar: Hardsigncyrillic
Encoding: 1066 1066 322
Width: 922
VWidth: 1947
GlyphClass: 2
Flags: W
LayerCount: 2
Back
SplineSet
251 1425 m 5
 1113 1425 l 5
 797 -60 l 5
 -124 -60 l 5
 40 712 l 5
 180 714 l 5
 232 959 l 5
 152 959 l 5
 251 1425 l 5
EndSplineSet
Fore
SplineSet
379 747 m 25
 577 747 l 2
 694 747 760 618 723 445 c 2
 700 337 l 2
 662 158 556 75 436 75 c 2
 238 75 l 1
 502 1325 l 9
 300 1325 l 25
 83 896 l 25
EndSplineSet
EndChar

StartChar: Yericyrillic
Encoding: 1067 1067 323
Width: 922
VWidth: 1947
GlyphClass: 2
Flags: MW
LayerCount: 2
Back
SplineSet
186 1400 m 5
 1107 1400 l 5
 807 0 l 5
 -114 0 l 5
 186 1400 l 5
EndSplineSet
Fore
SplineSet
984 1518 m 17
 627 -174 l 9
215 797 m 25
 278 797 l 2
 427 797 527 699 483 495 c 2
 450 337 l 2
 412 158 315 75 126 75 c 2
 58 75 l 1
 366 1518 l 1
EndSplineSet
EndChar

StartChar: Softsigncyrillic
Encoding: 1068 1068 324
Width: 922
VWidth: 1947
GlyphClass: 2
Flags: MW
LayerCount: 2
Back
SplineSet
186 1400 m 5
 1107 1400 l 5
 807 0 l 5
 -114 0 l 5
 186 1400 l 5
EndSplineSet
Fore
SplineSet
229 747 m 25
 517 747 l 2
 673 747 765 643 723 445 c 6
 700 337 l 2
 662 158 565 75 376 75 c 2
 88 75 l 1
 404 1569 l 1
EndSplineSet
EndChar

StartChar: Ereversedcyrillic
Encoding: 1069 1069 325
Width: 922
VWidth: 1947
GlyphClass: 2
Flags: MW
LayerCount: 2
Fore
SplineSet
324 1071 m 0
 402 1242 505 1350 621 1350 c 2
 637 1350 l 2
 804 1350 872 1094 804 781 c 2
 775 645 l 2
 697 285 544 50 369 50 c 2
 353 50 l 2
 242 50 179 139 169 309 c 0
411 756 m 25
 788 755 l 25
EndSplineSet
EndChar

StartChar: IUcyrillic
Encoding: 1070 1070 326
Width: 922
VWidth: 1947
GlyphClass: 2
Flags: MW
LayerCount: 2
Back
SplineSet
186 1400 m 5
 459 1400 l 5
 492 1503 l 5
 1185 1503 l 5
 843 -129 l 5
 162 -129 l 5
 165 0 l 5
 -114 0 l 5
 186 1400 l 5
EndSplineSet
Fore
SplineSet
179 700 m 25
 457 700 l 25
360 1596 m 17
 -12 -150 l 9
786 1350 m 3
 915 1350 891 985 872 897 c 2
 793 528 l 2
 744 301 629 50 511 50 c 3
 375 50 411 438 430 530 c 2
 508 897 l 2
 563 1157 667 1350 786 1350 c 3
EndSplineSet
EndChar

StartChar: IAcyrillic
Encoding: 1071 1071 327
Width: 922
VWidth: 1947
GlyphClass: 2
Flags: MW
LayerCount: 2
Back
SplineSet
198 1458 m 5
 1120 1458 l 5
 810 0 l 5
 -112 0 l 5
 198 1458 l 5
EndSplineSet
Fore
SplineSet
-34 -102 m 25
 501 712 l 25
781 717 m 25
 493 717 l 2
 279 717 248 831 277 973 c 2
 296 1063 l 2
 338 1259 433 1325 622 1325 c 2
 910 1325 l 1
 583 -213 l 1
EndSplineSet
EndChar

StartChar: becyrillic
Encoding: 1073 1073 329
Width: 922
VWidth: 1947
GlyphClass: 2
Flags: MW
LayerCount: 2
Back
SplineSet
319 1506 m 5
 948 1506 l 5
 871 1136 l 5
 1108 1083 l 5
 855 -99 l 5
 -138 -99 l 5
 104 1029 l 5
 222 1047 l 5
 319 1506 l 5
EndSplineSet
Fore
SplineSet
197 597 m 10
 161 427 l 18
 116 215 202 50 352 50 c 10
 370 50 l 18
 550 50 671 201 719 427 c 10
 755 597 l 18
 803 817 774 974 565 974 c 10
 547 974 l 18
 367 974 245 821 197 597 c 10
1009 1325 m 25
 353 1325 l 25
 721 918 l 25
EndSplineSet
EndChar

StartChar: vecyrillic
Encoding: 1074 1074 330
Width: 922
VWidth: 2334
GlyphClass: 2
Flags: MW
LayerCount: 2
Fore
SplineSet
356 75 m 2
 395 75 l 2
 575 75 685 181 714 316 c 10
 716 325 l 18
 746 467 663 549 494 549 c 2
 192 549 l 1
 271 549 l 2
 424 549 681 889 719 1064 c 2
 742 1172 l 2
 767 1286 681 1349 574 1349 c 2
 542 1349 l 2
 378 1349 343 1276 323 1184 c 2
 137 312 l 18
 101 142 236 75 356 75 c 2
EndSplineSet
EndChar

StartChar: gecyrillic
Encoding: 1075 1075 331
Width: 922
VWidth: 1947
GlyphClass: 2
Flags: MW
LayerCount: 2
Fore
SplineSet
232 810 m 1
 295 908 413 974 517 974 c 10
 535 974 l 18
 718 974 795 921 766 789 c 2
 763 777 l 2
 752 723 703 648 641 625 c 2
 228 450 l 2
 162 423 118 368 104 301 c 2
 95 255 l 2
 67 121 185 50 322 50 c 10
 370 50 l 18
 506 50 671 203 700 337 c 8
EndSplineSet
EndChar

StartChar: decyrillic
Encoding: 1076 1076 332
Width: 922
VWidth: 1947
GlyphClass: 2
Flags: MW
LayerCount: 2
Fore
SplineSet
340 1274 m 17
 445 1338 473 1325 622 1325 c 2
 640 1325 l 2
 830 1311 866 1119 837 981 c 2
 738 517 l 9
197 597 m 10
 161 427 l 18
 116 215 202 50 352 50 c 10
 370 50 l 18
 550 50 671 201 719 427 c 10
 755 597 l 18
 803 817 774 974 565 974 c 10
 547 974 l 18
 367 974 245 821 197 597 c 10
EndSplineSet
EndChar

StartChar: zhecyrillic
Encoding: 1078 1078 334
Width: 922
VWidth: 1947
GlyphClass: 2
Flags: MW
LayerCount: 2
Back
SplineSet
140 1184 m 5
 435 1184 l 5
 402 1024 l 5
 730 1024 l 5
 789 1184 l 5
 1062 1184 l 5
 810 0 l 5
 -112 0 l 5
 140 1184 l 5
EndSplineSet
Fore
SplineSet
690 -142 m 25
 583 475 l 25
-52 -142 m 25
 314 473 l 25
195 1049 m 25
 381 149 l 25
 946 1049 l 25
614 1242 m 25
 346 -15 l 25
EndSplineSet
EndChar

StartChar: zecyrillic
Encoding: 1079 1079 335
Width: 922
VWidth: 1947
GlyphClass: 2
Flags: MW
LayerCount: 2
Fore
SplineSet
241 813 m 1
 304 919 421 973 527 973 c 10
 565 973 l 18
 697 973 775 901 755 808 c 10
 753 797 l 18
 729 686 612 560 478 560 c 2
 369 560 l 9
 477 560 l 18
 648 560 721 434 694 311 c 10
 690 291 l 18
 666 178 550 50 370 50 c 10
 352 50 l 18
 242 50 123 108 123 225 c 0
EndSplineSet
EndChar

StartChar: iicyrillic
Encoding: 1080 1080 336
Width: 922
VWidth: 1947
GlyphClass: 2
Flags: MW
LayerCount: 2
Back
SplineSet
105 1023 m 5
 1027 1023 l 5
 810 0 l 5
 524 0 l 5
 497 -70 l 5
 -127 -70 l 5
 105 1023 l 5
EndSplineSet
Fore
SplineSet
315 1152 m 25
 150 380 l 18
 109 192 94 50 332 50 c 10
 350 50 l 18
 508 50 695 314 723 447 c 10
 874 1152 l 25
 582 -216 l 25
EndSplineSet
EndChar

StartChar: kacyrillic
Encoding: 1082 1082 338
Width: 922
VWidth: 1947
GlyphClass: 2
Flags: MW
LayerCount: 2
Back
SplineSet
105 1024 m 5
 566 1024 l 5
 616 1190 l 5
 1064 1190 l 5
 810 0 l 5
 -112 0 l 5
 105 1024 l 5
EndSplineSet
Fore
SplineSet
730 -118 m 17
 574 101 l 2
 524 164 453 321 448 488 c 2
 444 599 l 9
867 981 m 17
 751 902 l 2
 582 757 425 614 297 422 c 2
 98 126 l 9
328 1214 m 25
 34 -170 l 25
EndSplineSet
EndChar

StartChar: elcyrillic
Encoding: 1083 1083 339
Width: 922
VWidth: 1947
GlyphClass: 2
Flags: MW
LayerCount: 2
Back
SplineSet
111 1048 m 5
 1033 1048 l 5
 810 0 l 5
 -112 0 l 5
 111 1048 l 5
EndSplineSet
Fore
SplineSet
-10 -99 m 16
 321 604 l 2
 383 745 560 900 692 948 c 9
 830 948 l 25
 603 -122 l 25
EndSplineSet
EndChar

StartChar: emcyrillic
Encoding: 1084 1084 340
Width: 922
VWidth: 1947
GlyphClass: 2
Flags: MW
LayerCount: 2
Back
SplineSet
-112 0 m 5
 106 1024 l 5
 1028 1024 l 5
 810 0 l 5
 499 0 l 5
 516 75 l 5
 223 75 l 5
 205 0 l 5
 -112 0 l 5
EndSplineSet
Fore
SplineSet
-32 -75 m 25
 289 1021 l 25
 375 119 l 25
 845 1021 l 25
 698 -75 l 25
EndSplineSet
EndChar

StartChar: encyrillic
Encoding: 1085 1085 341
Width: 922
VWidth: 1947
GlyphClass: 2
Flags: MW
LayerCount: 2
Back
SplineSet
104 1024 m 5
 1026 1024 l 5
 810 0 l 5
 -112 0 l 5
 104 1024 l 5
EndSplineSet
Fore
SplineSet
170 470 m 25
 728 470 l 25
872 1146 m 25
 599 -138 l 25
314 1146 m 25
 41 -138 l 25
EndSplineSet
EndChar

StartChar: tecyrillic
Encoding: 1090 1090 346
Width: 922
VWidth: 1947
GlyphClass: 2
Flags: MW
LayerCount: 2
Back
SplineSet
112 1050 m 5
 1034 1050 l 5
 810 0 l 5
 -112 0 l 5
 112 1050 l 5
EndSplineSet
Fore
SplineSet
647 -99 m 25
 840 809 l 18
 865 927 834 974 740 974 c 10
 730 974 l 18
 632 974 527 854 498 719 c 10
 328 -99 l 25
 517 809 l 18
 542 926 515 974 421 974 c 10
 411 974 l 18
 313 974 212 854 183 719 c 10
 9 -99 l 25
 286 1196 l 25
EndSplineSet
EndChar

StartChar: efcyrillic
Encoding: 1092 1092 348
Width: 922
VWidth: 1947
GlyphClass: 2
Flags: MW
LayerCount: 2
Back
SplineSet
111 1049 m 5
 1032 1049 l 5
 728 -384 l 5
 -194 -384 l 5
 111 1049 l 5
EndSplineSet
Fore
SplineSet
598 1170 m 25
 247 -478 l 25
262 50 m 2
 121 50 81 289 109 423 c 2
 127 513 l 2
 164 694 278 905 466 905 c 2
 614 905 l 2
 787 905 816 641 789 513 c 2
 770 423 l 2
 721 196 591 50 449 50 c 2
 262 50 l 2
EndSplineSet
EndChar

StartChar: tsecyrillic
Encoding: 1094 1094 350
Width: 922
VWidth: 1947
GlyphClass: 2
Flags: MW
LayerCount: 2
Back
SplineSet
104 1024 m 5
 1026 1024 l 5
 728 -384 l 5
 -194 -384 l 5
 104 1024 l 5
EndSplineSet
Fore
SplineSet
326 1202 m 25
 142 337 l 18
 106 166 115 50 332 50 c 10
 350 50 l 18
 508 50 695 314 723 447 c 10
 885 1202 l 25
 646 79 l 17
 716 -12 680 -148 500 -228 c 0
EndSplineSet
EndChar

StartChar: checyrillic
Encoding: 1095 1095 351
Width: 922
VWidth: 1947
GlyphClass: 2
Flags: MW
LayerCount: 2
Back
SplineSet
105 1024 m 5
 1026 1024 l 5
 811 0 l 5
 -111 0 l 5
 105 1024 l 5
EndSplineSet
Fore
SplineSet
316 1156 m 25
 225 729 l 18
 190 564 187 427 411 427 c 10
 429 427 l 18
 587 427 779 705 807 839 c 10
 874 1156 l 25
 590 -182 l 17
EndSplineSet
EndChar

StartChar: shacyrillic
Encoding: 1096 1096 352
Width: 922
VWidth: 1947
GlyphClass: 2
Flags: MW
LayerCount: 2
Back
SplineSet
105 1024 m 5
 1026 1024 l 5
 811 0 l 5
 614 0 l 5
 585 -80 l 5
 -129 -80 l 5
 105 1024 l 5
EndSplineSet
Fore
SplineSet
280 1172 m 25
 77 215 l 18
 52 97 84 50 177 50 c 10
 187 50 l 18
 285 50 393 203 421 337 c 10
 599 1172 l 25
 396 215 l 18
 377 122 387 50 496 50 c 10
 506 50 l 18
 604 50 712 203 740 337 c 10
 918 1172 l 25
 626 -196 l 25
EndSplineSet
EndChar

StartChar: shchacyrillic
Encoding: 1097 1097 353
Width: 922
VWidth: 1947
GlyphClass: 2
Flags: MW
LayerCount: 2
Back
SplineSet
105 1024 m 5
 1026 1024 l 5
 720 -410 l 5
 354 -410 l 5
 415 -80 l 5
 -129 -80 l 5
 105 1024 l 5
EndSplineSet
Fore
SplineSet
280 1173 m 25
 77 215 l 18
 51 92 88 50 177 50 c 10
 187 50 l 18
 285 50 393 203 421 337 c 10
 599 1173 l 25
 396 215 l 18
 377 122 387 50 496 50 c 10
 506 50 l 18
 604 50 712 203 740 337 c 10
 918 1173 l 17
 686 79 l 1
 758 -45 701 -175 540 -228 c 0
EndSplineSet
EndChar

StartChar: hardsigncyrillic
Encoding: 1098 1098 354
Width: 922
VWidth: 1947
GlyphClass: 2
Flags: MW
LayerCount: 2
Back
SplineSet
165 1023 m 5
 1027 1023 l 5
 797 -60 l 5
 -124 -60 l 5
 -59 246 l 5
 82 248 l 5
 150 572 l 5
 71 572 l 5
 165 1023 l 5
EndSplineSet
Fore
SplineSet
339 561 m 25
 477 561 l 18
 613 561 728 470 700 337 c 2
 684 259 l 2
 655 124 511 75 375 74 c 10
 237 74 l 25
 417 923 l 25
 215 923 l 25
 -10 462 l 25
EndSplineSet
EndChar

StartChar: yericyrillic
Encoding: 1099 1099 355
Width: 922
VWidth: 1947
GlyphClass: 2
Flags: MW
LayerCount: 2
Back
SplineSet
105 1024 m 5
 1026 1024 l 5
 811 0 l 5
 -111 0 l 5
 105 1024 l 5
EndSplineSet
Fore
SplineSet
648 -132 m 25
 923 1169 l 25
269 1169 m 25
 38 75 l 25
 146 75 l 18
 281 75 405 124 434 259 c 2
 450 337 l 18
 479 478 374 561 247 561 c 10
 139 561 l 25
EndSplineSet
EndChar

StartChar: softsigncyrillic
Encoding: 1100 1100 356
Width: 922
VWidth: 1947
GlyphClass: 2
Flags: MW
LayerCount: 2
Back
SplineSet
112 1049 m 5x40
 1033 1049 l 5x40
 810 0 l 5
 -112 0 l 5x80
 112 1049 l 5x40
EndSplineSet
Fore
SplineSet
346 1298 m 25
 88 75 l 25
 376 75 l 18
 511 75 655 124 684 259 c 2
 700 337 l 18
 728 476 605 561 477 561 c 10
 189 561 l 25
EndSplineSet
EndChar

StartChar: ereversedcyrillic
Encoding: 1101 1101 357
Width: 922
VWidth: 1947
GlyphClass: 2
Flags: MW
LayerCount: 2
Fore
SplineSet
314 512 m 25
 721 512 l 25
247 830 m 1
 301 936 394 973 532 973 c 10
 550 973 l 18
 758 973 788 819 740 597 c 10
 704 427 l 18
 656 201 505 50 355 50 c 10
 337 50 l 18
 201 50 124 86 113 188 c 1
EndSplineSet
EndChar

StartChar: iucyrillic
Encoding: 1102 1102 358
Width: 922
VWidth: 1947
GlyphClass: 2
Flags: MW
LayerCount: 2
Back
SplineSet
105 1024 m 5x40
 393 1024 l 5
 414 1049 l 5
 1033 1049 l 5x40
 799 -54 l 5
 190 -54 l 5
 186 0 l 5
 -111 0 l 5x80
 105 1024 l 5x40
EndSplineSet
Fore
SplineSet
416 597 m 10
 380 427 l 18
 317 128 386 50 481 50 c 10
 499 50 l 18
 616 50 710 201 758 427 c 10
 794 597 l 18
 849 853 845 974 694 974 c 10
 676 974 l 18
 566 974 464 821 416 597 c 10
139 512 m 25
 399 512 l 25
287 1199 m 25
 0 -141 l 25
EndSplineSet
EndChar

StartChar: iacyrillic
Encoding: 1103 1103 359
Width: 922
VWidth: 1947
GlyphClass: 2
Flags: MW
LayerCount: 2
Back
SplineSet
112 1049 m 5x40
 1033 1049 l 5x40
 811 0 l 5
 358 0 l 5
 328 -86 l 5
 -130 -86 l 5x80
 112 1049 l 5x40
EndSplineSet
Fore
SplineSet
54 18 m 25
 459 470 l 25
596 -153 m 25
 831 949 l 25
 543 949 l 18
 408 949 263 901 234 766 c 2
 228 743 l 2
 202 630 302 487 444 487 c 10
 732 487 l 25
EndSplineSet
EndChar

StartChar: ecyrillic
Encoding: 1108 1108 362
Width: 922
VWidth: 1708
GlyphClass: 2
Flags: W
LayerCount: 2
Fore
SplineSet
194 512 m 25
 601 512 l 25
772 830 m 0
 752 932 682 974 565 974 c 10
 547 974 l 18
 367 974 245 821 197 597 c 10
 161 427 l 18
 115 215 202 50 352 50 c 10
 370 50 l 18
 485 50 571 90 634 188 c 0
EndSplineSet
EndChar

StartChar: numero
Encoding: 8470 8470 372
Width: 922
VWidth: 1947
Flags: MW
LayerCount: 2
Back
SplineSet
116 1400 m 5
 1198 1400 l 5
 900 0 l 5
 -182 0 l 5
 116 1400 l 5
EndSplineSet
Fore
SplineSet
876 1225 m 3
 952 1225 980 1130 928 887 c 0
 884 681 822 546 732 546 c 3
 668 546 625 619 682 887 c 0
 725 1091 787 1225 876 1225 c 3
-57 -144 m 25
 275 1405 l 25
 317 -5 l 17
 641 1521 l 9
EndSplineSet
EndChar

StartChar: caroncomb
Encoding: 780 780 377
Width: 922
VWidth: 1947
Flags: MW
LayerCount: 2
Back
SplineSet
190 1422 m 5
 257 1736 l 5
 1179 1736 l 5
 1112 1422 l 5
 190 1422 l 5
EndSplineSet
Fore
SplineSet
489 1600 m 25
 659 1460 l 25
 889 1600 l 25
EndSplineSet
EndChar

StartChar: gravecomb
Encoding: 768 768 379
Width: 922
VWidth: 2334
Flags: MW
LayerCount: 2
Fore
SplineSet
600 1647 m 29
 754 1438 l 29
EndSplineSet
EndChar

StartChar: acutecomb
Encoding: 769 769 380
Width: 922
VWidth: 2334
Flags: MW
LayerCount: 2
Fore
SplineSet
778 1647 m 29
 536 1438 l 29
EndSplineSet
EndChar

StartChar: tildecomb
Encoding: 771 771 381
Width: 922
VWidth: 1947
Flags: MW
LayerCount: 2
Fore
SplineSet
389 1502 m 17
 415 1528 l 2
 458 1571 506 1612 575 1612 c 10
 591 1612 l 18
 626 1612 656 1595 674 1576 c 2
 689 1559 l 2
 707 1539 737 1522 773 1522 c 10
 790 1522 l 18
 860 1522 908 1562 953 1609 c 2
 975 1632 l 9
EndSplineSet
EndChar

StartChar: hookabovecomb
Encoding: 777 777 382
Width: 922
VWidth: 1947
Flags: MW
LayerCount: 2
Fore
SplineSet
623 1255 m 5
 651 1387 l 5
 776.838 1387 874.197 1412.54 874.197 1514.69 c 7
 874.197 1583.28 786.971 1606 709 1606 c 15
 628 1606 567 1590 496 1549 c 13
EndSplineSet
EndChar

StartChar: dotbelowcomb
Encoding: 803 803 383
Width: 922
VWidth: 2334
Flags: MW
LayerCount: 2
Fore
SplineSet
190 -253 m 31
 190 -197 234 -151 291 -151 c 31
 347 -151 394 -197 394 -253 c 31
 394 -309 347 -355 291 -355 c 31
 234 -355 190 -309 190 -253 c 31
EndSplineSet
EndChar

StartChar: commaturnedabovecmb
Encoding: 786 786 396
Width: 922
VWidth: 1947
Flags: MW
LayerCount: 2
Fore
SplineSet
386 28 m 21
 386 0 l 5
 349 -132 l 5
 471.915 -132 521.117 -176.836 521.117 -240.671 c 7
 521.117 -337.391 418.743 -411 302 -411 c 31
 223.85 -411 159 -379 117 -334 c 13
EndSplineSet
EndChar

StartChar: Hbar
Encoding: 294 294 400
Width: 922
VWidth: 1947
Flags: W
LayerCount: 2
Back
SplineSet
-63 0 m 1
 235 1400 l 1
 1060 1400 l 1
 762 0 l 1
 -63 0 l 1
EndSplineSet
Fore
SplineSet
60 1170 m 25
 1112 1170 l 25
226 732 m 25
 784 732 l 25
960 1560 m 25
 601 -128 l 25
402 1560 m 25
 43 -128 l 25
EndSplineSet
EndChar

StartChar: hbar
Encoding: 295 295 401
Width: 922
VWidth: 1947
Flags: W
LayerCount: 2
Back
SplineSet
233 1400 m 5
 718 1400 l 5
 652 1089 l 5
 1038 1071 l 5
 810 0 l 5
 -64 0 l 5
 233 1400 l 5
EndSplineSet
Fore
SplineSet
110 1280 m 25
 792 1280 l 25
590 -183 m 25
 781 719 l 18
 818 893 750 974 565 974 c 10
 547 974 l 18
 389 974 226 731 197 597 c 10
 34 -171 l 25
 398 1542 l 25
EndSplineSet
EndChar

StartChar: IJ
Encoding: 306 306 410
Width: 922
VWidth: 1947
Flags: W
LayerCount: 2
Back
SplineSet
-70 0 m 5
 230 1425 l 5
 1073 1425 l 5
 808 176 l 5
 486 166 l 5
 449 0 l 5
 -70 0 l 5
EndSplineSet
Fore
SplineSet
387 337 m 9
 475 337 l 18
 565 337 628 425 665 597 c 10
 820 1325 l 25
-164 75 m 25
 618 75 l 25
100 1325 m 25
 1152 1325 l 1
441 1326 m 1
 177 75 l 9
EndSplineSet
EndChar

StartChar: Tbar
Encoding: 358 358 430
Width: 922
VWidth: 1947
Flags: W
LayerCount: 2
Back
SplineSet
268 1458 m 5
 1050 1458 l 5
 740 0 l 5
 -42 0 l 5
 268 1458 l 5
EndSplineSet
Fore
SplineSet
-7 560 m 25
 945 560 l 25
306 -207 m 25
 631 1325 l 25
110 1325 m 25
 1142 1325 l 25
EndSplineSet
EndChar

StartChar: tbar
Encoding: 359 359 431
Width: 922
VWidth: 1947
Flags: W
LayerCount: 2
Back
SplineSet
282 1425 m 5
 931 1425 l 5
 785 737 l 5
 887 737 l 5
 808 366 l 5
 884 348 l 5
 792 -84 l 5
 -39 -84 l 5
 282 1425 l 5
EndSplineSet
Fore
SplineSet
-7 560 m 25
 945 560 l 25
17 933 m 25
 947 933 l 25
672 215 m 17
 667 193 657 171 643 150 c 1
 600 87 525 50 457 50 c 10
 439 50 l 18
 360 50 290 105 290 182 c 0
 290 193 292 205 294 216 c 2
 570 1506 l 9
EndSplineSet
EndChar

StartChar: A
Encoding: 65 65 461
Width: 922
VWidth: 1708
Flags: MW
LayerCount: 2
Back
SplineSet
-112 0 m 5
 191 1425 l 5
 1113 1425 l 5
 810 0 l 5
 -112 0 l 5
EndSplineSet
Fore
SplineSet
191 324 m 25
 645 324 l 25
14 -88 m 25
 637 1355 l 25
 652 -102 l 25
EndSplineSet
EndChar

StartChar: Lambda
Encoding: 923 923 462
Width: 922
VWidth: 1708
Flags: MW
LayerCount: 2
Back
SplineSet
-112 0 m 5
 191 1425 l 5
 1113 1425 l 5
 810 0 l 5
 -112 0 l 5
EndSplineSet
Fore
SplineSet
-15 -150 m 25
 637 1355 l 25
 654 -189 l 25
EndSplineSet
EndChar

StartChar: Delta
Encoding: 916 916 463
Width: 922
VWidth: 1708
Flags: MW
LayerCount: 2
Back
SplineSet
-112 0 m 5
 191 1425 l 5
 1113 1425 l 5
 810 0 l 5
 -112 0 l 5
EndSplineSet
Fore
SplineSet
646 75 m 9
 637 1355 l 17
 87 75 l 1
 646 75 l 9
EndSplineSet
EndChar

StartChar: Theta
Encoding: 920 920 464
Width: 922
VWidth: 1947
Flags: MW
LayerCount: 2
Fore
SplineSet
637 1350 m 2
 804 1350 872 1094 804 781 c 2
 775 645 l 2
 697 285 544 50 369 50 c 2
 353 50 l 2
 175 50 125 301 206 683 c 2
 227 779 l 2
 296 1082 444 1350 621 1350 c 2
 637 1350 l 2
377 699 m 17
 471 699 524 699 619 699 c 9
EndSplineSet
EndChar

StartChar: Xi
Encoding: 926 926 465
Width: 922
VWidth: 1708
Flags: W
LayerCount: 2
Back
SplineSet
44 808 m 5
 1028 808 l 5
 1028 588 l 5
 44 588 l 5
 44 808 l 5
74 1050 m 5
 140 1497 l 5
 1182 1497 l 5
 1116 1050 l 5
 74 1050 l 5
-156 -135 m 5
 -120 336 l 5
 922 336 l 5
 886 -135 l 5
 -156 -135 l 5
EndSplineSet
Fore
SplineSet
166 447 m 25
 88 75 l 25
 646 75 l 25
 724 447 l 25
309 700 m 25
 687 700 l 25
271 944 m 25
 352 1325 l 25
 910 1325 l 25
 829 944 l 25
EndSplineSet
EndChar

StartChar: Sigma
Encoding: 931 931 468
Width: 922
VWidth: 1947
Flags: MW
LayerCount: 2
Back
SplineSet
281 1425 m 1
 1025 1425 l 1
 717 -25 l 1
 -27 -25 l 1
 281 1425 l 1
EndSplineSet
Fore
SplineSet
942 50 m 1
 52 50 l 1
 506 734 l 1
 322 1325 l 1
 1212 1325 l 1
EndSplineSet
EndChar

StartChar: Psi
Encoding: 936 936 473
Width: 922
VWidth: 1947
Flags: MW
LayerCount: 2
Back
SplineSet
-117 -24 m 5
 176 1351 l 5
 490 1351 l 5
 515 1425 l 5
 791 1425 l 5
 788 1351 l 5
 1210 1351 l 5
 917 -24 l 5
 -117 -24 l 5
EndSplineSet
Fore
SplineSet
949 1400 m 25
 803 728 l 18
 781 627 682 512 573 512 c 10
 343 512 l 18
 245 512 186 641 205 728 c 10
 351 1400 l 25
680 1554 m 25
 311 -165 l 25
EndSplineSet
EndChar

StartChar: Omega
Encoding: 937 937 474
Width: 922
VWidth: 1947
Flags: MW
LayerCount: 2
Back
SplineSet
-31 -42 m 5
 33 253 l 5
 -49 303 l 5
 202 1482 l 5
 1125 1482 l 5
 862 247 l 5
 769 226 l 5
 711 -42 l 5
 -31 -42 l 5
EndSplineSet
Fore
SplineSet
-125 75 m 1
 222 75 l 0
 274 323 l 1
 186 430 192 622 234 817 c 2
 245 872 l 2
 297 1118 399 1350 630 1350 c 2
 642 1350 l 2
 875 1350 876 1117 824 873 c 2
 812 817 l 2
 771 623 693 415 562 323 c 1
 510 75 l 1
 857 75 l 25
EndSplineSet
EndChar

StartChar: alpha
Encoding: 945 945 483
Width: 922
VWidth: 1947
Flags: MW
LayerCount: 2
Fore
SplineSet
886 1024 m 1
 533 191 l 2
 493 98 415 35 307 35 c 3
 179.956 35 102.141 197.476 169 513 c 0
 226 780 349 988 509 988 c 3
 617 988 669 923 669 832 c 2
 671 0 l 17
EndSplineSet
EndChar

StartChar: beta
Encoding: 946 946 484
Width: 922
VWidth: 2334
Flags: MW
LayerCount: 2
Back
SplineSet
-179 -318 m 5
 142 1205 l 5
 1067 1205 l 5
 745 -318 l 5
 -179 -318 l 5
EndSplineSet
Fore
SplineSet
-30 -474 m 25
 223 719 l 18
 262 898 357 974 537 974 c 10
 561 974 l 18
 726 974 808 902 783 794 c 2
 778 772 l 2
 752 655 635 549 461 549 c 2
 406 549 l 1
 494 549 l 2
 670 549 745 461 716 325 c 10
 703 259 l 18
 674 124 569 50 390 50 c 10
 352 50 l 18
 198 50 120 101 120 204 c 0
 120 222 122 240 126 259 c 10
EndSplineSet
EndChar

StartChar: gamma
Encoding: 947 947 485
Width: 922
VWidth: 2334
Flags: MW
LayerCount: 2
Back
SplineSet
106 1024 m 5
 1028 1024 l 5
 728 -386 l 5
 -194 -386 l 5
 106 1024 l 5
EndSplineSet
Fore
SplineSet
237 -528 m 25
 368 76 l 25
280 1226 m 25
 361 49 l 25
 940 1226 l 25
EndSplineSet
EndChar

StartChar: delta
Encoding: 948 948 486
Width: 922
VWidth: 1947
Flags: MW
LayerCount: 2
Back
SplineSet
319 1506 m 5
 948 1506 l 5
 871 1136 l 5
 1108 1083 l 5
 855 -99 l 5
 -138 -99 l 5
 104 1029 l 5
 222 1047 l 5
 319 1506 l 5
EndSplineSet
Fore
SplineSet
197 597 m 10
 161 427 l 18
 116 215 202 50 352 50 c 10
 370 50 l 18
 550 50 671 201 719 427 c 10
 755 597 l 18
 803 817 774 974 565 974 c 10
 547 974 l 18
 367 974 245 821 197 597 c 10
1009 1325 m 25
 353 1325 l 25
 721 918 l 25
EndSplineSet
EndChar

StartChar: epsilon
Encoding: 949 949 487
Width: 922
VWidth: 2334
Flags: W
LayerCount: 2
Back
SplineSet
-122 -38 m 5
 129 1139 l 5
 1053 1139 l 5
 956 683 l 5
 641 692 l 5
 575 372 l 5
 886 360 l 5
 802 -38 l 5
 -122 -38 l 5
EndSplineSet
Fore
SplineSet
791 900 m 1
 766 950 693 974 585 974 c 10
 547 974 l 18
 371 974 270 915 239 789 c 2
 233 764 l 2
 206 649 288 533 457 533 c 10
 749 533 l 25
 457 533 l 18
 268 533 156 403 137 317 c 10
 131 289 l 18
 98 135 138 50 352 50 c 10
 390 50 l 18
 505 50 567 66 625 124 c 1
EndSplineSet
EndChar

StartChar: zeta
Encoding: 950 950 488
Width: 922
VWidth: 2334
Flags: MW
LayerCount: 2
Back
SplineSet
183 1389 m 5
 1015 1389 l 5
 829 512 l 5
 919 512 l 5
 723 -411 l 5
 261 -411 l 5
 328 -96 l 5
 -128 -81 l 5
 183 1389 l 5
EndSplineSet
Fore
SplineSet
483 1049 m 17
 552 977 696 949 830 949 c 1
 773 889 689 834 620 786 c 2
 376 617 l 2
 269 543 164 444 146 357 c 10
 142 337 l 18
 105 166 181 50 352 50 c 10
 370 50 l 18
 544 50 619 -25 599 -118 c 2
 595 -136 l 2
 567 -269 481 -294 337 -294 c 10
 27 -294 l 25
EndSplineSet
EndChar

StartChar: eta
Encoding: 951 951 489
Width: 922
VWidth: 2334
Flags: MW
LayerCount: 2
Back
SplineSet
-113 0 m 5
 106 1024 l 5
 417 1024 l 5
 468 1223 l 5
 1071 1223 l 5
 728 -387 l 5
 267 -387 l 5
 346 0 l 5
 -113 0 l 5
EndSplineSet
Fore
SplineSet
512 -549 m 25
 781 719 l 18
 818 893 750 974 565 974 c 10
 547 974 l 18
 389 974 226 731 197 597 c 10
 31 -186 l 25
 331 1225 l 25
EndSplineSet
EndChar

StartChar: theta
Encoding: 952 952 490
Width: 922
VWidth: 1947
Flags: MW
LayerCount: 2
Fore
SplineSet
197 597 m 10
 161 427 l 18
 116 215 202 50 352 50 c 10
 370 50 l 18
 550 50 671 201 719 427 c 10
 755 597 l 18
 803 817 774 974 565 974 c 10
 547 974 l 18
 367 974 245 821 197 597 c 10
181 512 m 17
 275 512 644 512 739 512 c 9
EndSplineSet
EndChar

StartChar: lambda
Encoding: 955 955 491
Width: 922
VWidth: 2334
Flags: MW
LayerCount: 2
Back
SplineSet
-112 0 m 5
 188 1410 l 5
 1110 1410 l 5
 810 0 l 5
 -112 0 l 5
EndSplineSet
Fore
SplineSet
504 1791 m 17
 557 975 l 9
-12 -156 m 25
 557 975 l 25
 642 -162 l 25
EndSplineSet
EndChar

StartChar: xi
Encoding: 958 958 494
Width: 922
VWidth: 2334
Flags: MW
LayerCount: 2
Back
SplineSet
191 1425 m 5
 931 1425 l 5
 796 788 l 5
 698 773 l 5
 584 235 l 5
 861 235 l 5
 723 -410 l 5
 261 -410 l 5
 326 -105 l 5
 -130 -90 l 5
 191 1425 l 5
EndSplineSet
Fore
SplineSet
431 1244 m 17
 499 1151 579 1083 717 1077 c 1
 666 1044 612 1025 555 1009 c 2
 426 960 l 2
 350 939 266 901 236 776 c 2
 233 764 l 2
 208 648 288 533 457 533 c 10
 859 533 l 25
 457 533 l 18
 268 533 155 402 137 317 c 10
 134 300 l 18
 101 143 138 50 352 50 c 10
 390 50 l 18
 438 50 633 12 607 -109 c 10
 600 -141 l 18
 579 -241 425 -294 314 -294 c 10
 42 -294 l 25
EndSplineSet
EndChar

StartChar: pi
Encoding: 960 960 496
Width: 922
VWidth: 2334
Flags: MW
LayerCount: 2
Back
SplineSet
265 1350 m 5
 1007 1350 l 5
 720 0 l 5
 -22 0 l 5
 265 1350 l 5
EndSplineSet
Fore
SplineSet
78 844 m 17
 152 910 236 949 382 949 c 2
 720 949 l 2
 870 949 962 988 1026 1062 c 9
740 949 m 25
 575 168 l 18
 549 42 565 -71 640 -142 c 8
-2 -142 m 17
 85 -80 174 64 198 168 c 10
 362 949 l 25
EndSplineSet
EndChar

StartChar: rho
Encoding: 961 961 497
Width: 922
VWidth: 2334
Flags: MW
LayerCount: 2
Back
SplineSet
-193 -384 m 5
 176 1355 l 5
 1102 1355 l 5
 733 -384 l 5
 -193 -384 l 5
EndSplineSet
Fore
SplineSet
-49 -561 m 25
 179 514 l 25
719 427 m 10
 755 597 l 18
 816 881 703 974 565 974 c 10
 547 974 l 18
 367 974 245 823 197 597 c 10
 161 427 l 18
 115 209 143 50 352 50 c 10
 370 50 l 18
 550 50 671 203 719 427 c 10
EndSplineSet
EndChar

StartChar: sigmafinal
Encoding: 962 962 498
Width: 922
VWidth: 2334
Flags: MW
LayerCount: 2
Back
SplineSet
-124 -57 m 5
 157 1223 l 5
 1071 1223 l 5
 728 -387 l 5
 267 -387 l 5
 336 -57 l 5
 -124 -57 l 5
EndSplineSet
Fore
SplineSet
866 919 m 9
 829 934 l 18
 762 962 696 974 633 974 c 3
 417 974 242 806 197 597 c 10
 161 427 l 18
 116 215 202 50 352 50 c 10
 370 50 l 18
 571 50 619 -46 601 -124 c 2
 597 -142 l 2
 577 -235 489 -294 355 -294 c 10
 33 -294 l 25
EndSplineSet
EndChar

StartChar: sigma
Encoding: 963 963 499
Width: 922
VWidth: 1947
Flags: MW
LayerCount: 2
Back
SplineSet
-129 -84 m 5
 141 1184 l 5
 1002 1184 l 5
 932 851 l 5
 987 827 l 5
 792 -84 l 5
 -129 -84 l 5
EndSplineSet
Fore
SplineSet
197 597 m 10
 161 427 l 18
 116 215 202 50 352 50 c 10
 370 50 l 18
 550 50 671 201 719 427 c 10
 755 597 l 18
 803 817 774 974 565 974 c 10
 547 974 l 18
 367 974 245 821 197 597 c 10
1145 918 m 25
 723 917 l 25
EndSplineSet
EndChar

StartChar: tau
Encoding: 964 964 500
Width: 922
VWidth: 2334
Flags: MW
LayerCount: 2
Back
SplineSet
265 1350 m 5
 1007 1350 l 5
 720 0 l 5
 -22 0 l 5
 265 1350 l 5
EndSplineSet
Fore
SplineSet
78 844 m 17
 152 910 236 949 382 949 c 2
 720 949 l 2
 870 949 962 988 1026 1062 c 9
147 -142 m 17
 245 -88 356 30 386 168 c 2
 551 949 l 9
EndSplineSet
EndChar

StartChar: upsilon
Encoding: 965 965 501
Width: 922
VWidth: 1947
Flags: MW
LayerCount: 2
Back
SplineSet
-136 -111 m 5
 105 1024 l 5
 422 1024 l 5
 387 862 l 5
 603 862 l 5
 644 1063 l 5
 1034 1063 l 5
 783 -111 l 5
 -136 -111 l 5
EndSplineSet
Fore
SplineSet
328 1211 m 1
 179 513 l 2
 101 149 219 50 361 50 c 3
 565 50 683 232 742 489 c 2
 752 535 l 2
 787 703 829 973 674 973 c 2
 674 973 573 973 508 973 c 25
EndSplineSet
EndChar

StartChar: phi
Encoding: 966 966 502
Width: 922
VWidth: 1947
Flags: MW
LayerCount: 2
Back
SplineSet
-194 -387 m 5
 96 974 l 5
 412 974 l 5
 428 1047 l 5
 1047 1047 l 5
 745 -387 l 5
 -194 -387 l 5
EndSplineSet
Fore
SplineSet
229 -567 m 1
 505 734 l 2
 540 899 620 973 700 973 c 3
 843 973 839 757 803 594 c 2
 767 435 l 2
 716 206 550 50 361 50 c 3
 142 50 79 276 129 513 c 2
 255 1098 l 1
EndSplineSet
EndChar

StartChar: chi
Encoding: 967 967 503
Width: 922
VWidth: 2062
Flags: MW
LayerCount: 2
Back
SplineSet
105 1023 m 5
 1027 1023 l 5
 728 -387 l 5
 -194 -387 l 5
 105 1023 l 5
EndSplineSet
Fore
SplineSet
1003 1328 m 25
 -169 -690 l 17
71 1229 m 0
 234 945 l 2
 301 837 349 709 377 552 c 2
 461 111 l 2
 488 -45 525 -202 588 -309 c 2
 727 -543 l 8
EndSplineSet
EndChar

StartChar: psi
Encoding: 968 968 504
Width: 922
VWidth: 1947
Flags: MW
LayerCount: 2
Back
SplineSet
-194 -387 m 5
 95 974 l 5
 412 974 l 5
 428 1047 l 5
 760 1047 l 5
 745 974 l 5
 1032 974 l 5
 745 -387 l 5
 -194 -387 l 5
EndSplineSet
Fore
SplineSet
241 -510 m 1
 616 1253 l 17
929 1181 m 0
 787 513 l 2
 737 276 571 50 361 50 c 3
 178 50 67 217 129 513 c 2
 271 1184 l 1
EndSplineSet
EndChar

StartChar: omega
Encoding: 969 969 505
Width: 922
VWidth: 2334
Flags: MW
LayerCount: 2
Back
SplineSet
-136 -114 m 5
 106 1024 l 5
 1028 1024 l 5
 786 -114 l 5
 -136 -114 l 5
EndSplineSet
Fore
SplineSet
376 1128 m 0
 274 951 l 2
 238 891 202 807 186 734 c 10
 101 336 l 18
 59 138 121 50 188 50 c 10
 198 50 l 18
 296 50 368 84 396 215 c 10
 505 732 l 25
 396 215 l 18
 369 89 433 50 520 50 c 10
 530 50 l 18
 628 50 711 203 740 337 c 10
 824 734 l 18
 840 806 844 882 828 957 c 2
 804 1104 l 0
EndSplineSet
EndChar

StartChar: dieresiscmb
Encoding: 776 776 508
Width: 922
VWidth: 1947
Flags: MW
LayerCount: 2
Fore
SplineSet
549 1386 m 0
 549 1332 506 1285 453 1285 c 0
 401 1285 356 1330 356 1386 c 0
 356 1446 404 1483 452 1483 c 0
 507 1483 549 1438 549 1386 c 0
925 1386 m 0
 925 1327 878 1285 830 1285 c 0
 779 1285 734 1331 734 1386 c 0
 734 1442 779 1483 830 1483 c 0
 877 1483 925 1446 925 1386 c 0
EndSplineSet
EndChar

StartChar: Djecyrillic
Encoding: 1026 1026 512
Width: 922
VWidth: 2334
Flags: MW
LayerCount: 2
Back
SplineSet
-42 0 m 5
 268 1446 l 5
 938 1446 l 5
 883 1184 l 5
 1061 1178 l 5
 785 -120 l 5
 427 -120 l 5
 450 0 l 5
 -42 0 l 5
EndSplineSet
Fore
SplineSet
513 75 m 25
 531 75 l 18
 646 75 706 226 729 336 c 2
 811 719 l 2
 840 855 782 904 681 904 c 10
 663 904 l 18
 587 904 405 731 339 425 c 10
 216 -153 l 25
 532 1325 l 25
58 1325 m 25
 1062 1325 l 25
EndSplineSet
EndChar

StartChar: Ljecyrillic
Encoding: 1033 1033 513
Width: 922
VWidth: 1947
Flags: MW
LayerCount: 2
Back
SplineSet
191 1425 m 5
 1113 1425 l 5
 789 -100 l 5
 163 -100 l 5
 184 0 l 5
 -112 0 l 5
 191 1425 l 5
EndSplineSet
Fore
SplineSet
-22 -126 m 25
 338 1075 l 18
 370 1183 461 1325 503 1325 c 10
 642 1325 l 1
 378 75 l 1
 446 75 l 2
 635 75 732 158 770 337 c 2
 803 495 l 2
 847 699 747 797 598 797 c 2
 530 797 l 25
EndSplineSet
EndChar

StartChar: Njecyrillic
Encoding: 1034 1034 514
Width: 922
VWidth: 1947
Flags: MW
LayerCount: 2
Back
SplineSet
186 1400 m 5
 1108 1400 l 5
 789 -100 l 5
 163 -100 l 5
 184 0 l 5
 -112 0 l 5
 186 1400 l 5
EndSplineSet
Fore
SplineSet
348 1542 m 25
 -24 -186 l 25
190 797 m 25
 598 797 l 2
 747 797 847 699 803 495 c 2
 770 337 l 2
 732 158 635 75 446 75 c 2
 378 75 l 1
 687 1542 l 1
EndSplineSet
EndChar

StartChar: Tshecyrillic
Encoding: 1035 1035 515
Width: 922
VWidth: 1947
Flags: MW
LayerCount: 2
Back
SplineSet
270 1446 m 5
 942 1446 l 5
 885 1184 l 5
 1062 1184 l 5
 809 0 l 5
 -40 0 l 5
 270 1446 l 5
EndSplineSet
Fore
SplineSet
621 -177 m 25
 811 719 l 18
 840 855 782 904 681 904 c 10
 663 904 l 18
 587 904 411 755 339 417 c 10
 214 -177 l 25
 532 1325 l 25
90 1325 m 17
 1032 1325 l 9
EndSplineSet
EndChar

StartChar: Dzhecyrillic
Encoding: 1039 1039 516
Width: 922
VWidth: 2334
Flags: MW
LayerCount: 2
Back
SplineSet
-193 -384 m 5
 187 1401 l 5
 1106 1401 l 5
 723 -384 l 5
 -193 -384 l 5
EndSplineSet
Fore
SplineSet
367 75 m 25
 239 -519 l 25
396 1533 m 25
 88 75 l 25
 646 75 l 17
 954 1533 l 9
EndSplineSet
EndChar

StartChar: djecyrillic
Encoding: 1106 1106 517
Width: 922
VWidth: 2334
Flags: MW
LayerCount: 2
Back
SplineSet
-201 -410 m 5
 -141 -140 l 5
 180 -144 l 5
 238 0 l 5
 -81 0 l 5
 221 1426 l 5
 794 1426 l 5
 705 1001 l 5
 1135 1001 l 5
 837 -410 l 5
 -201 -410 l 5
EndSplineSet
Fore
SplineSet
-60 1185 m 25
 845 1185 l 25
170 -228 m 1
 195 -271 244 -294 301 -294 c 10
 353 -294 l 18
 487 -294 592 -170 622 -28 c 10
 746 553 l 18
 784 729 800 855 590 855 c 10
 572 855 l 18
 414 855 247 598 218 463 c 10
 102 -84 l 25
 465 1620 l 25
EndSplineSet
EndChar

StartChar: dzhecyrillic
Encoding: 1119 1119 519
Width: 922
VWidth: 1947
Flags: MW
LayerCount: 2
Back
SplineSet
105 1024 m 5
 1027 1024 l 5
 728 -387 l 5
 -194 -387 l 5
 105 1024 l 5
EndSplineSet
Fore
SplineSet
247 -480 m 25
 367 76 l 25
327 1205 m 25
 88 76 l 25
 646 76 l 25
 884 1205 l 25
EndSplineSet
EndChar

StartChar: ljecyrillic
Encoding: 1113 1113 520
Width: 922
VWidth: 1947
Flags: W
LayerCount: 2
Back
SplineSet
111 1048 m 5x40
 1033 1048 l 5x40
 810 0 l 5
 -112 0 l 5x80
 111 1048 l 5x40
EndSplineSet
Fore
SplineSet
-10 -99 m 16
 184 615 l 2
 224 763 283 900 415 948 c 9
 553 948 l 25
 368 75 l 25
 506 75 l 18
 601 75 695 124 724 259 c 2
 740 337 l 18
 768 464 707 561 607 561 c 10
 469 561 l 25
EndSplineSet
EndChar

StartChar: njecyrillic
Encoding: 1114 1114 521
Width: 922
VWidth: 1947
Flags: MW
LayerCount: 2
Back
SplineSet
105 1024 m 5
 1027 1024 l 5
 810 0 l 5
 -112 0 l 5
 105 1024 l 5
EndSplineSet
Fore
SplineSet
276 1160 m 25
 0 -153 l 25
596 1160 m 25
 368 75 l 25
 506 75 l 18
 601 75 695 124 724 259 c 2
 740 337 l 18
 771 489 686 561 607 561 c 10
 469 561 l 25
 149 561 l 25
EndSplineSet
EndChar

StartChar: apostrophereverse
Encoding: 8219 8219 523
Width: 922
VWidth: 1708
Flags: W
HStem: 1366 56.917<728.278 806.795>
VStem: 490.966 194.25<1034.19 1148.68>
LayerCount: 2
Fore
SplineSet
537.003 1349 m 17
 511.003 1220 489.003 1034 709.003 961 c 9
 735.003 1012 l 17
 673.003 1051 554.003 1174 673.003 1240 c 9
 537.003 1349 l 17
535.003 1329 m 0
 535.003 1277 575.003 1232 633.003 1232 c 0
 689.003 1232 730.003 1277 730.003 1329 c 0
 730.003 1380 691.003 1426 633.003 1426 c 0
 576.003 1426 535.003 1381 535.003 1329 c 0
EndSplineSet
EndChar

StartChar: arrowleft
Encoding: 8592 8592 526
Width: 922
VWidth: 1708
Flags: W
LayerCount: 2
Fore
SplineSet
922 -99 m 5
 50 -99 l 5
 50 1224 l 5
 922 1224 l 5
 922 -99 l 5
461 960 m 29
 90 600 l 29
 461 240 l 29
90 600 m 29
 872 600 l 29
EndSplineSet
EndChar

StartChar: arrowright
Encoding: 8594 8594 527
Width: 922
VWidth: 1708
Flags: MW
LayerCount: 2
Fore
SplineSet
0 -99 m 1
 0 1224 l 1
 872 1224 l 1
 872 -99 l 1
 0 -99 l 1
461 960 m 25
 832 600 l 25
 461 240 l 25
832 600 m 25
 50 600 l 25
EndSplineSet
EndChar

StartChar: lthorizform
Encoding: 9472 9472 528
Width: 922
Flags: W
LayerCount: 2
Fore
SplineSet
922 523 m 1
 -0 523 l 1
EndSplineSet
EndChar

StartChar: ltvertform
Encoding: 9474 9474 529
Width: 922
Flags: W
LayerCount: 2
Fore
SplineSet
461 1775 m 1
 461 -615 l 1
EndSplineSet
EndChar

StartChar: rightanglenw
Encoding: 9484 9484 530
Width: 922
Flags: W
LayerCount: 2
Fore
SplineSet
461 -615 m 1
 461 523 l 1
 922 523 l 1
EndSplineSet
EndChar

StartChar: rightanglene
Encoding: 9488 9488 531
Width: 922
Flags: W
LayerCount: 2
Fore
SplineSet
461 -615 m 1
 461 523 l 1
 -0 523 l 1
EndSplineSet
EndChar

StartChar: rightanglesw
Encoding: 9492 9492 532
Width: 922
Flags: W
LayerCount: 2
Fore
SplineSet
461 1775 m 5
 461 523 l 1
 922 523 l 1
EndSplineSet
EndChar

StartChar: rightanglese
Encoding: 9496 9496 533
Width: 922
Flags: W
LayerCount: 2
Fore
SplineSet
461 1775 m 5
 461 523 l 1
 -0 523 l 1
EndSplineSet
EndChar

StartChar: ltvertrightform
Encoding: 9500 9500 534
Width: 922
Flags: W
LayerCount: 2
Fore
SplineSet
461 1775 m 5
 461 -615 l 1
922 523 m 1
 461 523 l 1
EndSplineSet
EndChar

StartChar: ltvertleftform
Encoding: 9508 9508 535
Width: 922
Flags: W
LayerCount: 2
Fore
SplineSet
461 1775 m 5
 461 -615 l 1
461 523 m 1
 -0 523 l 1
EndSplineSet
EndChar

StartChar: ltdnhorizform
Encoding: 9516 9516 536
Width: 922
Flags: W
LayerCount: 2
Fore
SplineSet
461 523 m 1
 461 -615 l 1
922 523 m 1
 -0 523 l 1
EndSplineSet
EndChar

StartChar: ltuphorizform
Encoding: 9524 9524 537
Width: 922
Flags: W
LayerCount: 2
Fore
SplineSet
461 1775 m 5
 461 523 l 1
922 523 m 1
 -0 523 l 1
EndSplineSet
EndChar

StartChar: ltverthorizform
Encoding: 9532 9532 538
Width: 922
Flags: W
LayerCount: 2
Fore
SplineSet
461 1775 m 5
 461 -615 l 1
922 523 m 1
 -0 523 l 1
EndSplineSet
EndChar

StartChar: horizdblbar
Encoding: 9552 9552 539
Width: 922
Flags: W
LayerCount: 2
Fore
SplineSet
922 363 m 1
 0 363 l 1
922 683 m 1
 0 683 l 1
EndSplineSet
EndChar

StartChar: vertdblbar
Encoding: 9553 9553 540
Width: 922
Flags: W
LayerCount: 2
Fore
SplineSet
301 1775 m 5
 301 -615 l 1
621 1775 m 5
 621 -615 l 1
EndSplineSet
EndChar

StartChar: dnrtdblform
Encoding: 9554 9554 541
Width: 922
Flags: W
LayerCount: 2
Fore
SplineSet
922 363 m 1
 461 363 l 1
922 683 m 1
 461 683 l 1
 461 -615 l 1
EndSplineSet
EndChar

StartChar: dndblrtform
Encoding: 9555 9555 542
Width: 922
Flags: W
LayerCount: 2
Fore
SplineSet
301 -615 m 1
 301 523 l 1
 922 523 l 1
621 523 m 1
 621 -615 l 1
EndSplineSet
EndChar

StartChar: dbldnrtform
Encoding: 9556 9556 543
Width: 922
Flags: W
LayerCount: 2
Fore
SplineSet
922 363 m 1
 621 363 l 1
 621 -615 l 1
922 683 m 1
 301 683 l 1
 301 -615 l 1
EndSplineSet
EndChar

StartChar: dnleftdblform
Encoding: 9557 9557 544
Width: 922
Flags: W
LayerCount: 2
Fore
SplineSet
461 363 m 1
 0 363 l 1
0 683 m 1
 461 683 l 1
 461 -615 l 1
EndSplineSet
EndChar

StartChar: dndblleftform
Encoding: 9558 9558 545
Width: 922
Flags: W
LayerCount: 2
Fore
SplineSet
301 523 m 1
 301 -615 l 1
621 -615 m 1
 621 523 l 1
 -0 523 l 1
EndSplineSet
EndChar

StartChar: dbldnleftform
Encoding: 9559 9559 546
Width: 922
Flags: W
LayerCount: 2
Fore
SplineSet
0 363 m 1
 301 363 l 1
 301 -615 l 1
0 683 m 1
 621 683 l 1
 621 -615 l 1
EndSplineSet
EndChar

StartChar: uprtdblform
Encoding: 9560 9560 547
Width: 922
Flags: W
LayerCount: 2
Fore
SplineSet
922 363 m 1
 461 363 l 1
 461 1775 l 5
922 683 m 1
 461 683 l 1
EndSplineSet
EndChar

StartChar: updblrtform
Encoding: 9561 9561 548
Width: 922
Flags: W
LayerCount: 2
Fore
SplineSet
301 1775 m 5
 301 523 l 1
 922 523 l 1
621 1775 m 5
 621 523 l 1
EndSplineSet
EndChar

StartChar: dbluprtform
Encoding: 9562 9562 549
Width: 922
Flags: W
LayerCount: 2
Fore
SplineSet
922 363 m 1
 301 363 l 1
 301 1775 l 5
922 683 m 1
 621 683 l 1
 621 1775 l 5
EndSplineSet
EndChar

StartChar: upleftdblform
Encoding: 9563 9563 550
Width: 922
Flags: W
LayerCount: 2
Fore
SplineSet
0 363 m 1
 461 363 l 1
 461 1775 l 5
461 683 m 1
 0 683 l 1
EndSplineSet
EndChar

StartChar: updblleftform
Encoding: 9564 9564 551
Width: 922
Flags: W
LayerCount: 2
Fore
SplineSet
301 1775 m 5
 301 523 l 1
621 1775 m 5
 621 523 l 1
 -0 523 l 1
EndSplineSet
EndChar

StartChar: dblupleftform
Encoding: 9565 9565 552
Width: 922
Flags: W
LayerCount: 2
Fore
SplineSet
0 363 m 1
 621 363 l 1
 621 1775 l 5
0 683 m 1
 301 683 l 1
 301 1775 l 5
EndSplineSet
EndChar

StartChar: vertrtdblform
Encoding: 9566 9566 553
Width: 922
Flags: W
LayerCount: 2
Fore
SplineSet
922 363 m 1
 461 363 l 1
922 683 m 1
 461 683 l 1
461 1775 m 5
 461 -615 l 1
EndSplineSet
EndChar

StartChar: vertdblrtform
Encoding: 9567 9567 554
Width: 922
Flags: W
LayerCount: 2
Fore
SplineSet
301 1775 m 1
 301 -615 l 1
621 1775 m 1
 621 -615 l 1
922 523 m 1
 621 523 l 1
EndSplineSet
EndChar

StartChar: dblvertrtform
Encoding: 9568 9568 555
Width: 922
Flags: W
LayerCount: 2
Fore
SplineSet
922 363 m 1
 621 363 l 1
 621 -615 l 1
922 683 m 1
 621 683 l 1
 621 1775 l 5
301 1775 m 5
 301 -615 l 1
EndSplineSet
EndChar

StartChar: vertleftdblform
Encoding: 9569 9569 556
Width: 922
Flags: W
LayerCount: 2
Fore
SplineSet
461 363 m 1
 0 363 l 1
461 683 m 1
 0 683 l 1
461 1775 m 5
 461 -615 l 1
EndSplineSet
EndChar

StartChar: vertdblleftform
Encoding: 9570 9570 557
Width: 922
Flags: W
LayerCount: 2
Fore
SplineSet
301 1775 m 5
 301 -615 l 1
621 1775 m 5
 621 -615 l 1
301 523 m 1
 -0 523 l 1
EndSplineSet
EndChar

StartChar: dblvertleftform
Encoding: 9571 9571 558
Width: 922
Flags: W
LayerCount: 2
Fore
SplineSet
0 363 m 1
 301 363 l 1
 301 -615 l 1
0 683 m 1
 301 683 l 1
 301 1775 l 5
621 1775 m 5
 621 -615 l 1
EndSplineSet
EndChar

StartChar: dnhorizdblform
Encoding: 9572 9572 559
Width: 922
Flags: W
LayerCount: 2
Fore
SplineSet
922 363 m 1
 0 363 l 1
922 683 m 1
 0 683 l 1
461 363 m 1
 461 -615 l 1
EndSplineSet
EndChar

StartChar: dndblhorizform
Encoding: 9573 9573 560
Width: 922
Flags: W
LayerCount: 2
Fore
SplineSet
301 523 m 1
 301 -615 l 1
621 523 m 1
 621 -615 l 1
922 523 m 1
 0 523 l 1
EndSplineSet
EndChar

StartChar: dbldnhorizform
Encoding: 9574 9574 561
Width: 922
Flags: W
LayerCount: 2
Fore
SplineSet
922 363 m 1
 621 363 l 1
 621 -615 l 1
0 363 m 1
 301 363 l 1
 301 -615 l 1
922 683 m 1
 0 683 l 1
EndSplineSet
EndChar

StartChar: uphorizdblform
Encoding: 9575 9575 562
Width: 922
Flags: W
LayerCount: 2
Fore
SplineSet
922 363 m 1
 0 363 l 1
922 683 m 1
 0 683 l 1
461 1775 m 5
 461 683 l 1
EndSplineSet
EndChar

StartChar: updblhorizform
Encoding: 9576 9576 563
Width: 922
Flags: W
LayerCount: 2
Fore
SplineSet
301 1775 m 5
 301 523 l 1
621 1775 m 5
 621 523 l 1
922 523 m 1
 -0 523 l 1
EndSplineSet
EndChar

StartChar: dbluphorizform
Encoding: 9577 9577 564
Width: 922
Flags: W
LayerCount: 2
Fore
SplineSet
922 363 m 1
 0 363 l 1
922 683 m 1
 621 683 l 1
 621 1775 l 5
0 683 m 1
 301 683 l 1
 301 1775 l 5
EndSplineSet
EndChar

StartChar: verthorizdblform
Encoding: 9578 9578 565
Width: 922
Flags: W
LayerCount: 2
Fore
SplineSet
922 363 m 1
 0 363 l 1
922 715 m 1
 0 715 l 1
461 1775 m 1
 461 715 l 1
461 363 m 1
 461 -615 l 1
EndSplineSet
EndChar

StartChar: vertdblhorizform
Encoding: 9579 9579 566
Width: 922
Flags: W
LayerCount: 2
Fore
SplineSet
301 1775 m 1
 301 -615 l 1
621 1775 m 1
 621 -615 l 1
922 523 m 1
 621 523 l 1
301 523 m 1
 -0 523 l 1
EndSplineSet
EndChar

StartChar: dblverthorizform
Encoding: 9580 9580 567
Width: 922
Flags: W
LayerCount: 2
Fore
SplineSet
922 363 m 1
 621 363 l 1
 621 -615 l 1
0 363 m 1
 301 363 l 1
 301 -615 l 1
922 683 m 1
 621 683 l 1
 621 1775 l 5
0 683 m 1
 301 683 l 1
 301 1775 l 5
EndSplineSet
EndChar

StartChar: upblock
Encoding: 9600 9600 568
Width: 922
Flags: W
VStem: -0 922<523 1775>
LayerCount: 2
Fore
SplineSet
922 523 m 1
 -0 523 l 1
 0 1775 l 5
 922 1775 l 5
 922 523 l 1
EndSplineSet
EndChar

StartChar: dnblock
Encoding: 9604 9604 569
Width: 922
Flags: W
HStem: -615 1138<0 922>
VStem: -0 922<-615 523>
LayerCount: 2
Fore
SplineSet
922 -615 m 1
 -0 -615 l 1
 -0 523 l 1
 922 523 l 1
 922 -615 l 1
EndSplineSet
Validated: 3073
EndChar

StartChar: block
Encoding: 9608 9608 570
Width: 922
Flags: W
VStem: -0 922<-615 1775>
LayerCount: 2
Fore
SplineSet
-0 -615 m 1
 0 1775 l 5
 922 1775 l 5
 922 -615 l 1
 -0 -615 l 1
EndSplineSet
EndChar

StartChar: lfblock
Encoding: 9612 9612 571
Width: 922
Flags: W
VStem: -0 461<-615 1775>
LayerCount: 2
Fore
SplineSet
-0 -615 m 1
 0 1775 l 5
 461 1775 l 5
 461 -615 l 1
 -0 -615 l 1
EndSplineSet
EndChar

StartChar: rtblock
Encoding: 9616 9616 572
Width: 922
Flags: W
VStem: 461 461<-615 1775>
LayerCount: 2
Fore
SplineSet
461 -615 m 1
 461 1775 l 5
 922 1775 l 5
 922 -615 l 1
 461 -615 l 1
EndSplineSet
EndChar

StartChar: shadelight
Encoding: 9617 9617 573
Width: 922
Flags: W
HStem: -514 100<153 230 461 540 769 846> -315 100<0 77 307 385 616 693> -115 99<153 230 461 540 769 846> 83 100<0 77 307 385 616 693> 283 99<153 230 461 540 769 846> 482 99<0 77 307 385 616 693> 681 100<153 230 461 540 769 846> 881 99<0 77 307 385 616 693> 1080 99<153 230 461 540 769 846> 1278 100<0 77 307 385 616 693> 1477 100<153 230 461 540 769 846> 1677 98<0 77 307 385 616 693>
VStem: 0 77<-315 -215 83 183 482 581 881 980 1278 1378 1677 1775> 153 77<-514 -414 -115 -16 283 382 681 781 1080 1179 1477 1577> 307 78<-315 -215 83 183 482 581 881 980 1278 1378 1677 1775> 461 79<-514 -414 -115 -16 283 382 681 781 1080 1179 1477 1577> 616 77<-315 -215 83 183 482 581 881 980 1278 1378 1677 1775> 769 77<-514 -414 -115 -16 283 382 681 781 1080 1179 1477 1577>
LayerCount: 2
Fore
SplineSet
0 1378 m 1
 77 1378 l 1
 77 1278 l 1
 0 1278 l 1
 0 1378 l 1
307 1378 m 1
 385 1378 l 1
 385 1278 l 1
 307 1278 l 1
 307 1378 l 1
616 1378 m 1
 693 1378 l 1
 693 1278 l 1
 616 1278 l 1
 616 1378 l 1
153 1179 m 1
 230 1179 l 1
 230 1080 l 1
 153 1080 l 1
 153 1179 l 1
461 1179 m 1
 540 1179 l 1
 540 1080 l 1
 461 1080 l 1
 461 1179 l 1
769 1179 m 1
 846 1179 l 1
 846 1080 l 1
 769 1080 l 1
 769 1179 l 1
616 980 m 1
 693 980 l 1
 693 881 l 1
 616 881 l 1
 616 980 l 1
307 980 m 1
 385 980 l 1
 385 881 l 1
 307 881 l 1
 307 980 l 1
0 980 m 1
 77 980 l 1
 77 881 l 1
 0 881 l 1
 0 980 l 1
769 781 m 1
 846 781 l 1
 846 681 l 1
 769 681 l 1
 769 781 l 1
461 781 m 1
 540 781 l 1
 540 681 l 1
 461 681 l 1
 461 781 l 1
153 781 m 1
 230 781 l 1
 230 681 l 1
 153 681 l 1
 153 781 l 1
0 581 m 1
 77 581 l 1
 77 482 l 1
 0 482 l 1
 0 581 l 1
307 581 m 1
 385 581 l 1
 385 482 l 1
 307 482 l 1
 307 581 l 1
616 581 m 1
 693 581 l 1
 693 482 l 1
 616 482 l 1
 616 581 l 1
769 382 m 1
 846 382 l 1
 846 283 l 1
 769 283 l 1
 769 382 l 1
461 382 m 1
 540 382 l 1
 540 283 l 1
 461 283 l 1
 461 382 l 1
153 382 m 1
 230 382 l 1
 230 283 l 1
 153 283 l 1
 153 382 l 1
0 183 m 1
 77 183 l 1
 77 83 l 1
 0 83 l 1
 0 183 l 1
307 183 m 1
 385 183 l 1
 385 83 l 1
 307 83 l 1
 307 183 l 1
616 183 m 1
 693 183 l 1
 693 83 l 1
 616 83 l 1
 616 183 l 1
153 -16 m 1
 230 -16 l 1
 230 -115 l 1
 153 -115 l 1
 153 -16 l 1
461 -16 m 1
 540 -16 l 1
 540 -115 l 1
 461 -115 l 1
 461 -16 l 1
769 -16 m 1
 846 -16 l 1
 846 -115 l 1
 769 -115 l 1
 769 -16 l 1
616 -215 m 1
 693 -215 l 1
 693 -315 l 1
 616 -315 l 1
 616 -215 l 1
307 -215 m 1
 385 -215 l 1
 385 -315 l 1
 307 -315 l 1
 307 -215 l 1
0 -215 m 1
 77 -215 l 1
 77 -315 l 1
 0 -315 l 1
 0 -215 l 1
153 -414 m 1
 230 -414 l 1
 230 -514 l 1
 153 -514 l 1
 153 -414 l 1
461 -414 m 1
 540 -414 l 1
 540 -514 l 1
 461 -514 l 1
 461 -414 l 1
769 -414 m 1
 846 -414 l 1
 846 -514 l 1
 769 -514 l 1
 769 -414 l 1
153 1577 m 1
 230 1577 l 1
 230 1477 l 1
 153 1477 l 1
 153 1577 l 1
461 1577 m 1
 540 1577 l 1
 540 1477 l 1
 461 1477 l 1
 461 1577 l 1
769 1577 m 1
 846 1577 l 1
 846 1477 l 1
 769 1477 l 1
 769 1577 l 1
0 1775 m 1
 77 1775 l 1
 77 1677 l 1
 0 1677 l 1
 0 1775 l 1
307 1775 m 1
 385 1775 l 1
 385 1677 l 1
 307 1677 l 1
 307 1775 l 1
616 1775 m 1
 693 1775 l 1
 693 1677 l 1
 616 1677 l 1
 616 1775 l 1
EndSplineSet
EndChar

StartChar: shademedium
Encoding: 9618 9618 574
Width: 922
Flags: W
HStem: -514 100<0 77 153 230 307 384 461 539 616 692 769 846> -315 100<77 153 230 307 384 461 539 616 692 769 846 922> -115 99<0 77 153 230 307 384 461 539 616 692 769 846> 83 100<77 153 230 307 384 461 539 616 692 769 846 922> 283 99<0 77 153 230 307 384 461 539 616 692 769 846> 482 99<77 153 230 307 384 461 539 616 692 769 846 922> 681 100<0 77 153 230 307 384 461 539 616 692 769 846> 881 99<77 153 230 307 384 461 539 616 692 769 846 922> 1080 99<0 77 153 230 307 384 461 539 616 692 769 846> 1278 100<77 153 230 307 384 461 539 616 692 769 846 922> 1477 100<0 77 153 230 307 384 461 539 616 692 769 846> 1677 98<77 153 230 307 384 461 539 616 692 769 846 922>
VStem: 0 77<-514 -414 -115 -16 283 382 681 781 1080 1179 1477 1577> 77 76<-315 -215 83 183 482 581 881 980 1278 1378 1677 1775> 153 77<-514 -414 -115 -16 283 382 681 781 1080 1179 1477 1577> 230 77<-315 -215 83 183 482 581 881 980 1278 1378 1677 1775> 307 77<-514 -414 -115 -16 283 382 681 781 1080 1179 1477 1577> 384 77<-315 -215 83 183 482 581 881 980 1278 1378 1677 1775> 461 78<-514 -414 -115 -16 283 382 681 781 1080 1179 1477 1577> 539 77<-315 -215 83 183 482 581 881 980 1278 1378 1677 1775> 616 76<-514 -414 -115 -16 283 382 681 781 1080 1179 1477 1577> 692 77<-315 -215 83 183 482 581 881 980 1278 1378 1677 1775> 769 77<-514 -414 -115 -16 283 382 681 781 1080 1179 1477 1577> 846 76<-315 -215 83 183 482 581 881 980 1278 1378 1677 1775>
LayerCount: 2
Fore
SplineSet
77 1378 m 1
 153 1378 l 1
 153 1278 l 1
 77 1278 l 1
 77 1378 l 1
230 1378 m 1
 307 1378 l 1
 307 1278 l 1
 230 1278 l 1
 230 1378 l 1
384 1378 m 1
 461 1378 l 1
 461 1278 l 1
 384 1278 l 1
 384 1378 l 1
539 1378 m 1
 616 1378 l 1
 616 1278 l 1
 539 1278 l 1
 539 1378 l 1
692 1378 m 1
 769 1378 l 1
 769 1278 l 1
 692 1278 l 1
 692 1378 l 1
846 1378 m 1
 922 1378 l 1
 922 1278 l 1
 846 1278 l 1
 846 1378 l 1
0 1179 m 1
 77 1179 l 1
 77 1080 l 1
 0 1080 l 1
 0 1179 l 1
153 1179 m 1
 230 1179 l 1
 230 1080 l 1
 153 1080 l 1
 153 1179 l 1
307 1179 m 1
 384 1179 l 1
 384 1080 l 1
 307 1080 l 1
 307 1179 l 1
461 1179 m 1
 539 1179 l 1
 539 1080 l 1
 461 1080 l 1
 461 1179 l 1
616 1179 m 1
 692 1179 l 1
 692 1080 l 1
 616 1080 l 1
 616 1179 l 1
769 1179 m 1
 846 1179 l 1
 846 1080 l 1
 769 1080 l 1
 769 1179 l 1
77 980 m 1
 153 980 l 1
 153 881 l 1
 77 881 l 1
 77 980 l 1
230 980 m 1
 307 980 l 1
 307 881 l 1
 230 881 l 1
 230 980 l 1
384 980 m 1
 461 980 l 1
 461 881 l 1
 384 881 l 1
 384 980 l 1
539 980 m 1
 616 980 l 1
 616 881 l 1
 539 881 l 1
 539 980 l 1
692 980 m 1
 769 980 l 1
 769 881 l 1
 692 881 l 1
 692 980 l 1
846 980 m 1
 922 980 l 1
 922 881 l 1
 846 881 l 1
 846 980 l 1
0 781 m 1
 77 781 l 1
 77 681 l 1
 0 681 l 1
 0 781 l 1
153 781 m 1
 230 781 l 1
 230 681 l 1
 153 681 l 1
 153 781 l 1
307 781 m 1
 384 781 l 1
 384 681 l 1
 307 681 l 1
 307 781 l 1
461 781 m 1
 539 781 l 1
 539 681 l 1
 461 681 l 1
 461 781 l 1
616 781 m 1
 692 781 l 1
 692 681 l 1
 616 681 l 1
 616 781 l 1
769 781 m 1
 846 781 l 1
 846 681 l 1
 769 681 l 1
 769 781 l 1
77 581 m 1
 153 581 l 1
 153 482 l 1
 77 482 l 1
 77 581 l 1
230 581 m 1
 307 581 l 1
 307 482 l 1
 230 482 l 1
 230 581 l 1
384 581 m 1
 461 581 l 1
 461 482 l 1
 384 482 l 1
 384 581 l 1
539 581 m 1
 616 581 l 1
 616 482 l 1
 539 482 l 1
 539 581 l 1
692 581 m 1
 769 581 l 1
 769 482 l 1
 692 482 l 1
 692 581 l 1
846 581 m 1
 922 581 l 1
 922 482 l 1
 846 482 l 1
 846 581 l 1
0 382 m 1
 77 382 l 1
 77 283 l 1
 0 283 l 1
 0 382 l 1
307 382 m 1
 384 382 l 1
 384 283 l 1
 307 283 l 1
 307 382 l 1
461 382 m 1
 539 382 l 1
 539 283 l 1
 461 283 l 1
 461 382 l 1
616 382 m 1
 692 382 l 1
 692 283 l 1
 616 283 l 1
 616 382 l 1
769 382 m 1
 846 382 l 1
 846 283 l 1
 769 283 l 1
 769 382 l 1
153 382 m 1
 230 382 l 1
 230 283 l 1
 153 283 l 1
 153 382 l 1
846 183 m 1
 922 183 l 1
 922 83 l 1
 846 83 l 1
 846 183 l 1
692 183 m 1
 769 183 l 1
 769 83 l 1
 692 83 l 1
 692 183 l 1
539 183 m 1
 616 183 l 1
 616 83 l 1
 539 83 l 1
 539 183 l 1
384 183 m 1
 461 183 l 1
 461 83 l 1
 384 83 l 1
 384 183 l 1
230 183 m 1
 307 183 l 1
 307 83 l 1
 230 83 l 1
 230 183 l 1
77 183 m 1
 153 183 l 1
 153 83 l 1
 77 83 l 1
 77 183 l 1
0 -16 m 1
 77 -16 l 1
 77 -115 l 1
 0 -115 l 1
 0 -16 l 1
153 -16 m 1
 230 -16 l 1
 230 -115 l 1
 153 -115 l 1
 153 -16 l 1
307 -16 m 1
 384 -16 l 1
 384 -115 l 1
 307 -115 l 1
 307 -16 l 1
461 -16 m 1
 539 -16 l 1
 539 -115 l 1
 461 -115 l 1
 461 -16 l 1
616 -16 m 1
 692 -16 l 1
 692 -115 l 1
 616 -115 l 1
 616 -16 l 1
769 -16 m 1
 846 -16 l 1
 846 -115 l 1
 769 -115 l 1
 769 -16 l 1
846 -215 m 1
 922 -215 l 1
 922 -315 l 1
 846 -315 l 1
 846 -215 l 1
692 -215 m 1
 769 -215 l 1
 769 -315 l 1
 692 -315 l 1
 692 -215 l 1
539 -215 m 1
 616 -215 l 1
 616 -315 l 1
 539 -315 l 1
 539 -215 l 1
384 -215 m 1
 461 -215 l 1
 461 -315 l 1
 384 -315 l 1
 384 -215 l 1
230 -215 m 1
 307 -215 l 1
 307 -315 l 1
 230 -315 l 1
 230 -215 l 1
77 -215 m 1
 153 -215 l 1
 153 -315 l 1
 77 -315 l 1
 77 -215 l 1
0 -414 m 1
 77 -414 l 1
 77 -514 l 1
 0 -514 l 1
 0 -414 l 1
153 -414 m 1
 230 -414 l 1
 230 -514 l 1
 153 -514 l 1
 153 -414 l 1
307 -414 m 1
 384 -414 l 1
 384 -514 l 1
 307 -514 l 1
 307 -414 l 1
461 -414 m 1
 539 -414 l 1
 539 -514 l 1
 461 -514 l 1
 461 -414 l 1
616 -414 m 1
 692 -414 l 1
 692 -514 l 1
 616 -514 l 1
 616 -414 l 1
769 -414 m 1
 846 -414 l 1
 846 -514 l 1
 769 -514 l 1
 769 -414 l 1
0 1577 m 1
 77 1577 l 1
 77 1477 l 1
 0 1477 l 1
 0 1577 l 1
153 1577 m 1
 230 1577 l 1
 230 1477 l 1
 153 1477 l 1
 153 1577 l 1
307 1577 m 1
 384 1577 l 1
 384 1477 l 1
 307 1477 l 1
 307 1577 l 1
461 1577 m 1
 539 1577 l 1
 539 1477 l 1
 461 1477 l 1
 461 1577 l 1
616 1577 m 1
 692 1577 l 1
 692 1477 l 1
 616 1477 l 1
 616 1577 l 1
769 1577 m 1
 846 1577 l 1
 846 1477 l 1
 769 1477 l 1
 769 1577 l 1
77 1775 m 1
 153 1775 l 1
 153 1677 l 1
 77 1677 l 1
 77 1775 l 1
230 1775 m 1
 307 1775 l 1
 307 1677 l 1
 230 1677 l 1
 230 1775 l 1
384 1775 m 1
 461 1775 l 1
 461 1677 l 1
 384 1677 l 1
 384 1775 l 1
539 1775 m 1
 616 1775 l 1
 616 1677 l 1
 539 1677 l 1
 539 1775 l 1
692 1775 m 1
 769 1775 l 1
 769 1677 l 1
 692 1677 l 1
 692 1775 l 1
846 1775 m 1
 922 1775 l 1
 922 1677 l 1
 846 1677 l 1
 846 1775 l 1
EndSplineSet
EndChar

StartChar: shadedark
Encoding: 9619 9619 575
Width: 922
Flags: W
HStem: -615 300<0 77 153 230 307 384 461 539 616 692 769 846> -615 101<77 153 230 307 384 461 539 616 692 769 846 922> -414 299<77 153 230 307 384 461 539 616 692 769 846 922> -215 299<0 77 153 230 307 384 461 539 616 692 769 846> -16 299<77 153 230 307 384 461 539 616 692 769 846 922> 183 299<0 77 153 230 307 384 461 539 616 692 769 846> 382 299<77 153 230 307 384 461 539 616 692 769 846 922> 581 299<0 77 153 230 307 384 461 539 616 692 769 846> 781 299<77 153 230 307 384 461 539 616 692 769 846 922> 980 299<0 77 153 230 307 384 461 539 616 692 769 846> 1179 299<77 153 230 307 384 461 539 616 692 769 846 922> 1378 299<0 77 153 230 307 384 461 539 616 692 769 846> 1577 198<77 153 230 307 384 461 539 616 692 769 846 922>
VStem: 0 77<-514 -414 -115 -16 283 382 681 781 1080 1179 1478 1577> 77 76<-315 -215 84 183 482 581 881 980 1279 1378 1677 1775> 153 77<-514 -414 -115 -16 283 382 681 781 1080 1179 1478 1577> 230 77<-315 -215 84 183 482 581 880 980 1279 1378 1677 1775> 307 77<-514 -414 -115 -16 283 382 681 781 1080 1179 1478 1577> 384 77<-315 -215 84 183 482 581 880 980 1279 1378 1677 1775> 461 78<-514 -414 -115 -16 283 382 681 781 1080 1179 1478 1577> 539 77<-315 -215 84 183 482 581 880 980 1279 1378 1677 1775> 616 76<-514 -414 -115 -16 283 382 681 781 1080 1179 1478 1577> 692 77<-315 -215 84 183 482 581 880 980 1279 1378 1677 1775> 769 77<-514 -414 -115 -16 283 382 681 781 1080 1179 1478 1577> 846 76<-315 -215 84 183 482 581 880 980 1279 1378 1677 1775>
LayerCount: 2
Fore
SplineSet
922 1577 m 1x000fff80
 846 1577 l 1
 846 1478 l 1
 922 1478 l 1
 922 1179 l 1
 846 1179 l 1
 846 1080 l 1
 922 1080 l 1
 922 781 l 1
 846 781 l 1
 846 681 l 1
 922 681 l 1
 922 382 l 1
 846 382 l 1
 846 283 l 1
 922 283 l 1
 922 -16 l 1
 846 -16 l 1
 846 -115 l 1
 922 -115 l 1
 922 -414 l 1
 846 -414 l 1
 846 -514 l 1
 922 -514 l 1
 922 -615 l 1x6aafff80
 0 -615 l 1
 0 -315 l 1
 77 -315 l 1
 77 -215 l 1
 0 -215 l 1
 0 83 l 1
 77 83 l 1
 77 183 l 1
 0 183 l 1
 0 482 l 1
 77 482 l 1
 77 581 l 1
 0 581 l 1
 0 881 l 1
 77 881 l 1
 77 980 l 1
 0 980 l 1
 0 1279 l 1
 77 1279 l 1
 77 1378 l 1
 0 1378 l 1
 0 1677 l 1
 77 1677 l 1x9557ff80
 77 1775 l 1
 153 1775 l 1x000fff80
 153 1677 l 1
 230 1677 l 1x0017ff80
 230 1775 l 1
 307 1775 l 1x000fff80
 307 1677 l 1
 384 1677 l 1x0017ff80
 384 1775 l 1
 461 1775 l 1x000fff80
 461 1677 l 1
 539 1677 l 1x0017ff80
 539 1775 l 1
 616 1775 l 1x000fff80
 616 1677 l 1
 692 1677 l 1x0017ff80
 692 1775 l 1
 769 1775 l 1x000fff80
 769 1677 l 1
 846 1677 l 1x0017ff80
 846 1775 l 1
 922 1775 l 1
 922 1577 l 1x000fff80
77 1179 m 1
 77 1080 l 1
 153 1080 l 1
 153 1179 l 1
 77 1179 l 1
230 1179 m 1
 230 1080 l 1
 307 1080 l 1
 307 1179 l 1
 230 1179 l 1
384 1179 m 1
 384 1080 l 1
 461 1080 l 1
 461 1179 l 1
 384 1179 l 1
539 1179 m 1
 539 1080 l 1
 616 1080 l 1
 616 1179 l 1
 539 1179 l 1
692 1179 m 1
 692 1080 l 1
 769 1080 l 1
 769 1179 l 1
 692 1179 l 1
846 980 m 1x0147ff80
 769 980 l 1
 769 880 l 1
 846 880 l 1
 846 980 l 1x0147ff80
692 980 m 1
 616 980 l 1
 616 880 l 1
 692 880 l 1
 692 980 l 1
539 980 m 1
 461 980 l 1
 461 880 l 1
 539 880 l 1
 539 980 l 1
384 980 m 1
 307 980 l 1
 307 880 l 1
 384 880 l 1
 384 980 l 1
230 980 m 1
 153 980 l 1
 153 880 l 1
 230 880 l 1
 230 980 l 1
77 781 m 1x0287ff80
 77 681 l 1
 153 681 l 1
 153 781 l 1
 77 781 l 1x0287ff80
230 781 m 1
 230 681 l 1
 307 681 l 1
 307 781 l 1
 230 781 l 1
384 781 m 1
 384 681 l 1
 461 681 l 1
 461 781 l 1
 384 781 l 1
539 781 m 1
 539 681 l 1
 616 681 l 1
 616 781 l 1
 539 781 l 1
692 781 m 1
 692 681 l 1
 769 681 l 1
 769 781 l 1
 692 781 l 1
230 581 m 1x0507ff80
 153 581 l 1
 153 482 l 1
 230 482 l 1
 230 581 l 1x0507ff80
307 581 m 1
 307 482 l 1
 384 482 l 1
 384 581 l 1
 307 581 l 1
461 581 m 1
 461 482 l 1
 539 482 l 1
 539 581 l 1
 461 581 l 1
616 581 m 1
 616 482 l 1
 692 482 l 1
 692 581 l 1
 616 581 l 1
769 581 m 1
 769 482 l 1
 846 482 l 1
 846 581 l 1
 769 581 l 1
77 382 m 1x0a07ff80
 77 283 l 1
 153 283 l 1
 153 382 l 1
 77 382 l 1x0a07ff80
384 382 m 1
 384 283 l 1
 461 283 l 1
 461 382 l 1
 384 382 l 1
307 283 m 1
 307 382 l 1
 230 382 l 1
 230 283 l 1
 307 283 l 1
539 382 m 1
 539 283 l 1
 616 283 l 1
 616 382 l 1
 539 382 l 1
692 382 m 1
 692 283 l 1
 769 283 l 1
 769 382 l 1
 692 382 l 1
846 84 m 1x1407ff80
 846 183 l 1
 769 183 l 1
 769 84 l 1
 846 84 l 1x1407ff80
692 84 m 1
 692 183 l 1
 616 183 l 1
 616 84 l 1
 692 84 l 1
539 84 m 1
 539 183 l 1
 461 183 l 1
 461 84 l 1
 539 84 l 1
384 84 m 1
 384 183 l 1
 307 183 l 1
 307 84 l 1
 384 84 l 1
230 84 m 1
 230 183 l 1
 153 183 l 1
 153 84 l 1
 230 84 l 1
77 -16 m 1x2807ff80
 77 -115 l 1
 153 -115 l 1
 153 -16 l 1
 77 -16 l 1x2807ff80
230 -16 m 1
 230 -115 l 1
 307 -115 l 1
 307 -16 l 1
 230 -16 l 1
384 -16 m 1
 384 -115 l 1
 461 -115 l 1
 461 -16 l 1
 384 -16 l 1
539 -16 m 1
 539 -115 l 1
 616 -115 l 1
 616 -16 l 1
 539 -16 l 1
692 -16 m 1
 692 -115 l 1
 769 -115 l 1
 769 -16 l 1
 692 -16 l 1
846 -315 m 1x9007ff80
 846 -215 l 1
 769 -215 l 1
 769 -315 l 1
 846 -315 l 1x9007ff80
692 -315 m 1
 692 -215 l 1
 616 -215 l 1
 616 -315 l 1
 692 -315 l 1
539 -315 m 1
 539 -215 l 1
 461 -215 l 1
 461 -315 l 1
 539 -315 l 1
384 -315 m 1
 384 -215 l 1
 307 -215 l 1
 307 -315 l 1
 384 -315 l 1
230 -315 m 1
 230 -215 l 1
 153 -215 l 1
 153 -315 l 1
 230 -315 l 1
77 -414 m 1x6007ff80
 77 -514 l 1
 153 -514 l 1
 153 -414 l 1
 77 -414 l 1x6007ff80
230 -414 m 1
 230 -514 l 1
 307 -514 l 1
 307 -414 l 1
 230 -414 l 1
384 -414 m 1
 384 -514 l 1
 461 -514 l 1
 461 -414 l 1
 384 -414 l 1
539 -414 m 1
 539 -514 l 1
 616 -514 l 1
 616 -414 l 1
 539 -414 l 1
692 -414 m 1
 692 -514 l 1
 769 -514 l 1
 769 -414 l 1
 692 -414 l 1
846 1378 m 1x0057ff80
 769 1378 l 1
 769 1279 l 1
 846 1279 l 1
 846 1378 l 1x0057ff80
692 1378 m 1
 616 1378 l 1
 616 1279 l 1
 692 1279 l 1
 692 1378 l 1
539 1378 m 1
 461 1378 l 1
 461 1279 l 1
 539 1279 l 1
 539 1378 l 1
384 1378 m 1
 307 1378 l 1
 307 1279 l 1
 384 1279 l 1
 384 1378 l 1
230 1378 m 1
 153 1378 l 1
 153 1279 l 1
 230 1279 l 1
 230 1378 l 1
769 1577 m 1x002fff80
 692 1577 l 1
 692 1478 l 1
 769 1478 l 1
 769 1577 l 1x002fff80
616 1577 m 1
 539 1577 l 1
 539 1478 l 1
 616 1478 l 1
 616 1577 l 1
461 1577 m 1
 384 1577 l 1
 384 1478 l 1
 461 1478 l 1
 461 1577 l 1
307 1577 m 1
 230 1577 l 1
 230 1478 l 1
 307 1478 l 1
 307 1577 l 1
153 1577 m 1
 77 1577 l 1
 77 1478 l 1
 153 1478 l 1
 153 1577 l 1
EndSplineSet
EndChar

StartChar: blacksquare
Encoding: 9632 9632 576
Width: 922
Flags: W
HStem: 116.375 992.245<0 922>
VStem: 0 922<116.375 1108.62>
LayerCount: 2
Fore
SplineSet
0 1109 m 5
 922 1109 l 5
 922 116 l 5
 0 116 l 5
 0 1109 l 5
EndSplineSet
EndChar

StartChar: whitesquare
Encoding: 9633 9633 577
Width: 922
Flags: W
HStem: 116 192.35<187.15 733.85> 916.65 192.35<187.15 733.85>
VStem: 0 187.15<308.35 916.65> 733.85 188.15<308.35 916.65>
LayerCount: 2
Fore
SplineSet
0 1109 m 1
 922 1109 l 1
 922 116 l 1
 0 116 l 1
 0 1109 l 1
187 917 m 1
 187 308 l 1
 734 308 l 1
 734 917 l 1
 187 917 l 1
EndSplineSet
EndChar

StartChar: blacksmallsquare
Encoding: 9642 9642 578
Width: 922
Flags: W
HStem: 400.365 472.271<224.175 696.825>
VStem: 224.175 472.65<400.365 872.635>
LayerCount: 2
Fore
SplineSet
697 400 m 5
 224 400 l 5
 224 873 l 5
 697 873 l 5
 697 400 l 5
EndSplineSet
EndChar

StartChar: whitesmallsquare
Encoding: 9643 9643 579
Width: 922
Flags: W
HStem: 400.365 113.926<341.925 579.075> 758.709 113.926<341.925 579.075>
VStem: 224.175 117.75<514.291 758.709> 579.075 117.75<514.291 758.709>
LayerCount: 2
Fore
SplineSet
697 400 m 1
 224 400 l 1
 224 873 l 1
 697 873 l 1
 697 400 l 1
579 514 m 1
 579 759 l 1
 342 759 l 1
 342 514 l 1
 579 514 l 1
EndSplineSet
EndChar

StartChar: blackrectangle
Encoding: 9644 9644 580
Width: 922
Flags: W
HStem: 395 231<0 922>
LayerCount: 2
Fore
SplineSet
0 626 m 1
 922 626 l 5
 922 395 l 5
 0 395 l 1
 0 626 l 1
EndSplineSet
Validated: 3073
EndChar

StartChar: triagup
Encoding: 9650 9650 581
Width: 922
Flags: W
LayerCount: 2
Fore
SplineSet
0 114 m 5
 460 914 l 5
 922 114 l 5
 0 114 l 5
EndSplineSet
EndChar

StartChar: triagrt
Encoding: 9658 9658 582
Width: 922
Flags: W
LayerCount: 2
Fore
SplineSet
63 -63 m 1
 61 860 l 1
 861 398 l 1
 63 -63 l 1
EndSplineSet
EndChar

StartChar: triagdn
Encoding: 9660 9660 583
Width: 922
Flags: W
LayerCount: 2
Fore
SplineSet
922 914 m 5
 462 114 l 5
 0 914 l 5
 922 914 l 5
EndSplineSet
EndChar

StartChar: triaglf
Encoding: 9668 9668 584
Width: 922
Flags: W
LayerCount: 2
Fore
SplineSet
62 398 m 5
 860 861 l 5
 860 -63 l 5
 62 398 l 5
EndSplineSet
EndChar

StartChar: lozenge
Encoding: 9674 9674 585
Width: 922
Flags: W
DStem2: 261 710 89 709 0.489251 -0.872143<0 400.76> 89 709 261 710 0.486669 0.873586<84.5807 485.336> 501 1287 458 1059 0.499203 -0.866485<176.093 577.838> 458 361 501 135 0.501808 0.864979<0 401.737>
LayerCount: 2
Fore
SplineSet
501 1287 m 1
 834 709 l 1
 501 135 l 1
 411 135 l 1
 89 709 l 1
 411 1287 l 1
 501 1287 l 1
458 1059 m 1
 261 710 l 1
 458 361 l 1
 657 710 l 1
 458 1059 l 1
EndSplineSet
EndChar

StartChar: whitecircle
Encoding: 9675 9675 586
Width: 922
Flags: W
HStem: 221 150<334.35 586.595> 784 150<333.91 587.132>
VStem: 104 150<452.439 703.668> 668 150<451.815 701.975>
LayerCount: 2
Fore
SplineSet
461 934 m 0
 663 934 818 770 818 578 c 0
 818 377 658 221 461 221 c 0
 258 221 104 381 104 578 c 0
 104 763 251 934 461 934 c 0
461 784 m 0
 341 784 254 688 254 578 c 0
 254 453 355 371 461 371 c 256
 577 371 668 463 668 578 c 0
 668 683 584 784 461 784 c 0
EndSplineSet
EndChar

StartChar: blackcircle
Encoding: 9679 9679 587
Width: 922
Flags: W
HStem: 221 713<292.824 631.094>
VStem: 104 714<407.906 745.646>
LayerCount: 2
Fore
SplineSet
461 934 m 0
 663 934 818 770 818 578 c 0
 818 377 658 221 461 221 c 0
 258 221 104 381 104 578 c 0
 104 763 251 934 461 934 c 0
EndSplineSet
EndChar

StartChar: bulletinverse
Encoding: 9688 9688 588
Width: 922
Flags: W
HStem: 93.0996 233.28<349.727 573.114> 653.62 233.28<348.385 573.674>
VStem: 63 234<377.921 601.629> 624 233<379.634 603.318>
LayerCount: 2
Fore
SplineSet
63 94 m 1
 63 887 l 1
 857 887 l 1
 857 94 l 1
 63 94 l 1
460 654 m 256
 373 654 297 585 297 490 c 0
 297 395 376 327 460 327 c 0
 551 327 624 399 624 490 c 0
 624 582 552 654 460 654 c 256
EndSplineSet
EndChar

StartChar: whitecircleinverse
Encoding: 9689 9689 589
Width: 922
Flags: W
HStem: 110 111<289.809 635.959> 371 413<335.607 588.433> 934 111<293.797 632.866>
VStem: 0 105<406.695 749.753> 255 413<448.029 702.431> 818 104<402.264 747.094>
LayerCount: 2
Fore
SplineSet
0 110 m 1
 0 1045 l 1
 922 1045 l 1
 922 110 l 1
 0 110 l 1
461 934 m 0
 270 934 105 780 105 577 c 0
 105 379 261 221 461 221 c 0
 652 221 818 369 818 577 c 0
 818 774 662 934 461 934 c 0
462 784 m 0
 577 784 668 691 668 577 c 0
 668 459 574 371 462 371 c 0
 349 371 255 459 255 577 c 0
 255 695 351 784 462 784 c 0
EndSplineSet
EndChar

StartChar: whitebullet
Encoding: 9702 9702 590
Width: 922
Flags: W
HStem: 406 113<368.896 552.757> 754 113<368.685 552.223>
VStem: 230 113<545.062 727.979> 579 112<546.84 727.446>
LayerCount: 2
Fore
SplineSet
691 637 m 0
 691 499 580 406 460 406 c 256
 333 406 230 507 230 637 c 0
 230 765 332 867 460 867 c 0
 591 867 691 764 691 637 c 0
579 637 m 0
 579 705 524 754 460 754 c 256
 399 754 343 707 343 637 c 0
 343 566 399 519 460 519 c 256
 526 519 579 571 579 637 c 0
EndSplineSet
EndChar

StartChar: smileface
Encoding: 9786 9786 591
Width: 922
Flags: W
HStem: 124 126<298.564 622.839> 338 54<371.617 548.201> 608 114<255.697 366.296 555.643 665.674> 919 126<293.127 624.394>
VStem: -0 127<417.754 749.129> 254 114<609.589 720.417> 554 113<609.487 720.519> 795 126<419.528 752.828>
LayerCount: 2
Fore
SplineSet
921 584 m 0
 921 327 719 124 460 124 c 0
 202 124 0 329 0 584 c 0
 0 850 212 1045 460 1045 c 0
 719 1045 921 841 921 584 c 0
795 584 m 0
 795 771 649 919 460 919 c 0
 272 919 127 770 127 584 c 0
 127 390 282 250 460 250 c 0
 642 250 795 392 795 584 c 0
368 666 m 256
 368 634 343 608 310 608 c 256
 278 608 254 636 254 666 c 256
 254 694 277 722 310 722 c 256
 344 722 368 695 368 666 c 256
667 666 m 256
 667 634 644 608 612 608 c 256
 578 608 554 634 554 666 c 256
 554 696 577 722 612 722 c 256
 644 722 667 696 667 666 c 256
280 458 m 1
 319 480 l 1
 351 422 398 392 460 392 c 256
 523 392 570 422 602 480 c 1
 641 458 l 1
 600 378 539 338 460 338 c 0
 363 338 310 401 280 458 c 1
EndSplineSet
EndChar

StartChar: invsmileface
Encoding: 9787 9787 592
Width: 922
Flags: W
HStem: 124 171<330.15 591.942> 738 307<261.901 501.505 421.958 661.515>
VStem: -0 226<494.273 736.313> 343 236<622.894 736.048> 695 226<493.852 734.781>
LayerCount: 2
Fore
SplineSet
921 584 m 0
 921 327 719 124 460 124 c 0
 202 124 0 329 0 584 c 0
 0 850 212 1045 460 1045 c 0
 719 1045 921 841 921 584 c 0
343 680 m 256
 343 710 318 738 284 738 c 256
 250 738 226 709 226 680 c 256
 226 650 251 621 284 621 c 256
 317 621 343 648 343 680 c 256
695 680 m 256
 695 711 672 738 638 738 c 256
 603 738 579 711 579 680 c 256
 579 648 604 621 638 621 c 256
 671 621 695 648 695 680 c 256
248 436 m 1
 283 369 346 295 460 295 c 0
 575 295 637 368 673 436 c 1
 627 462 l 1
 589 393 534 358 460 358 c 256
 387 358 332 393 294 462 c 1
 248 436 l 1
EndSplineSet
Validated: 3073
EndChar

StartChar: compass
Encoding: 9788 9788 593
Width: 922
Flags: W
HStem: 448 46<0 162 760 922> 722 47<486 563.283>
VStem: 162 48<494 578.675> 436 50<10 173 769 932> 710 50<363.517 448 492 580.419>
DStem2: 125 839 95 802 0.707613 -0.7066<4.91579 197.993 796.168 991.33> 95 139 127 106 0.708621 0.705589<0 194.565 792.769 988.636>
LayerCount: 2
Fore
SplineSet
436 932 m 1
 486 932 l 1
 486 769 l 1
 555 769 606 738 654 701 c 1
 795 838 l 1
 828 804 l 1
 690 665 l 1
 734 607 760 549 760 492 c 1
 922 492 l 1
 922 448 l 1
 760 448 l 1
 753 388 730 330 691 280 c 1
 828 137 l 1
 793 105 l 1
 654 242 l 1
 598 200 556 181 486 173 c 1
 486 10 l 1
 436 10 l 1
 436 173 l 1
 373 182 318 205 269 240 c 1
 127 106 l 1
 95 139 l 1
 232 278 l 1
 192 329 169 385 162 448 c 1
 0 448 l 1
 0 494 l 1
 162 494 l 1
 162 558 191 614 231 663 c 1
 95 802 l 1
 125 839 l 1
 268 702 l 1
 325 741 382 763 436 769 c 1
 436 932 l 1
460 722 m 256
 316 722 210 607 210 471 c 0
 210 332 318 221 460 221 c 256
 604 221 710 335 710 471 c 0
 710 611 599 722 460 722 c 256
EndSplineSet
Validated: 3073
EndChar

StartChar: female
Encoding: 9792 9792 594
Width: 922
Flags: W
HStem: 343 69<175 426 499 747> 577 81<346.207 426 499 579.178> 1069 84<343.449 581.435>
VStem: 183 79<741.948 982.372> 426 73<80 343 412 577> 661 80<741.559 986.112>
LayerCount: 2
Fore
SplineSet
426 577 m 1
 287 597 183 715 183 862 c 0
 183 1037 317 1153 462 1153 c 0
 608 1153 741 1035 741 862 c 0
 741 704 628 594 499 577 c 1
 499 412 l 1
 747 412 l 1
 747 343 l 1
 499 343 l 1
 499 80 l 1
 426 80 l 1
 426 343 l 1
 175 343 l 1
 175 412 l 1
 426 412 l 1
 426 577 l 1
461 1069 m 0
 351 1069 262 979 262 864 c 256
 262 747 352 658 461 658 c 256
 568 658 661 744 661 864 c 256
 661 983 569 1069 461 1069 c 0
EndSplineSet
Validated: 3073
EndChar

StartChar: male
Encoding: 9794 9794 595
Width: 922
Flags: W
HStem: 250 75<211.388 439.888> 750 75<207.521 441.935>
VStem: 42 76<417.863 660.889> 531 75<414.96 660.222>
DStem2: 474 782 525 740 0.693164 0.72078<5.0786 360.117>
LayerCount: 2
Fore
SplineSet
474 782 m 1
 725 1043 l 1
 673 1069 516 1124 516 1129 c 1
 537 1153 l 9
 864 1153 l 0
 880 1138 l 0
 880 793 l 273
 857 772 l 1
 852 772 795 945 771 996 c 1
 525 740 l 1
 579 686 606 622 606 548 c 0
 606 378 478 250 323 250 c 256
 162 250 42 381 42 535 c 0
 42 694 164 825 325 825 c 0
 371 825 420 811 474 782 c 1
325 750 m 0
 209 750 118 657 118 538 c 256
 118 415 216 325 325 325 c 256
 431 325 531 408 531 538 c 0
 531 663 434 750 325 750 c 0
EndSplineSet
Validated: 3073
EndChar

StartChar: spade
Encoding: 9824 9824 596
Width: 922
Flags: W
HStem: 152 28<168 272.283 656.397 754>
VStem: 456 14<417.894 503>
LayerCount: 2
Fore
SplineSet
461 1079 m 1
 532 784 826 737 826 527 c 0
 826 428 751 359 662 359 c 0
 584 359 520 407 470 503 c 1
 470 244 613 180 754 180 c 1
 759 152 l 1
 162 152 l 1
 168 180 l 1
 399 180 456 334 456 503 c 1
 409 401 338 359 260 359 c 0
 170 359 95 432 95 524 c 0
 95 746 393 770 461 1079 c 1
EndSplineSet
Validated: 3073
EndChar

StartChar: club
Encoding: 9827 9827 597
Width: 922
Flags: W
HStem: 151 25<150 211.374 718.551 773> 355 416<78.7852 299.617 619.973 842.203>
VStem: 252 415<744.613 993.475> 453 15<445.978 533>
LayerCount: 2
Fore
SplineSet
779 151 m 1xd0
 145 151 l 1
 150 176 l 1
 170 180 453 204 453 498 c 0
 453 506 453 517 453 533 c 1xd0
 397 418 305 355 207 355 c 0
 101 355 0 434 0 564 c 0
 0 700 103 771 179 771 c 0
 210 771 251 758 302 732 c 1
 260 802 252 827 252 869 c 0
 252 980 336 1071 459 1071 c 0
 579 1071 667 981 667 871 c 0xe0
 667 826 650 780 615 732 c 1
 686 765 696 771 737 771 c 0
 835 771 922 687 922 567 c 0
 922 444 827 355 717 355 c 0
 561 355 483 508 468 533 c 1
 468 244 629 205 773 176 c 1
 779 151 l 1xd0
EndSplineSet
Validated: 3073
EndChar

StartChar: heart
Encoding: 9829 9829 598
Width: 922
Flags: W
LayerCount: 2
Fore
SplineSet
463 122 m 1
 381 425 79 615 79 816 c 0
 79 925 159 999 260 999 c 0
 341 999 418 954 463 824 c 1
 499 954 583 1000 661 1000 c 0
 767 1000 842 917 842 825 c 0
 842 592 542 425 463 122 c 1
EndSplineSet
Validated: 3073
EndChar

StartChar: diamond
Encoding: 9830 9830 599
Width: 922
Flags: W
LayerCount: 2
Fore
SplineSet
460 1068 m 1
 535 891 675 714 805 600 c 1
 696 516 544 314 460 130 c 1
 392 284 228 516 118 600 c 1
 249 714 363 864 460 1068 c 1
EndSplineSet
Validated: 3073
EndChar

StartChar: musicalnote
Encoding: 9834 9834 600
Width: 922
Flags: W
HStem: 135.78 236.52<235.114 404.073> 1026.22 20G<419 480>
VStem: 183 297<213.517 321.525> 419 61<357.72 767.58 964.41 1046.22> 626 67<401.088 670.848>
LayerCount: 2
Fore
SplineSet
419 358 m 1xd8
 419 1047 l 1
 480 1047 l 1
 480 965 l 1
 605 810 l 2
 651 746 693 656 693 553 c 0
 693 469 667 396 616 333 c 1
 578 333 l 1
 610 404 626 471 626 535 c 256
 626 674 543 758 480 768 c 1
 480 358 l 2xd8
 480 226 395 136 276 136 c 0
 218 136 183 164 183 216 c 0xe8
 183 297 253 373 346 373 c 0
 368 373 392 369 419 358 c 1xd8
EndSplineSet
Validated: 3073
EndChar

StartChar: musicalnotedbl
Encoding: 9835 9835 601
Width: 922
Flags: W
HStem: 71 235<87.9738 255.579> 147 235<593.354 761.757> 1025 20G<760.793 839>
VStem: 272 61<292 611 714 807> 779 60<368 732 835 928>
DStem2: 272 900 333 807 0.968822 0.247759<36.0566 498.13> 333 714 333 611 0.965113 0.261835<0 435.153>
LayerCount: 2
Fore
SplineSet
839 368 m 2xb8
 839 223 740 147 636 147 c 0
 558 147 543 195 543 227 c 0
 543 307 612 382 706 382 c 0x78
 733 382 757 376 779 368 c 1
 779 732 l 1
 333 611 l 1
 333 292 l 2
 333 147 234 71 129 71 c 0
 51 71 36 119 36 151 c 0
 36 230 105 306 200 306 c 0
 227 306 253 301 272 292 c 1
 272 900 l 1
 839 1045 l 1
 839 368 l 2xb8
333 714 m 1
 779 835 l 1
 779 928 l 1
 333 807 l 1
 333 714 l 1
EndSplineSet
Validated: 3073
EndChar

StartChar: arrowboth
Encoding: 8596 8596 602
Width: 922
VWidth: 1708
Flags: W
LayerCount: 2
Fore
SplineSet
371 960 m 29
 50 600 l 29
 371 240 l 29
0 -99 m 5
 0 1224 l 5
 922 1224 l 5
 922 -99 l 5
 0 -99 l 5
551 960 m 29
 872 600 l 29
 551 240 l 29
872 600 m 29
 50 600 l 29
EndSplineSet
EndChar

StartChar: arrowbothv
Encoding: 8597 8597 603
Width: 922
VWidth: 1708
Flags: W
LayerCount: 2
Fore
SplineSet
821 690 m 29
 461 1061 l 29
 101 690 l 29
0 87 m 5
 0 1113 l 5
 922 1113 l 5
 922 87 l 5
 0 87 l 5
821 510 m 29
 461 139 l 29
 101 510 l 29
461 139 m 29
 461 1061 l 29
EndSplineSet
EndChar

StartChar: updownarrowbar
Encoding: 8616 8616 604
Width: 922
VWidth: 1708
Flags: W
LayerCount: 2
Fore
SplineSet
50 58 m 25
 872 58 l 25
821 690 m 25
 461 1061 l 25
 101 690 l 25
0 -443 m 1
 0 1113 l 1
 922 1113 l 1
 922 -443 l 1
 0 -443 l 1
821 510 m 25
 461 139 l 25
 101 510 l 25
461 139 m 25
 461 1061 l 25
EndSplineSet
EndChar

StartChar: nsuperior
Encoding: 8319 8319 605
Width: 922
VWidth: 1947
Flags: MW
LayerCount: 2
Back
SplineSet
309 1425 m 5
 1063 1425 l 5
 876 544 l 5
 122 544 l 5
 309 1425 l 5
EndSplineSet
Fore
SplineSet
658 390 m 25
 817 1135 l 18
 846 1271 813 1349 644 1349 c 10
 628 1349 l 18
 494 1349 365 1140 340 1026 c 10
 204 390 l 25
 450 1545 l 25
EndSplineSet
EndChar

StartChar: radical
Encoding: 8730 8730 606
Width: 922
VWidth: 1708
Flags: MW
LayerCount: 2
Back
SplineSet
-67 -25 m 5
 285 1633 l 5
 1157 1633 l 5
 805 -25 l 5
 -67 -25 l 5
EndSplineSet
Fore
SplineSet
1093 1755 m 25
 411 52 l 25
 350 980 l 25
 -16 980 l 25
EndSplineSet
EndChar

StartChar: intersection
Encoding: 8745 8745 608
Width: 922
VWidth: 1708
Flags: MW
LayerCount: 2
Back
SplineSet
-115 0 m 5
 234 1638 l 5
 1159 1638 l 5
 807 0 l 5
 -115 0 l 5
EndSplineSet
Fore
SplineSet
32 -183 m 25
 271 972 l 18
 316 1185 446 1318 616 1318 c 10
 634 1318 l 18
 825 1318 880 1182 836 975 c 10
 590 -183 l 25
EndSplineSet
EndChar

StartChar: infinity
Encoding: 8734 8734 609
Width: 922
Flags: MW
LayerCount: 2
Fore
SplineSet
687 843 m 3
 817 843 847 720 847 618 c 3
 847 522 772 392 647 392 c 3
 521 392 482 512 482 618 c 3
 482 717 571 843 687 843 c 3
317 843 m 3
 198 843 117 719 117 618 c 3
 117 526 152 392 277 392 c 3
 403 392 482 512 482 618 c 3
 482 717 439 843 317 843 c 3
EndSplineSet
EndChar

StartChar: almostequal
Encoding: 8776 8776 610
Width: 922
VWidth: 1947
Flags: MW
LayerCount: 2
Fore
SplineSet
99 340 m 17
 153 448 232 517 305 517 c 10
 320 517 l 18
 349 517 385 500 406 473 c 2
 479 381 l 2
 498 356 533 341 560 341 c 10
 575 341 l 18
 656 341 733 426 782 517 c 9
197 800 m 17
 251 908 330 977 403 977 c 10
 418 977 l 18
 447 977 482 960 503 933 c 2
 577 841 l 2
 596 816 631 801 658 801 c 10
 673 801 l 18
 754 801 830 886 880 977 c 9
EndSplineSet
EndChar

StartChar: equivalence
Encoding: 8801 8801 611
Width: 922
Flags: MW
LayerCount: 2
Fore
SplineSet
136 920 m 25
 958 920 l 25
66 600 m 25
 888 600 l 25
-5 280 m 25
 817 280 l 25
EndSplineSet
EndChar

StartChar: lessequal
Encoding: 8804 8804 612
Width: 922
VWidth: 1708
Flags: MW
LayerCount: 2
Back
SplineSet
321 1612 m 5
 1063 1612 l 5
 688 -150 l 5
 -54 -150 l 5
 321 1612 l 5
EndSplineSet
Fore
SplineSet
-61 669 m 25
 891 117 l 25
1137 1290 m 25
 226 877 l 25
 957 465 l 25
EndSplineSet
EndChar

StartChar: greaterequal
Encoding: 8805 8805 613
Width: 922
VWidth: 1708
Flags: MW
LayerCount: 2
Back
SplineSet
321 1612 m 5
 1063 1612 l 5
 688 -150 l 5
 -54 -150 l 5
 321 1612 l 5
EndSplineSet
Fore
SplineSet
1023 661 m 25
 -144 117 l 25
72 1293 m 25
 844 877 l 25
 -105 447 l 25
EndSplineSet
EndChar

StartChar: revlogicalnot
Encoding: 8976 8976 614
Width: 922
VWidth: 1947
Flags: MW
LayerCount: 2
Back
SplineSet
105 1024 m 5
 977 1024 l 5
 812 246 l 5
 -60 246 l 5
 105 1024 l 5
EndSplineSet
Fore
SplineSet
1038 600 m 25
 198 600 l 25
 95 114 l 25
EndSplineSet
EndChar

StartChar: integraltp
Encoding: 8992 8992 615
Width: 922
Flags: MW
LayerCount: 2
Fore
SplineSet
461 -615 m 25
 461 1414 l 18
 461 1489.5 511.5 1548 600 1548 c 2
 610 1548 l 2
 693 1548 740 1489.5 740 1414 c 9
 740 1308 l 25
EndSplineSet
EndChar

StartChar: integralbt
Encoding: 8993 8993 616
Width: 922
Flags: MW
LayerCount: 2
Fore
SplineSet
461 1775 m 29
 461 -324 l 18
 461 -399.5 410.5 -458 322 -458 c 2
 312 -458 l 2
 229 -458 182 -399.5 182 -324 c 9
 182 -218 l 25
EndSplineSet
EndChar
